<?xml version="1.0" standalone="no"?>
<!DOCTYPE svg PUBLIC "-//W3C//DTD SVG 1.1//EN" "http://www.w3.org/Graphics/SVG/1.1/DTD/svg11.dtd" >
<svg xmlns="http://www.w3.org/2000/svg" xmlns:xlink="http://www.w3.org/1999/xlink" version="1.1">
<metadata>
Created by FontForge 20170731 at Fri Jun 24 16:30:17 2022
 By Aleksey,,,
Copyright 2022 The Aboreto Project Authors (https://github.com/domija/Aboreto)
</metadata>
<defs>
<font id="Aboreto-Regular" horiz-adv-x="582" vert-adv-y="1000" >
  <font-face 
    font-family="Aboreto"
    font-weight="400"
    font-stretch="normal"
    units-per-em="1000"
    panose-1="0 0 0 0 0 0 0 0 0 0"
    ascent="800"
    descent="-200"
    cap-height="700"
    bbox="-140 -256 1089 924"
    underline-thickness="50"
    underline-position="-175"
    unicode-range="U+000D-25CA"
  />
<missing-glyph horiz-adv-x="530" vert-adv-y="0" 
d="M70 0v700h390v-700h-390zM123 660l142 -268l142 268h-284zM110 601v-502l133 251zM287 350l133 -251v502zM407 40l-142 268l-142 -268h284z" />
    <glyph glyph-name=".notdef" horiz-adv-x="530" vert-adv-y="0" 
d="M70 0v700h390v-700h-390zM123 660l142 -268l142 268h-284zM110 601v-502l133 251zM287 350l133 -251v502zM407 40l-142 268l-142 -268h284z" />
    <glyph glyph-name=".null" horiz-adv-x="0" vert-adv-y="0" 
 />
    <glyph glyph-name="nonmarkingreturn" horiz-adv-x="333" 
 />
    <glyph glyph-name="NULL" horiz-adv-x="0" vert-adv-y="0" 
 />
    <glyph glyph-name="NULL" horiz-adv-x="0" vert-adv-y="0" 
 />
    <glyph glyph-name="CR" unicode="&#xd;" horiz-adv-x="250" vert-adv-y="0" 
 />
    <glyph glyph-name="space" unicode=" " horiz-adv-x="270" vert-adv-y="0" 
 />
    <glyph glyph-name="exclam" unicode="!" horiz-adv-x="330" vert-adv-y="0" 
d="M155 173l-32 527h84l-32 -527h-20zM113 42q0 23 15 37.5t37 14.5q23 0 37.5 -14.5t14.5 -37.5q0 -22 -14.5 -37t-37.5 -15q-22 0 -37 15t-15 37z" />
    <glyph glyph-name="quotedbl" unicode="&#x22;" horiz-adv-x="391" vert-adv-y="0" 
d="M151 640l-28 -168h-18l-28 168q-2 12 -2 23q0 17 8 32t31 15t31 -15t8 -32q0 -6 -0.5 -12t-1.5 -11zM314 640l-28 -168h-18l-28 168q-2 12 -2 23q0 17 8 32t31 15t31 -15t8 -32q0 -6 -0.5 -12t-1.5 -11z" />
    <glyph glyph-name="numbersign" unicode="#" horiz-adv-x="598" vert-adv-y="0" 
d="M111 0l36 203h-112v56h122l35 196h-112v56h122l33 189h25l-33 -189h199l33 189h25l-33 -189h112v-56h-122l-35 -196h112v-56h-122l-36 -203h-25l36 203h-199l-36 -203h-25zM182 259h199l35 196h-199z" />
    <glyph glyph-name="dollar" unicode="$" horiz-adv-x="513" vert-adv-y="0" 
d="M54 22l6 60h6q36 -32 83.5 -51t93.5 -21v327q-47 27 -87.5 55.5t-66 64.5t-25.5 88q0 72 50 118t132 50v77h26v-76q39 -1 82 -9.5t67 -20.5l-5 -55h-6q-27 29 -62.5 44.5t-75.5 16.5v-287q48 -27 91 -57t70.5 -71t27.5 -100q0 -80 -53 -132t-139 -57v-84h-26v84
q-40 1 -92 11t-97 25zM120 570q0 -37 18 -64.5t47 -48.5t61 -40v272q-57 -4 -91.5 -36t-34.5 -83zM403 148q0 48 -30 88t-104 86v-311q61 4 97.5 41t36.5 96z" />
    <glyph glyph-name="percent" unicode="%" horiz-adv-x="770" vert-adv-y="0" 
d="M44 527q0 82 40.5 132t105.5 50t105.5 -50t40.5 -132t-40.5 -132t-105.5 -50t-105.5 50t-40.5 132zM173 0l392 700h32l-392 -700h-32zM102 527q0 -77 23.5 -119.5t64.5 -42.5t64.5 42.5t23.5 119.5t-23.5 119.5t-64.5 42.5q-42 0 -65 -42t-23 -120zM434 172
q0 82 40.5 132t105.5 50t105.5 -50t40.5 -132t-40.5 -132t-105.5 -50t-105.5 50t-40.5 132zM492 172q0 -77 23.5 -119.5t64.5 -42.5t64.5 42.5t23.5 119.5t-23.5 119.5t-64.5 42.5t-64.5 -42.5t-23.5 -119.5z" />
    <glyph glyph-name="ampersand" unicode="&#x26;" horiz-adv-x="697" vert-adv-y="0" 
d="M582 0l-94 102q-41 -61 -88.5 -88.5t-112.5 -27.5t-114 23.5t-76 66t-27 98.5q0 69 41.5 122.5t119.5 84.5l-8 9q-46 50 -66 90.5t-20 83.5q0 68 43 109t113 41q68 0 109.5 -37.5t41.5 -99.5q0 -56 -36.5 -104t-98.5 -80l196 -213l70 186h68l-122 -203l150 -163h-89z
M268 437l27 -29q86 57 86 162q0 57 -23.5 88.5t-64.5 31.5t-68.5 -30.5t-27.5 -80.5q0 -34 17 -67.5t54 -74.5zM135 182q0 -77 45.5 -124.5t118.5 -47.5q100 0 173 110l-226 246q-111 -59 -111 -184z" />
    <glyph glyph-name="quotesingle" unicode="'" horiz-adv-x="228" vert-adv-y="0" 
d="M151 640l-28 -168h-18l-28 168q-2 12 -2 23q0 17 8 32t31 15t31 -15t8 -32q0 -6 -0.5 -12t-1.5 -11z" />
    <glyph glyph-name="parenleft" unicode="(" horiz-adv-x="341" vert-adv-y="0" 
d="M90 350q0 81 23 159.5t66 148.5t102 124l14 -11q-42 -53 -73 -121.5t-47.5 -145t-16.5 -154.5q0 -77 16.5 -154t47.5 -145t73 -122l-14 -11q-59 54 -102 124t-66 149t-23 159z" />
    <glyph glyph-name="parenright" unicode=")" horiz-adv-x="341" vert-adv-y="0" 
d="M251 350q0 -80 -23 -159t-65.5 -149t-102.5 -124l-14 11q43 54 73.5 122t47 145t16.5 154q0 78 -16.5 154.5t-47 145t-73.5 121.5l14 11q60 -54 102.5 -124t65.5 -148.5t23 -159.5z" />
    <glyph glyph-name="asterisk" unicode="*" horiz-adv-x="456" vert-adv-y="0" 
d="M380 432l-145 105l19 -177h-52l19 177l-145 -105l-26 45l164 73l-164 73l26 45l145 -105l-19 177h52l-19 -177l145 105l26 -45l-164 -73l164 -73z" />
    <glyph glyph-name="plus" unicode="+" vert-adv-y="0" 
d="M59 313v30h216v213h32v-213h216v-30h-216v-221h-32v221h-216z" />
    <glyph glyph-name="comma" unicode="," horiz-adv-x="264" vert-adv-y="0" 
d="M75 42q0 23 15 37.5t39 14.5q28 0 42.5 -20.5t14.5 -58.5q0 -49 -24.5 -91.5t-68.5 -72.5l-10 15q69 52 73 146q-12 -19 -35 -19q-21 0 -33.5 14t-12.5 35z" />
    <glyph glyph-name="hyphen" unicode="-" horiz-adv-x="330" vert-adv-y="0" 
d="M40 335v44h250v-44h-250z" />
    <glyph glyph-name="hyphen" unicode="&#x2010;" horiz-adv-x="330" vert-adv-y="0" 
d="M40 335v44h250v-44h-250z" />
    <glyph glyph-name="period" unicode="." horiz-adv-x="264" vert-adv-y="0" 
d="M80 42q0 23 15 37.5t37 14.5q23 0 37.5 -14.5t14.5 -37.5q0 -22 -14.5 -37t-37.5 -15q-22 0 -37 15t-15 37z" />
    <glyph glyph-name="slash" unicode="/" horiz-adv-x="362" vert-adv-y="0" 
d="M50 0l228 700h34l-228 -700h-34z" />
    <glyph glyph-name="zero" unicode="0" horiz-adv-x="642" vert-adv-y="0" 
d="M80 350q0 110 30 191.5t84.5 127t126.5 45.5q73 0 127 -45.5t84 -127t30 -191.5q0 -109 -30 -191t-84 -127.5t-127 -45.5q-72 0 -126.5 45.5t-84.5 127.5t-30 191zM154 350q0 -163 44 -251.5t123 -88.5q80 0 123.5 88.5t43.5 251.5t-44 251.5t-123 88.5t-123 -88.5
t-44 -251.5z" />
    <glyph glyph-name="one" unicode="1" horiz-adv-x="389" vert-adv-y="0" 
d="M191 0v642l-145 -68l-8 16l201 124h20v-714h-68z" />
    <glyph glyph-name="two" unicode="2" horiz-adv-x="536" vert-adv-y="0" 
d="M46 0v18l251 324q86 111 86 203q0 67 -36 106t-95 39q-41 0 -84 -19.5t-77 -53.5h-6l-5 54q35 20 80.5 31.5t91.5 11.5q92 0 148.5 -44.5t56.5 -118.5q0 -46 -28 -101.5t-97 -134.5l-222 -255h366v-60h-430z" />
    <glyph glyph-name="three" unicode="3" horiz-adv-x="533" vert-adv-y="0" 
d="M196 372h-22v24h18q75 0 118.5 37.5t43.5 110.5q0 67 -35.5 106.5t-94.5 39.5q-39 0 -81 -17t-71 -46h-6l-5 53q32 15 76 24.5t87 9.5q92 0 147 -45.5t55 -119.5q0 -60 -38 -102t-110 -59v-6q85 -16 132.5 -67.5t47.5 -127.5q0 -61 -29.5 -106t-82 -70t-122.5 -25
q-43 0 -88 10t-80 26l-6 60h6q37 -35 80.5 -53.5t87.5 -18.5q73 0 116.5 49t43.5 131q0 83 -51 132.5t-137 49.5z" />
    <glyph glyph-name="four" unicode="4" horiz-adv-x="568" vert-adv-y="0" 
d="M34 196v20l266 484h76l-312 -480h282v210h66v-210h122v-24h-122v-196h-66v196h-312z" />
    <glyph glyph-name="five" unicode="5" horiz-adv-x="521" vert-adv-y="0" 
d="M61 82q39 -31 85 -51.5t94 -20.5q71 0 114.5 47t43.5 124t-46.5 131t-129.5 70l-127 24l29 294h304v-60h-285l-17 -173l114 -22q103 -19 159.5 -83t56.5 -157q0 -65 -27 -114.5t-75.5 -77t-112.5 -27.5q-40 0 -86 10t-94 26l-6 60h6z" />
    <glyph glyph-name="six" unicode="6" horiz-adv-x="589" vert-adv-y="0" 
d="M312 -14q-73 0 -126.5 35.5t-82.5 101.5t-29 156q0 89 27 165t76.5 134t117 93.5t147.5 42.5l2 -18q-85 -10 -152 -63.5t-105.5 -142t-38.5 -206.5q0 -127 44.5 -200.5t119.5 -73.5q63 0 102 50t39 132q0 85 -39 135t-105 50q-49 0 -97 -25l-9 16q65 37 131 37
q58 0 101 -25.5t67.5 -71.5t24.5 -108q0 -64 -27 -112t-75.5 -75t-112.5 -27z" />
    <glyph glyph-name="seven" unicode="7" horiz-adv-x="514" vert-adv-y="0" 
d="M34 640v60h430v-20l-269 -680h-74l299 640h-386z" />
    <glyph glyph-name="eight" unicode="8" horiz-adv-x="600" vert-adv-y="0" 
d="M525 169q0 -55 -28 -96t-78.5 -64t-118.5 -23q-102 0 -163.5 47t-61.5 124q0 68 48 123t130 82q-80 48 -115 91t-35 98q0 74 54.5 118.5t142.5 44.5q59 0 103 -19t69 -53.5t25 -79.5q0 -55 -37 -101t-104 -76q66 -40 102.5 -75.5t51.5 -70t15 -70.5zM163 573
q0 -35 18 -62t56 -53.5t98 -60.5q46 23 72.5 64.5t26.5 96.5q0 63 -36 97.5t-98 34.5q-61 0 -99 -32t-38 -85zM140 161q0 -70 43 -110.5t117 -40.5q73 0 118 37.5t45 100.5q0 35 -17 65.5t-58 62.5t-112 73q-65 -27 -100.5 -75.5t-35.5 -112.5z" />
    <glyph glyph-name="nine" unicode="9" horiz-adv-x="586" vert-adv-y="0" 
d="M164 -14l-2 18q85 11 147 68t95.5 147t33.5 197q0 127 -44 200.5t-118 73.5q-63 0 -101.5 -48.5t-38.5 -128.5q0 -82 38.5 -131t103.5 -49q48 0 96 25l9 -16q-65 -37 -130 -37q-57 0 -100 25t-67 70t-24 105q0 63 27 110t75 73t112 26q73 0 126 -35.5t81.5 -101
t28.5 -156.5q0 -81 -24 -156t-69.5 -135.5t-110 -98.5t-144.5 -45z" />
    <glyph glyph-name="colon" unicode=":" horiz-adv-x="264" vert-adv-y="0" 
d="M80 42q0 23 15 37.5t37 14.5q23 0 37.5 -14.5t14.5 -37.5q0 -22 -14.5 -37t-37.5 -15q-22 0 -37 15t-15 37zM80 440q0 23 15 37.5t37 14.5q23 0 37.5 -14.5t14.5 -37.5q0 -22 -14.5 -37t-37.5 -15q-22 0 -37 15t-15 37z" />
    <glyph glyph-name="semicolon" unicode=";" horiz-adv-x="264" vert-adv-y="0" 
d="M72 42q0 23 15 37.5t39 14.5q28 0 42.5 -20.5t14.5 -58.5q0 -49 -24.5 -91.5t-68.5 -72.5l-10 15q69 52 73 146q-12 -19 -35 -19q-21 0 -33.5 14t-12.5 35zM76 440q0 23 15 37.5t37 14.5q23 0 37.5 -14.5t14.5 -37.5q0 -22 -14.5 -37t-37.5 -15q-22 0 -37 15t-15 37z" />
    <glyph glyph-name="less" unicode="&#x3c;" vert-adv-y="0" 
d="M59 300v32l464 193v-33l-426 -176l426 -176v-33z" />
    <glyph glyph-name="equal" unicode="=" vert-adv-y="0" 
d="M59 375v30h464v-30h-464zM59 205v30h464v-30h-464z" />
    <glyph glyph-name="greater" unicode="&#x3e;" vert-adv-y="0" 
d="M523 300l-464 -193v33l426 176l-426 176v33l464 -193v-32z" />
    <glyph glyph-name="question" unicode="?" horiz-adv-x="488" vert-adv-y="0" 
d="M310 375l-103 -67l-7 -135h-20l-6 139l100 89q70 61 70 151q0 63 -33 100.5t-88 37.5q-37 0 -78.5 -17t-73.5 -49h-6l-5 54q35 17 78.5 26.5t84.5 9.5q88 0 141.5 -43t53.5 -114q0 -51 -29 -100t-79 -82zM138 42q0 23 15 37.5t37 14.5q23 0 37.5 -14.5t14.5 -37.5
q0 -22 -14.5 -37t-37.5 -15q-22 0 -37 15t-15 37z" />
    <glyph glyph-name="at" unicode="@" horiz-adv-x="1001" vert-adv-y="0" 
d="M555 583q38 0 73.5 -11t60.5 -31l-40 -223q-4 -23 -4 -43q0 -47 21 -72.5t58 -25.5q40 0 70 28.5t47.5 80t17.5 118.5q0 105 -41.5 183.5t-115 122t-170.5 43.5q-82 0 -152 -30.5t-121.5 -86t-80 -131t-28.5 -165.5q0 -117 50 -204t140.5 -135t211.5 -48q93 0 171 31
t152 97l12 -13q-76 -76 -158.5 -110.5t-189.5 -34.5q-136 0 -237 50.5t-156.5 143t-55.5 217.5q0 96 33 177t92.5 140.5t140.5 92.5t178 33q114 0 198.5 -45t131.5 -125.5t47 -189.5q0 -79 -25 -139.5t-68.5 -95t-101.5 -34.5q-98 0 -109 99h-6q-20 -49 -57 -74t-86 -25
q-69 0 -111 46.5t-42 124.5q0 53 19.5 100.5t54.5 84.5t80 58t96 21zM362 333q0 -68 32 -110.5t83 -42.5q45 0 76.5 36t43.5 102l40 222q-18 10 -38 14.5t-41 4.5q-53 0 -98 -31t-71.5 -82.5t-26.5 -112.5z" />
    <glyph glyph-name="A" unicode="A" horiz-adv-x="658" vert-adv-y="0" 
d="M26 0l269 700h62l269 -700h-73l-124 328h-227l-103 -328h-73zM302 648l-93 -296h211l-112 296h-6z" />
    <glyph glyph-name="A" unicode="a" horiz-adv-x="658" vert-adv-y="0" 
d="M26 0l269 700h62l269 -700h-73l-124 328h-227l-103 -328h-73zM302 648l-93 -296h211l-112 296h-6z" />
    <glyph glyph-name="B" unicode="B" horiz-adv-x="617" vert-adv-y="0" 
d="M130 0v700h139q108 0 168 -45t60 -125q0 -59 -35 -100.5t-98 -56.5v-6q86 -11 134.5 -59.5t48.5 -122.5q0 -87 -67 -136t-188 -49h-162zM270 676h-72v-300h71q158 0 158 150t-157 150zM292 352h-94v-328h94q183 0 183 164t-183 164z" />
    <glyph glyph-name="B" unicode="b" horiz-adv-x="617" vert-adv-y="0" 
d="M130 0v700h139q108 0 168 -45t60 -125q0 -59 -35 -100.5t-98 -56.5v-6q86 -11 134.5 -59.5t48.5 -122.5q0 -87 -67 -136t-188 -49h-162zM270 676h-72v-300h71q158 0 158 150t-157 150zM292 352h-94v-328h94q183 0 183 164t-183 164z" />
    <glyph glyph-name="C" unicode="C" horiz-adv-x="758" vert-adv-y="0" 
d="M688 86l-6 -61q-28 -12 -68 -21t-81 -13.5t-73 -4.5q-81 0 -150 27.5t-120.5 76.5t-80.5 115.5t-29 144.5t29 144.5t80.5 115.5t120.5 76.5t150 27.5q33 0 74 -5t80 -13.5t66 -19.5l-5 -56h-6q-37 34 -93 52t-116 18q-90 0 -158.5 -42.5t-107 -119t-38.5 -178.5
q0 -103 38.5 -179t106.5 -118.5t159 -42.5q68 0 126.5 22t95.5 54h6z" />
    <glyph glyph-name="C" unicode="c" horiz-adv-x="758" vert-adv-y="0" 
d="M688 86l-6 -61q-28 -12 -68 -21t-81 -13.5t-73 -4.5q-81 0 -150 27.5t-120.5 76.5t-80.5 115.5t-29 144.5t29 144.5t80.5 115.5t120.5 76.5t150 27.5q33 0 74 -5t80 -13.5t66 -19.5l-5 -56h-6q-37 34 -93 52t-116 18q-90 0 -158.5 -42.5t-107 -119t-38.5 -178.5
q0 -103 38.5 -179t106.5 -118.5t159 -42.5q68 0 126.5 22t95.5 54h6z" />
    <glyph glyph-name="D" unicode="D" horiz-adv-x="814" vert-adv-y="0" 
d="M130 0v700h220q116 0 202 -44t134 -122.5t48 -183.5t-48 -183.5t-134 -122.5t-202 -44h-220zM350 676h-152v-652h152q145 0 226.5 86t81.5 240t-81.5 240t-226.5 86z" />
    <glyph glyph-name="D" unicode="d" horiz-adv-x="814" vert-adv-y="0" 
d="M130 0v700h220q116 0 202 -44t134 -122.5t48 -183.5t-48 -183.5t-134 -122.5t-202 -44h-220zM350 676h-152v-652h152q145 0 226.5 86t81.5 240t-81.5 240t-226.5 86z" />
    <glyph glyph-name="E" unicode="E" horiz-adv-x="518" vert-adv-y="0" 
d="M130 0v700h305v-49l-175 23q-46 6 -62 6v-305q13 0 62 3l164 10v-46l-164 10q-49 3 -62 3v-335q18 0 63 6l177 23v-49h-308z" />
    <glyph glyph-name="E" unicode="e" horiz-adv-x="518" vert-adv-y="0" 
d="M130 0v700h305v-49l-175 23q-46 6 -62 6v-305q13 0 62 3l164 10v-46l-164 10q-49 3 -62 3v-335q18 0 63 6l177 23v-49h-308z" />
    <glyph glyph-name="F" unicode="F" horiz-adv-x="489" vert-adv-y="0" 
d="M130 0v700h294v-49l-166 23q-45 6 -60 6v-313q16 0 62 3l153 10v-46l-153 10q-46 3 -62 3v-347h-68z" />
    <glyph glyph-name="F" unicode="f" horiz-adv-x="489" vert-adv-y="0" 
d="M130 0v700h294v-49l-166 23q-45 6 -60 6v-313q16 0 62 3l153 10v-46l-153 10q-46 3 -62 3v-347h-68z" />
    <glyph glyph-name="G" unicode="G" horiz-adv-x="832" vert-adv-y="0" 
d="M479 332v24h253v-272q-46 -46 -112.5 -72t-148.5 -26q-84 0 -155 27.5t-124 77t-82.5 115.5t-29.5 144t29.5 144t82.5 115.5t124 77t155 27.5q36 0 78.5 -5t81.5 -13.5t66 -20.5l-5 -56h-6q-40 35 -96 53t-119 18q-94 0 -165 -42.5t-110.5 -119t-39.5 -178.5t39.5 -178.5
t110.5 -119t165 -42.5q58 0 107.5 16t85.5 46v260h-185z" />
    <glyph glyph-name="G" unicode="g" horiz-adv-x="832" vert-adv-y="0" 
d="M479 332v24h253v-272q-46 -46 -112.5 -72t-148.5 -26q-84 0 -155 27.5t-124 77t-82.5 115.5t-29.5 144t29.5 144t82.5 115.5t124 77t155 27.5q36 0 78.5 -5t81.5 -13.5t66 -20.5l-5 -56h-6q-40 35 -96 53t-119 18q-94 0 -165 -42.5t-110.5 -119t-39.5 -178.5t39.5 -178.5
t110.5 -119t165 -42.5q58 0 107.5 16t85.5 46v260h-185z" />
    <glyph glyph-name="H" unicode="H" horiz-adv-x="816" vert-adv-y="0" 
d="M130 0v700h68v-324h420v324h68v-700h-68v352h-420v-352h-68z" />
    <glyph glyph-name="H" unicode="h" horiz-adv-x="816" vert-adv-y="0" 
d="M130 0v700h68v-324h420v324h68v-700h-68v352h-420v-352h-68z" />
    <glyph glyph-name="I" unicode="I" horiz-adv-x="328" vert-adv-y="0" 
d="M130 0v700h68v-700h-68z" />
    <glyph glyph-name="I" unicode="&#x131;" horiz-adv-x="328" vert-adv-y="0" 
d="M130 0v700h68v-700h-68z" />
    <glyph glyph-name="J" unicode="J" horiz-adv-x="328" vert-adv-y="0" 
d="M130 62v638h68v-632q0 -126 -35 -196t-107 -102l-3 5q40 28 58.5 94.5t18.5 192.5z" />
    <glyph glyph-name="J" unicode="j" horiz-adv-x="328" vert-adv-y="0" 
d="M130 62v638h68v-632q0 -126 -35 -196t-107 -102l-3 5q40 28 58.5 94.5t18.5 192.5z" />
    <glyph glyph-name="K" unicode="K" horiz-adv-x="672" vert-adv-y="0" 
d="M562 0l-328 359l304 341h86l-329 -313l357 -387h-90zM130 0v700h68v-700h-68z" />
    <glyph glyph-name="K" unicode="k" horiz-adv-x="672" vert-adv-y="0" 
d="M562 0l-328 359l304 341h86l-329 -313l357 -387h-90zM130 0v700h68v-700h-68z" />
    <glyph glyph-name="L" unicode="L" horiz-adv-x="461" vert-adv-y="0" 
d="M130 700h68v-680q19 0 60 6l166 25v-51h-294v700z" />
    <glyph glyph-name="L" unicode="l" horiz-adv-x="461" vert-adv-y="0" 
d="M130 700h68v-680q19 0 60 6l166 25v-51h-294v700z" />
    <glyph glyph-name="M" unicode="M" horiz-adv-x="919" vert-adv-y="0" 
d="M789 700v-700h-68v642h-6l-242 -464h-31l-275 409h-6l22 -587h-68l25 714h20l315 -468h6l236 454h72z" />
    <glyph glyph-name="M" unicode="m" horiz-adv-x="919" vert-adv-y="0" 
d="M789 700v-700h-68v642h-6l-242 -464h-31l-275 409h-6l22 -587h-68l25 714h20l315 -468h6l236 454h72z" />
    <glyph glyph-name="N" unicode="N" horiz-adv-x="822" vert-adv-y="0" 
d="M115 0l25 714h12l503 -608h6l-22 594h68l-25 -714h-12l-503 608h-6l22 -594h-68z" />
    <glyph glyph-name="N" unicode="n" horiz-adv-x="822" vert-adv-y="0" 
d="M115 0l25 714h12l503 -608h6l-22 594h68l-25 -714h-12l-503 608h-6l22 -594h-68z" />
    <glyph glyph-name="O" unicode="O" horiz-adv-x="888" vert-adv-y="0" 
d="M80 350q0 77 27.5 143.5t77 116t116 77t143.5 27.5t143.5 -27.5t116 -77t77 -116t27.5 -143.5t-27.5 -143.5t-77 -116t-116 -77t-143.5 -27.5t-143.5 27.5t-116 77t-77 116t-27.5 143.5zM156 350q0 -102 36 -178.5t101 -119t151 -42.5t151 42.5t101 119.5t36 178
t-36 177.5t-101 119.5t-151 43t-150.5 -42.5t-101 -119t-36.5 -178.5z" />
    <glyph glyph-name="O" unicode="o" horiz-adv-x="888" vert-adv-y="0" 
d="M80 350q0 77 27.5 143.5t77 116t116 77t143.5 27.5t143.5 -27.5t116 -77t77 -116t27.5 -143.5t-27.5 -143.5t-77 -116t-116 -77t-143.5 -27.5t-143.5 27.5t-116 77t-77 116t-27.5 143.5zM156 350q0 -102 36 -178.5t101 -119t151 -42.5t151 42.5t101 119.5t36 178
t-36 177.5t-101 119.5t-151 43t-150.5 -42.5t-101 -119t-36.5 -178.5z" />
    <glyph glyph-name="P" unicode="P" horiz-adv-x="570" vert-adv-y="0" 
d="M130 0v700h125q121 0 188 -51.5t67 -143.5t-67 -143.5t-188 -51.5h-57v-310h-68zM255 676h-57v-342h57q183 0 183 171t-183 171z" />
    <glyph glyph-name="P" unicode="p" horiz-adv-x="570" vert-adv-y="0" 
d="M130 0v700h125q121 0 188 -51.5t67 -143.5t-67 -143.5t-188 -51.5h-57v-310h-68zM255 676h-57v-342h57q183 0 183 171t-183 171z" />
    <glyph glyph-name="Q" unicode="Q" horiz-adv-x="888" vert-adv-y="0" 
d="M80 350q0 77 27.5 143.5t77 116t116 77t143.5 27.5t143.5 -27.5t116 -77t77 -116t27.5 -143.5q0 -76 -26.5 -141t-74.5 -114.5t-112 -77.5v-6q48 0 81 -11t59.5 -35t51.5 -62q31 -46 54.5 -71.5t62.5 -36.5v-6h-47q-39 0 -63 12t-39.5 32t-30.5 42q-17 27 -38 52.5
t-50.5 42t-75.5 16.5h-116q-77 0 -143.5 27.5t-116 77t-77 116t-27.5 143.5zM156 350q0 -102 36 -178.5t101 -119t151 -42.5t151 42.5t101 119.5t36 178t-36 177.5t-101 119.5t-151 43t-150.5 -42.5t-101 -119t-36.5 -178.5z" />
    <glyph glyph-name="Q" unicode="q" horiz-adv-x="888" vert-adv-y="0" 
d="M80 350q0 77 27.5 143.5t77 116t116 77t143.5 27.5t143.5 -27.5t116 -77t77 -116t27.5 -143.5q0 -76 -26.5 -141t-74.5 -114.5t-112 -77.5v-6q48 0 81 -11t59.5 -35t51.5 -62q31 -46 54.5 -71.5t62.5 -36.5v-6h-47q-39 0 -63 12t-39.5 32t-30.5 42q-17 27 -38 52.5
t-50.5 42t-75.5 16.5h-116q-77 0 -143.5 27.5t-116 77t-77 116t-27.5 143.5zM156 350q0 -102 36 -178.5t101 -119t151 -42.5t151 42.5t101 119.5t36 178t-36 177.5t-101 119.5t-151 43t-150.5 -42.5t-101 -119t-36.5 -178.5z" />
    <glyph glyph-name="R" unicode="R" horiz-adv-x="642" vert-adv-y="0" 
d="M130 700h134q106 0 164.5 -44.5t58.5 -124.5q0 -62 -36.5 -103t-105.5 -55v-6q66 -13 108 -62t63 -121q19 -66 37.5 -102.5t41 -52.5t53.5 -23v-6h-41q-44 0 -72.5 16t-48.5 54t-38 105q-29 103 -77 146t-117 43h-6v18h6q161 0 161 148q0 146 -151 146h-66v-676h-68v700z
" />
    <glyph glyph-name="R" unicode="r" horiz-adv-x="642" vert-adv-y="0" 
d="M130 700h134q106 0 164.5 -44.5t58.5 -124.5q0 -62 -36.5 -103t-105.5 -55v-6q66 -13 108 -62t63 -121q19 -66 37.5 -102.5t41 -52.5t53.5 -23v-6h-41q-44 0 -72.5 16t-48.5 54t-38 105q-29 103 -77 146t-117 43h-6v18h6q161 0 161 148q0 146 -151 146h-66v-676h-68v700z
" />
    <glyph glyph-name="S" unicode="S" horiz-adv-x="543" vert-adv-y="0" 
d="M69 22l6 60h6q39 -34 88 -53t97 -19q68 0 110 37.5t42 100.5q0 35 -15.5 65t-51 61t-97.5 67q-43 25 -82 52.5t-64 64t-25 87.5q0 76 55 122.5t145 46.5q40 0 86 -8.5t71 -21.5l-5 -56h-6q-57 62 -146 62q-64 0 -103 -32.5t-39 -87.5q0 -41 21.5 -70.5t55.5 -53t73 -45.5
q45 -26 87.5 -55t70 -69.5t27.5 -101.5q0 -56 -26 -98.5t-73.5 -66.5t-110.5 -24q-40 0 -94 10t-103 26z" />
    <glyph glyph-name="S" unicode="s" horiz-adv-x="543" vert-adv-y="0" 
d="M69 22l6 60h6q39 -34 88 -53t97 -19q68 0 110 37.5t42 100.5q0 35 -15.5 65t-51 61t-97.5 67q-43 25 -82 52.5t-64 64t-25 87.5q0 76 55 122.5t145 46.5q40 0 86 -8.5t71 -21.5l-5 -56h-6q-57 62 -146 62q-64 0 -103 -32.5t-39 -87.5q0 -41 21.5 -70.5t55.5 -53t73 -45.5
q45 -26 87.5 -55t70 -69.5t27.5 -101.5q0 -56 -26 -98.5t-73.5 -66.5t-110.5 -24q-40 0 -94 10t-103 26z" />
    <glyph glyph-name="T" unicode="T" horiz-adv-x="648" vert-adv-y="0" 
d="M290 0v680q-15 0 -62 -6l-196 -25v51h584v-51l-196 25q-47 6 -62 6v-680h-68z" />
    <glyph glyph-name="T" unicode="t" horiz-adv-x="648" vert-adv-y="0" 
d="M290 0v680q-15 0 -62 -6l-196 -25v51h584v-51l-196 25q-47 6 -62 6v-680h-68z" />
    <glyph glyph-name="U" unicode="U" horiz-adv-x="798" vert-adv-y="0" 
d="M120 700h68v-422q0 -121 59.5 -188.5t167.5 -67.5q68 0 118.5 26.5t78 73.5t25.5 108l-17 470h68l-17 -470q-4 -120 -71.5 -182t-192.5 -62q-135 0 -211 78.5t-76 215.5v420z" />
    <glyph glyph-name="U" unicode="u" horiz-adv-x="798" vert-adv-y="0" 
d="M120 700h68v-422q0 -121 59.5 -188.5t167.5 -67.5q68 0 118.5 26.5t78 73.5t25.5 108l-17 470h68l-17 -470q-4 -120 -71.5 -182t-192.5 -62q-135 0 -211 78.5t-76 215.5v420z" />
    <glyph glyph-name="V" unicode="V" horiz-adv-x="716" vert-adv-y="0" 
d="M32 700h75l273 -622h6l229 622h75l-318 -714h-22z" />
    <glyph glyph-name="V" unicode="v" horiz-adv-x="716" vert-adv-y="0" 
d="M32 700h75l273 -622h6l229 622h75l-318 -714h-22z" />
    <glyph glyph-name="W" unicode="W" horiz-adv-x="1053" vert-adv-y="0" 
d="M32 700h73l245 -612h6l160 396l-87 216h73l244 -610h6l202 610h73l-288 -714h-22l-187 465l-188 -465h-22z" />
    <glyph glyph-name="W" unicode="w" horiz-adv-x="1053" vert-adv-y="0" 
d="M32 700h73l245 -612h6l160 396l-87 216h73l244 -610h6l202 610h73l-288 -714h-22l-187 465l-188 -465h-22z" />
    <glyph glyph-name="X" unicode="X" horiz-adv-x="632" vert-adv-y="0" 
d="M32 0l258 349l-238 351h80l197 -291h6l171 291h80l-240 -317l260 -383h-80l-219 323h-6l-189 -323h-80z" />
    <glyph glyph-name="X" unicode="x" horiz-adv-x="632" vert-adv-y="0" 
d="M32 0l258 349l-238 351h80l197 -291h6l171 291h80l-240 -317l260 -383h-80l-219 323h-6l-189 -323h-80z" />
    <glyph glyph-name="Y" unicode="Y" horiz-adv-x="617" vert-adv-y="0" 
d="M280 0v296l-248 404h76l223 -366h6l178 366h76l-239 -390v-310h-72z" />
    <glyph glyph-name="Y" unicode="y" horiz-adv-x="617" vert-adv-y="0" 
d="M280 0v296l-248 404h76l223 -366h6l178 366h76l-239 -390v-310h-72z" />
    <glyph glyph-name="Z" unicode="Z" horiz-adv-x="631" vert-adv-y="0" 
d="M575 0h-530v20l446 660q-16 0 -73 -4l-347 -25v49h500v-20l-446 -660q17 0 73 4l377 27v-51z" />
    <glyph glyph-name="Z" unicode="z" horiz-adv-x="631" vert-adv-y="0" 
d="M575 0h-530v20l446 660q-16 0 -73 -4l-347 -25v49h500v-20l-446 -660q17 0 73 4l377 27v-51z" />
    <glyph glyph-name="bracketleft" unicode="[" horiz-adv-x="372" vert-adv-y="0" 
d="M130 -68v836h187v-18h-125v-800h125v-18h-187z" />
    <glyph glyph-name="backslash" unicode="\" horiz-adv-x="362" vert-adv-y="0" 
d="M312 0h-34l-228 700h34z" />
    <glyph glyph-name="bracketright" unicode="]" horiz-adv-x="372" vert-adv-y="0" 
d="M242 -68h-187v18h125v800h-125v18h187v-836z" />
    <glyph glyph-name="asciicircum" unicode="^" vert-adv-y="0" 
d="M269 700h41l201 -387h-34l-187 365l-185 -365h-34z" />
    <glyph glyph-name="underscore" unicode="_" horiz-adv-x="500" vert-adv-y="0" 
d="M0 -120v30h500v-30h-500z" />
    <glyph glyph-name="grave" unicode="`" horiz-adv-x="285" vert-adv-y="0" 
d="M205 775l-13 -12l-174 128v6h90z" />
    <glyph glyph-name="i" unicode="i" horiz-adv-x="328" vert-adv-y="1160" 
d="M130 0v700h68v-700h-68z" />
    <glyph glyph-name="braceleft" unicode="{" horiz-adv-x="316" vert-adv-y="0" 
d="M130 468q0 14 -1.5 29t-6.5 43q-4 26 -6 40t-2 25q0 41 20 73.5t52 58t67 44.5l11 -14q-38 -25 -64 -55t-26 -82q0 -13 2 -27t6 -41q3 -16 5.5 -34.5t2.5 -35.5q0 -55 -24 -86t-55 -44v-6q31 -13 55 -46t24 -90q0 -13 -1.5 -29t-6.5 -45q-4 -28 -6 -42.5t-2 -27.5
q0 -39 11.5 -64.5t32 -44t46.5 -36.5l-11 -14q-36 21 -67.5 46t-51.5 58.5t-20 79.5q0 13 2 27.5l6 43.5q3 17 5.5 36t2.5 38q0 61 -23 82.5t-55 21.5h-10v18h10q32 0 55 20.5t23 79.5z" />
    <glyph glyph-name="bar" unicode="|" horiz-adv-x="292" vert-adv-y="0" 
d="M130 -68v836h32v-836h-32z" />
    <glyph glyph-name="braceright" unicode="}" horiz-adv-x="316" vert-adv-y="0" 
d="M186 468q0 -59 23 -79.5t55 -20.5h10v-18h-10q-32 0 -55 -21.5t-23 -82.5q0 -19 2.5 -38t5.5 -36q5 -29 6.5 -43.5t1.5 -27.5q0 -46 -19.5 -79.5t-51.5 -58.5t-68 -46l-11 14q26 18 46.5 36.5t32 44t11.5 64.5q0 13 -1.5 27.5t-6.5 42.5q-4 29 -6 45t-2 29q0 57 24 90
t55 46v6q-31 13 -55 44t-24 86q0 17 2.5 35.5t5.5 34.5q5 27 6.5 41t1.5 27q0 52 -26 82t-64 55l11 14q36 -19 67.5 -44.5t51.5 -58t20 -73.5q0 -11 -1.5 -25t-6.5 -40q-4 -28 -6 -43t-2 -29z" />
    <glyph glyph-name="asciitilde" unicode="~" vert-adv-y="0" 
d="M49 304q38 45 71.5 61t63.5 16q23 0 47 -8.5t63 -30.5t63.5 -31t46.5 -9q31 0 54.5 15t54.5 49l20 -17q-38 -45 -71.5 -61t-63.5 -16q-23 0 -47 8.5t-63 30.5q-39 23 -63 31.5t-47 8.5q-31 0 -54.5 -15t-54.5 -49z" />
    <glyph glyph-name="uni00A0" unicode="&#xa0;" horiz-adv-x="270" vert-adv-y="0" 
 />
    <glyph glyph-name="exclamdown" unicode="&#xa1;" horiz-adv-x="330" vert-adv-y="0" 
d="M217 658q0 -22 -14.5 -37t-37.5 -15q-22 0 -37 15t-15 37q0 23 15 37.5t37 14.5q23 0 37.5 -14.5t14.5 -37.5zM175 527l32 -527h-84l32 527h20z" />
    <glyph glyph-name="cent" unicode="&#xa2;" horiz-adv-x="559" vert-adv-y="0" 
d="M312 -98v85q-70 6 -124.5 40.5t-86 90t-31.5 124.5t31.5 124.5t86 90t124.5 40.5v85h26v-84q38 0 77.5 -8.5t78.5 -24.5l-4 -49h-5q-29 27 -66 42.5t-81 15.5v-464q45 0 84.5 15.5t71.5 43.5h5l-5 -53q-27 -13 -72.5 -21.5t-83.5 -8.5v-84h-26zM140 242q0 -98 46.5 -160
t125.5 -71v462q-78 -9 -125 -71t-47 -160z" />
    <glyph glyph-name="sterling" unicode="&#xa3;" horiz-adv-x="545" vert-adv-y="0" 
d="M57 0v18q68 91 99.5 154.5t31.5 115.5q0 20 -5 39h-120v24h112q-8 21 -23 51q-22 43 -31 74.5t-9 61.5q0 80 53.5 128t139.5 48q25 0 54.5 -4t56 -10.5t43.5 -15.5l-5 -55h-6q-31 32 -67 46.5t-76 14.5q-61 0 -99 -33t-38 -88q0 -25 10.5 -53t35.5 -78t32 -87h157v-24
h-154q1 -9 1 -18q0 -37 -12 -72t-40.5 -76.5t-79.5 -100.5h369v-60h-430z" />
    <glyph glyph-name="currency" unicode="&#xa4;" vert-adv-y="0" 
d="M95 324q0 39 11.5 71.5t32.5 58.5l-62 62l22 22l62 -62q26 21 58.5 32.5t71.5 11.5t71.5 -11.5t58.5 -32.5l62 62l22 -22l-62 -62q21 -26 32.5 -58.5t11.5 -71.5t-11.5 -71.5t-32.5 -58.5l62 -62l-22 -22l-62 62q-26 -21 -58.5 -32.5t-71.5 -11.5t-71.5 11.5t-58.5 32.5
l-62 -62l-22 22l62 62q-21 26 -32.5 58.5t-11.5 71.5zM291 156q48 0 84.5 21.5t57 59.5t20.5 87q0 50 -20.5 87.5t-57 59t-84.5 21.5t-84.5 -21.5t-57 -59t-20.5 -87.5q0 -49 20.5 -87t57 -59.5t84.5 -21.5z" />
    <glyph glyph-name="yen" unicode="&#xa5;" horiz-adv-x="617" vert-adv-y="0" 
d="M102 156v24h178v82h-178v24h178v10l-248 404h76l223 -366h6l178 366h76l-239 -390v-24h154v-24h-154v-82h154v-24h-154v-156h-72v156h-178z" />
    <glyph glyph-name="brokenbar" unicode="&#xa6;" horiz-adv-x="290" vert-adv-y="0" 
d="M130 436v332h30v-332h-30zM160 264v-332h-30v332h30z" />
    <glyph glyph-name="section" unicode="&#xa7;" horiz-adv-x="504" vert-adv-y="0" 
d="M98 -57l5 54h6q32 -29 68 -44t70 -15q47 0 76 27t29 73q0 41 -28.5 69.5t-102.5 58.5q-35 15 -69 32.5t-56 46.5t-22 75q0 48 26.5 82t75.5 54q-32 18 -54 45t-22 73q0 63 43.5 101.5t115.5 38.5q31 0 65.5 -7t62.5 -18l-4 -50h-6q-55 53 -118 53q-48 0 -77.5 -28
t-29.5 -75q0 -40 28 -66.5t101 -54.5q83 -32 116 -64.5t33 -80.5t-28.5 -85t-78.5 -56q44 -26 62.5 -55t18.5 -68q0 -64 -43 -103.5t-114 -39.5q-29 0 -70 7t-79 20zM255 215q26 -11 46 -21q35 16 56 44.5t21 63.5q0 36 -28.5 65t-102.5 58q-12 5 -24.5 9.5t-24.5 10.5
q-72 -37 -72 -107q0 -37 28 -65t101 -58z" />
    <glyph glyph-name="dieresis" unicode="&#xa8;" horiz-adv-x="436" vert-adv-y="0" 
d="M276 845q0 20 13 32.5t32 12.5q20 0 32.5 -12.5t12.5 -32.5q0 -19 -12.5 -32t-32.5 -13q-19 0 -32 13t-13 32zM70 845q0 20 13 32.5t32 12.5q20 0 32.5 -12.5t12.5 -32.5q0 -19 -12.5 -32t-32.5 -13q-19 0 -32 13t-13 32z" />
    <glyph glyph-name="copyright" unicode="&#xa9;" horiz-adv-x="888" vert-adv-y="0" 
d="M80 350q0 79 27 145.5t76 115.5t115.5 76t145.5 27t145.5 -27t115.5 -76t76 -115.5t27 -145.5t-27 -145.5t-76 -115.5t-115.5 -76t-145.5 -27t-145.5 27t-115.5 76t-76 115.5t-27 145.5zM108 350q0 -74 25 -136t70.5 -107.5t106.5 -71t134 -25.5t134 25.5t106.5 71
t70.5 107.5t25 136t-25 136t-70.5 107.5t-106.5 71t-134 25.5q-97 0 -173 -44t-119.5 -121t-43.5 -175zM594 209l-4 -43q-22 -10 -59.5 -17.5t-69.5 -7.5q-62 0 -112 28t-79 75.5t-29 107.5t29 107.5t79 75.5t112 28q30 0 63.5 -6.5t64.5 -19.5l-3 -40h-4q-25 23 -54 35.5
t-67 12.5q-77 0 -119.5 -51t-42.5 -142t43 -142t119 -51q41 0 72 14t57 36h4z" />
    <glyph glyph-name="ordfeminine" unicode="&#xaa;" horiz-adv-x="400" vert-adv-y="0" 
d="M34 348l142 352h48l142 -352h-54l-59 150h-121l-44 -150h-54zM182 669l-45 -154h109l-61 154h-3z" />
    <glyph glyph-name="guillemotleft" unicode="&#xab;" horiz-adv-x="480" vert-adv-y="0" 
d="M407 154l-185 188v16l185 188l13 -12l-126 -184l126 -184zM245 154l-185 188v16l185 188l13 -12l-126 -184l126 -184z" />
    <glyph glyph-name="logicalnot" unicode="&#xac;" vert-adv-y="0" 
d="M59 313v30h464v-231h-32v201h-432z" />
    <glyph glyph-name="uni00AD" unicode="&#xad;" horiz-adv-x="0" vert-adv-y="0" 
 />
    <glyph glyph-name="registered" unicode="&#xae;" horiz-adv-x="472" vert-adv-y="0" 
d="M50 524q0 55 23.5 97t65.5 65.5t97 23.5t97 -23.5t65.5 -65.5t23.5 -97t-23.5 -97t-65.5 -65.5t-97 -23.5t-97 23.5t-65.5 65.5t-23.5 97zM76 524q0 -73 45 -119.5t115 -46.5q71 0 115.5 46.5t44.5 119.5q0 74 -44.5 120t-115.5 46q-70 0 -115 -46t-45 -120zM171 628h51
q36 0 56.5 -13.5t20.5 -39.5q0 -37 -43 -44v-2q16 -4 25 -15.5t19 -39.5q8 -24 15.5 -34.5t18.5 -13.5v-2h-9q-30 0 -42 17t-18 36q-9 29 -17.5 39.5t-27.5 10.5h-2v8h2q24 0 35 9t11 31q0 23 -10.5 33t-33.5 10h-19v-194h-32v204z" />
    <glyph glyph-name="macron" unicode="&#xaf;" horiz-adv-x="368" vert-adv-y="0" 
d="M50 819v40h268v-40h-268z" />
    <glyph glyph-name="degree" unicode="&#xb0;" horiz-adv-x="352" vert-adv-y="0" 
d="M45 579q0 57 37 94t94 37t94 -37t37 -94t-37 -94t-94 -37t-94 37t-37 94zM77 579q0 -45 28 -74t71 -29t71 29t28 74t-28 74t-71 29t-71 -29t-28 -74z" />
    <glyph glyph-name="plusminus" unicode="&#xb1;" vert-adv-y="0" 
d="M60 313v30h216v213h32v-213h216v-30h-216v-221h-32v221h-216zM59 0v30h464v-30h-464z" />
    <glyph glyph-name="uni00B2" unicode="&#xb2;" horiz-adv-x="368" vert-adv-y="0" 
d="M42 362v16l151 190q29 36 41 61.5t12 52.5q0 41 -20.5 64.5t-55.5 23.5q-49 0 -99 -44h-4l-3 39q53 25 106 25q61 0 97.5 -28t36.5 -75q0 -28 -17.5 -56.5t-65.5 -80.5l-130 -142h220v-46h-269z" />
    <glyph glyph-name="uni00B3" unicode="&#xb3;" horiz-adv-x="363" vert-adv-y="0" 
d="M136 578h-23v20h21q46 0 70.5 22.5t24.5 65.5q0 38 -20 61t-53 23q-23 0 -50 -10.5t-44 -28.5h-4l-3 39q20 9 48 14.5t53 5.5q58 0 93.5 -28t35.5 -74q0 -36 -24.5 -61t-71.5 -36v-4q55 -9 85.5 -39t30.5 -77q0 -54 -41 -86.5t-108 -32.5q-57 0 -104 21l-4 43h4
q23 -22 50 -33t54 -11q41 0 66 27.5t25 73.5q0 50 -29.5 77.5t-81.5 27.5z" />
    <glyph glyph-name="acute" unicode="&#xb4;" horiz-adv-x="247" vert-adv-y="0" 
d="M30 775l97 122h90v-6l-174 -128z" />
    <glyph glyph-name="uni03BC" unicode="&#xb5;" horiz-adv-x="629" vert-adv-y="0" 
d="M105 -220v712h62v-312q0 -73 34.5 -113.5t96.5 -40.5q43 0 79 21.5t69 67.5v377h62v-405q0 -65 36 -65q30 0 46 41l17 -7q-14 -38 -32 -54t-47 -16q-77 0 -82 94q-43 -51 -84 -72.5t-91 -21.5q-101 0 -142 76v-36l52 -246h-76z" />
    <glyph glyph-name="uni03BC" unicode="&#x3bc;" horiz-adv-x="629" vert-adv-y="0" 
d="M105 -220v712h62v-312q0 -73 34.5 -113.5t96.5 -40.5q43 0 79 21.5t69 67.5v377h62v-405q0 -65 36 -65q30 0 46 41l17 -7q-14 -38 -32 -54t-47 -16q-77 0 -82 94q-43 -51 -84 -72.5t-91 -21.5q-101 0 -142 76v-36l52 -246h-76z" />
    <glyph glyph-name="paragraph" unicode="&#xb6;" horiz-adv-x="629" vert-adv-y="0" 
d="M289 -94v421h-12q-91 0 -146.5 51t-55.5 136q0 56 25.5 98t71 65t105.5 23h300v-24h-94v-770h-50v770h-94v-770h-50z" />
    <glyph glyph-name="periodcentered" unicode="&#xb7;" horiz-adv-x="264" vert-adv-y="0" 
d="M80 362q0 23 15 37.5t37 14.5q23 0 37.5 -14.5t14.5 -37.5q0 -22 -14.5 -37t-37.5 -15q-22 0 -37 15t-15 37z" />
    <glyph glyph-name="cedilla" unicode="&#xb8;" horiz-adv-x="285" vert-adv-y="0" 
d="M95 -76l32 80h22l-22 -56q94 -18 94 -84q0 -38 -26 -61t-70 -23q-15 0 -30.5 3.5t-43.5 12.5l5 17q27 -9 49 -9q26 0 41 14.5t15 39.5q0 54 -66 66z" />
    <glyph glyph-name="uni00B9" unicode="&#xb9;" horiz-adv-x="293" vert-adv-y="0" 
d="M139 362v377l-96 -42l-6 13l138 80h16v-428h-52z" />
    <glyph glyph-name="ordmasculine" unicode="&#xba;" horiz-adv-x="472" vert-adv-y="0" 
d="M50 524q0 53 24.5 95t66.5 66.5t95 24.5t95 -24.5t66.5 -66.5t24.5 -95t-24.5 -95t-66.5 -66.5t-95 -24.5t-95 24.5t-66.5 66.5t-24.5 95zM106 524q0 -76 36 -122.5t94 -46.5t94 46.5t36 122.5q0 77 -36 123t-94 46q-59 0 -94.5 -46.5t-35.5 -122.5z" />
    <glyph glyph-name="guillemotright" unicode="&#xbb;" horiz-adv-x="480" vert-adv-y="0" 
d="M73 154l-13 12l126 184l-126 184l13 12l185 -188v-16zM235 154l-13 12l126 184l-126 184l13 12l185 -188v-16z" />
    <glyph glyph-name="onequarter" unicode="&#xbc;" horiz-adv-x="813" vert-adv-y="1160" 
d="M139 282v377l-96 -42l-6 13l138 80h16v-428h-52zM153 0l392 700h32l-392 -700h-32zM648 0v115h-191v16l124 287h62l-162 -283h167v145h50v-145h75v-20h-75v-115h-50z" />
    <glyph glyph-name="onehalf" unicode="&#xbd;" horiz-adv-x="815" vert-adv-y="1160" 
d="M139 282v377l-96 -42l-6 13l138 80h16v-428h-52zM153 0l392 700h32l-392 -700h-32zM489 0v16l151 190q29 36 41 61.5t12 52.5q0 41 -20.5 64.5t-55.5 23.5q-49 0 -99 -44h-4l-3 39q53 25 106 25q61 0 97.5 -28t36.5 -75q0 -28 -17.5 -56.5t-65.5 -80.5l-130 -142h220v-46
h-269z" />
    <glyph glyph-name="threequarters" unicode="&#xbe;" horiz-adv-x="883" vert-adv-y="1160" 
d="M136 498h-23v20h21q46 0 70.5 22.5t24.5 65.5q0 38 -20 61t-53 23q-23 0 -50 -10.5t-44 -28.5h-4l-3 39q20 9 48 14.5t53 5.5q58 0 93.5 -28t35.5 -74q0 -36 -24.5 -61t-71.5 -36v-4q55 -9 85.5 -39t30.5 -77q0 -54 -41 -86.5t-108 -32.5q-57 0 -104 21l-4 43h4
q23 -22 50 -33t54 -11q41 0 66 27.5t25 73.5q0 50 -29.5 77.5t-81.5 27.5zM223 0l392 700h32l-392 -700h-32zM718 0v115h-191v16l124 287h62l-162 -283h167v145h50v-145h75v-20h-75v-115h-50z" />
    <glyph glyph-name="questiondown" unicode="&#xbf;" horiz-adv-x="488" vert-adv-y="0" 
d="M350 658q0 -22 -14.5 -37t-37.5 -15q-22 0 -37 15t-15 37q0 23 15 37.5t37 14.5q23 0 37.5 -14.5t14.5 -37.5zM178 325l103 67l7 135h20l6 -139l-100 -89q-70 -61 -70 -151q0 -63 33 -100.5t88 -37.5q38 0 79.5 17.5t72.5 48.5h6l5 -54q-34 -16 -78 -26t-85 -10
q-88 0 -141.5 43.5t-53.5 113.5q0 51 29 100t79 82z" />
    <glyph glyph-name="Agrave" unicode="&#xc0;" horiz-adv-x="658" vert-adv-y="1160" 
d="M26 0l269 700h62l269 -700h-73l-124 328h-227l-103 -328h-73zM302 648l-93 -296h211l-112 296h-6zM386 775l-13 -12l-174 128v6h90z" />
    <glyph glyph-name="Agrave" unicode="&#xe0;" horiz-adv-x="658" vert-adv-y="1160" 
d="M26 0l269 700h62l269 -700h-73l-124 328h-227l-103 -328h-73zM302 648l-93 -296h211l-112 296h-6zM386 775l-13 -12l-174 128v6h90z" />
    <glyph glyph-name="Aacute" unicode="&#xc1;" horiz-adv-x="658" vert-adv-y="1160" 
d="M26 0l269 700h62l269 -700h-73l-124 328h-227l-103 -328h-73zM302 648l-93 -296h211l-112 296h-6zM268 775l97 122h90v-6l-174 -128z" />
    <glyph glyph-name="Aacute" unicode="&#xe1;" horiz-adv-x="658" vert-adv-y="1160" 
d="M26 0l269 700h62l269 -700h-73l-124 328h-227l-103 -328h-73zM302 648l-93 -296h211l-112 296h-6zM268 775l97 122h90v-6l-174 -128z" />
    <glyph glyph-name="Acircumflex" unicode="&#xc2;" horiz-adv-x="658" vert-adv-y="1160" 
d="M26 0l269 700h62l269 -700h-73l-124 328h-227l-103 -328h-73zM302 648l-93 -296h211l-112 296h-6zM342 905l121 -130l-13 -12l-121 80l-121 -80l-13 12l121 130h26z" />
    <glyph glyph-name="Acircumflex" unicode="&#xe2;" horiz-adv-x="658" vert-adv-y="1160" 
d="M26 0l269 700h62l269 -700h-73l-124 328h-227l-103 -328h-73zM302 648l-93 -296h211l-112 296h-6zM342 905l121 -130l-13 -12l-121 80l-121 -80l-13 12l121 130h26z" />
    <glyph glyph-name="Atilde" unicode="&#xc3;" horiz-adv-x="658" vert-adv-y="1160" 
d="M26 0l269 700h62l269 -700h-73l-124 328h-227l-103 -328h-73zM302 648l-93 -296h211l-112 296h-6zM338 873q15 -10 31.5 -18.5t34.5 -8.5q16 0 32 10t37 38l15 -10q-26 -52 -48 -72t-50 -20q-21 0 -38 8.5t-34 18.5q-15 10 -31.5 18.5t-34.5 8.5q-16 0 -32 -9.5
t-37 -38.5l-15 10q26 52 48 72t50 20q21 0 38.5 -8t33.5 -19z" />
    <glyph glyph-name="Atilde" unicode="&#xe3;" horiz-adv-x="658" vert-adv-y="1160" 
d="M26 0l269 700h62l269 -700h-73l-124 328h-227l-103 -328h-73zM302 648l-93 -296h211l-112 296h-6zM338 873q15 -10 31.5 -18.5t34.5 -8.5q16 0 32 10t37 38l15 -10q-26 -52 -48 -72t-50 -20q-21 0 -38 8.5t-34 18.5q-15 10 -31.5 18.5t-34.5 8.5q-16 0 -32 -9.5
t-37 -38.5l-15 10q26 52 48 72t50 20q21 0 38.5 -8t33.5 -19z" />
    <glyph glyph-name="Adieresis" unicode="&#xc4;" horiz-adv-x="658" vert-adv-y="1160" 
d="M26 0l269 700h62l269 -700h-73l-124 328h-227l-103 -328h-73zM302 648l-93 -296h211l-112 296h-6zM387 845q0 20 13 32.5t32 12.5q20 0 32.5 -12.5t12.5 -32.5q0 -19 -12.5 -32t-32.5 -13q-19 0 -32 13t-13 32zM181 845q0 20 13 32.5t32 12.5q20 0 32.5 -12.5t12.5 -32.5
q0 -19 -12.5 -32t-32.5 -13q-19 0 -32 13t-13 32z" />
    <glyph glyph-name="Adieresis" unicode="&#xe4;" horiz-adv-x="658" vert-adv-y="1160" 
d="M26 0l269 700h62l269 -700h-73l-124 328h-227l-103 -328h-73zM302 648l-93 -296h211l-112 296h-6zM387 845q0 20 13 32.5t32 12.5q20 0 32.5 -12.5t12.5 -32.5q0 -19 -12.5 -32t-32.5 -13q-19 0 -32 13t-13 32zM181 845q0 20 13 32.5t32 12.5q20 0 32.5 -12.5t12.5 -32.5
q0 -19 -12.5 -32t-32.5 -13q-19 0 -32 13t-13 32z" />
    <glyph glyph-name="Aring" unicode="&#xc5;" horiz-adv-x="658" vert-adv-y="1160" 
d="M26 0l269 700h62l269 -700h-73l-124 328h-227l-103 -328h-73zM302 648l-93 -296h211l-112 296h-6zM235 836q0 38 26.5 63t67.5 25t67.5 -25t26.5 -63t-26.5 -63t-67.5 -25t-67.5 25t-26.5 63zM329 906q-21 0 -34.5 -19.5t-13.5 -50.5t13.5 -50.5t34.5 -19.5q20 0 34 19.5
t14 50.5t-14 50.5t-34 19.5z" />
    <glyph glyph-name="Aring" unicode="&#xe5;" horiz-adv-x="658" vert-adv-y="1160" 
d="M26 0l269 700h62l269 -700h-73l-124 328h-227l-103 -328h-73zM302 648l-93 -296h211l-112 296h-6zM235 836q0 38 26.5 63t67.5 25t67.5 -25t26.5 -63t-26.5 -63t-67.5 -25t-67.5 25t-26.5 63zM329 906q-21 0 -34.5 -19.5t-13.5 -50.5t13.5 -50.5t34.5 -19.5q20 0 34 19.5
t14 50.5t-14 50.5t-34 19.5z" />
    <glyph glyph-name="AE" unicode="&#xc6;" horiz-adv-x="815" vert-adv-y="0" 
d="M10 0l414 700h308v-49l-175 23q-46 6 -62 6v-305q13 0 62 3l164 10v-46l-164 10q-49 3 -62 3v-335q18 0 63 6l177 23v-49h-308v298h-186l-155 -298h-76zM421 646l-168 -324h174v324h-6z" />
    <glyph glyph-name="AE" unicode="&#xe6;" horiz-adv-x="815" vert-adv-y="0" 
d="M10 0l414 700h308v-49l-175 23q-46 6 -62 6v-305q13 0 62 3l164 10v-46l-164 10q-49 3 -62 3v-335q18 0 63 6l177 23v-49h-308v298h-186l-155 -298h-76zM421 646l-168 -324h174v324h-6z" />
    <glyph glyph-name="Ccedilla" unicode="&#xc7;" horiz-adv-x="758" vert-adv-y="1160" 
d="M688 86l-6 -61q-28 -12 -68 -21t-81 -13.5t-73 -4.5q-81 0 -150 27.5t-120.5 76.5t-80.5 115.5t-29 144.5t29 144.5t80.5 115.5t120.5 76.5t150 27.5q33 0 74 -5t80 -13.5t66 -19.5l-5 -56h-6q-37 34 -93 52t-116 18q-90 0 -158.5 -42.5t-107 -119t-38.5 -178.5
q0 -103 38.5 -179t106.5 -118.5t159 -42.5q68 0 126.5 22t95.5 54h6zM415 -76l32 80h22l-22 -56q94 -18 94 -84q0 -38 -26 -61t-70 -23q-15 0 -30.5 3.5t-43.5 12.5l5 17q27 -9 49 -9q26 0 41 14.5t15 39.5q0 54 -66 66z" />
    <glyph glyph-name="Ccedilla" unicode="&#xe7;" horiz-adv-x="758" vert-adv-y="1160" 
d="M688 86l-6 -61q-28 -12 -68 -21t-81 -13.5t-73 -4.5q-81 0 -150 27.5t-120.5 76.5t-80.5 115.5t-29 144.5t29 144.5t80.5 115.5t120.5 76.5t150 27.5q33 0 74 -5t80 -13.5t66 -19.5l-5 -56h-6q-37 34 -93 52t-116 18q-90 0 -158.5 -42.5t-107 -119t-38.5 -178.5
q0 -103 38.5 -179t106.5 -118.5t159 -42.5q68 0 126.5 22t95.5 54h6zM415 -76l32 80h22l-22 -56q94 -18 94 -84q0 -38 -26 -61t-70 -23q-15 0 -30.5 3.5t-43.5 12.5l5 17q27 -9 49 -9q26 0 41 14.5t15 39.5q0 54 -66 66z" />
    <glyph glyph-name="Egrave" unicode="&#xc8;" horiz-adv-x="518" vert-adv-y="1160" 
d="M130 0v700h305v-49l-175 23q-46 6 -62 6v-305q13 0 62 3l164 10v-46l-164 10q-49 3 -62 3v-335q18 0 63 6l177 23v-49h-308zM336 775l-13 -12l-174 128v6h90z" />
    <glyph glyph-name="Egrave" unicode="&#xe8;" horiz-adv-x="518" vert-adv-y="1160" 
d="M130 0v700h305v-49l-175 23q-46 6 -62 6v-305q13 0 62 3l164 10v-46l-164 10q-49 3 -62 3v-335q18 0 63 6l177 23v-49h-308zM336 775l-13 -12l-174 128v6h90z" />
    <glyph glyph-name="Eacute" unicode="&#xc9;" horiz-adv-x="518" vert-adv-y="1160" 
d="M130 0v700h305v-49l-175 23q-46 6 -62 6v-305q13 0 62 3l164 10v-46l-164 10q-49 3 -62 3v-335q18 0 63 6l177 23v-49h-308zM218 775l97 122h90v-6l-174 -128z" />
    <glyph glyph-name="Eacute" unicode="&#xe9;" horiz-adv-x="518" vert-adv-y="1160" 
d="M130 0v700h305v-49l-175 23q-46 6 -62 6v-305q13 0 62 3l164 10v-46l-164 10q-49 3 -62 3v-335q18 0 63 6l177 23v-49h-308zM218 775l97 122h90v-6l-174 -128z" />
    <glyph glyph-name="Ecircumflex" unicode="&#xca;" horiz-adv-x="518" vert-adv-y="1160" 
d="M130 0v700h305v-49l-175 23q-46 6 -62 6v-305q13 0 62 3l164 10v-46l-164 10q-49 3 -62 3v-335q18 0 63 6l177 23v-49h-308zM292 905l121 -130l-13 -12l-121 80l-121 -80l-13 12l121 130h26z" />
    <glyph glyph-name="Ecircumflex" unicode="&#xea;" horiz-adv-x="518" vert-adv-y="1160" 
d="M130 0v700h305v-49l-175 23q-46 6 -62 6v-305q13 0 62 3l164 10v-46l-164 10q-49 3 -62 3v-335q18 0 63 6l177 23v-49h-308zM292 905l121 -130l-13 -12l-121 80l-121 -80l-13 12l121 130h26z" />
    <glyph glyph-name="Edieresis" unicode="&#xcb;" horiz-adv-x="518" vert-adv-y="1160" 
d="M130 0v700h305v-49l-175 23q-46 6 -62 6v-305q13 0 62 3l164 10v-46l-164 10q-49 3 -62 3v-335q18 0 63 6l177 23v-49h-308zM337 845q0 20 13 32.5t32 12.5q20 0 32.5 -12.5t12.5 -32.5q0 -19 -12.5 -32t-32.5 -13q-19 0 -32 13t-13 32zM131 845q0 20 13 32.5t32 12.5
q20 0 32.5 -12.5t12.5 -32.5q0 -19 -12.5 -32t-32.5 -13q-19 0 -32 13t-13 32z" />
    <glyph glyph-name="Edieresis" unicode="&#xeb;" horiz-adv-x="518" vert-adv-y="1160" 
d="M130 0v700h305v-49l-175 23q-46 6 -62 6v-305q13 0 62 3l164 10v-46l-164 10q-49 3 -62 3v-335q18 0 63 6l177 23v-49h-308zM337 845q0 20 13 32.5t32 12.5q20 0 32.5 -12.5t12.5 -32.5q0 -19 -12.5 -32t-32.5 -13q-19 0 -32 13t-13 32zM131 845q0 20 13 32.5t32 12.5
q20 0 32.5 -12.5t12.5 -32.5q0 -19 -12.5 -32t-32.5 -13q-19 0 -32 13t-13 32z" />
    <glyph glyph-name="Igrave" unicode="&#xcc;" horiz-adv-x="328" vert-adv-y="1160" 
d="M130 0v700h68v-700h-68zM221 775l-13 -12l-174 128v6h90z" />
    <glyph glyph-name="Igrave" unicode="&#xec;" horiz-adv-x="328" vert-adv-y="1160" 
d="M130 0v700h68v-700h-68zM221 775l-13 -12l-174 128v6h90z" />
    <glyph glyph-name="Iacute" unicode="&#xcd;" horiz-adv-x="328" vert-adv-y="1160" 
d="M130 0v700h68v-700h-68zM103 775l97 122h90v-6l-174 -128z" />
    <glyph glyph-name="Iacute" unicode="&#xed;" horiz-adv-x="328" vert-adv-y="1160" 
d="M130 0v700h68v-700h-68zM103 775l97 122h90v-6l-174 -128z" />
    <glyph glyph-name="Icircumflex" unicode="&#xce;" horiz-adv-x="328" vert-adv-y="1160" 
d="M130 0v700h68v-700h-68zM177 905l121 -130l-13 -12l-121 80l-121 -80l-13 12l121 130h26z" />
    <glyph glyph-name="Icircumflex" unicode="&#xee;" horiz-adv-x="328" vert-adv-y="1160" 
d="M130 0v700h68v-700h-68zM177 905l121 -130l-13 -12l-121 80l-121 -80l-13 12l121 130h26z" />
    <glyph glyph-name="Idieresis" unicode="&#xcf;" horiz-adv-x="328" vert-adv-y="1160" 
d="M130 0v700h68v-700h-68zM222 845q0 20 13 32.5t32 12.5q20 0 32.5 -12.5t12.5 -32.5q0 -19 -12.5 -32t-32.5 -13q-19 0 -32 13t-13 32zM16 845q0 20 13 32.5t32 12.5q20 0 32.5 -12.5t12.5 -32.5q0 -19 -12.5 -32t-32.5 -13q-19 0 -32 13t-13 32z" />
    <glyph glyph-name="Idieresis" unicode="&#xef;" horiz-adv-x="328" vert-adv-y="1160" 
d="M130 0v700h68v-700h-68zM222 845q0 20 13 32.5t32 12.5q20 0 32.5 -12.5t12.5 -32.5q0 -19 -12.5 -32t-32.5 -13q-19 0 -32 13t-13 32zM16 845q0 20 13 32.5t32 12.5q20 0 32.5 -12.5t12.5 -32.5q0 -19 -12.5 -32t-32.5 -13q-19 0 -32 13t-13 32z" />
    <glyph glyph-name="Eth" unicode="&#xd0;" horiz-adv-x="814" vert-adv-y="0" 
d="M130 0v352h-92v24h92v324h220q116 0 202 -44t134 -122.5t48 -183.5t-48 -183.5t-134 -122.5t-202 -44h-220zM372 352h-174v-328h152q145 0 226.5 86t81.5 240t-81.5 240t-226.5 86h-152v-300h174v-24z" />
    <glyph glyph-name="Eth" unicode="&#xf0;" horiz-adv-x="814" vert-adv-y="0" 
d="M130 0v352h-92v24h92v324h220q116 0 202 -44t134 -122.5t48 -183.5t-48 -183.5t-134 -122.5t-202 -44h-220zM372 352h-174v-328h152q145 0 226.5 86t81.5 240t-81.5 240t-226.5 86h-152v-300h174v-24z" />
    <glyph glyph-name="Ntilde" unicode="&#xd1;" horiz-adv-x="822" vert-adv-y="1160" 
d="M115 0l25 714h12l503 -608h6l-22 594h68l-25 -714h-12l-503 608h-6l22 -594h-68zM420 873q15 -10 31.5 -18.5t34.5 -8.5q16 0 32 10t37 38l15 -10q-26 -52 -48 -72t-50 -20q-21 0 -38 8.5t-34 18.5q-15 10 -31.5 18.5t-34.5 8.5q-16 0 -32 -9.5t-37 -38.5l-15 10
q26 52 48 72t50 20q21 0 38.5 -8t33.5 -19z" />
    <glyph glyph-name="Ntilde" unicode="&#xf1;" horiz-adv-x="822" vert-adv-y="1160" 
d="M115 0l25 714h12l503 -608h6l-22 594h68l-25 -714h-12l-503 608h-6l22 -594h-68zM420 873q15 -10 31.5 -18.5t34.5 -8.5q16 0 32 10t37 38l15 -10q-26 -52 -48 -72t-50 -20q-21 0 -38 8.5t-34 18.5q-15 10 -31.5 18.5t-34.5 8.5q-16 0 -32 -9.5t-37 -38.5l-15 10
q26 52 48 72t50 20q21 0 38.5 -8t33.5 -19z" />
    <glyph glyph-name="Ograve" unicode="&#xd2;" horiz-adv-x="888" vert-adv-y="1160" 
d="M80 350q0 77 27.5 143.5t77 116t116 77t143.5 27.5t143.5 -27.5t116 -77t77 -116t27.5 -143.5t-27.5 -143.5t-77 -116t-116 -77t-143.5 -27.5t-143.5 27.5t-116 77t-77 116t-27.5 143.5zM156 350q0 -102 36 -178.5t101 -119t151 -42.5t151 42.5t101 119.5t36 178
t-36 177.5t-101 119.5t-151 43t-150.5 -42.5t-101 -119t-36.5 -178.5zM501 775l-13 -12l-174 128v6h90z" />
    <glyph glyph-name="Ograve" unicode="&#xf2;" horiz-adv-x="888" vert-adv-y="1160" 
d="M80 350q0 77 27.5 143.5t77 116t116 77t143.5 27.5t143.5 -27.5t116 -77t77 -116t27.5 -143.5t-27.5 -143.5t-77 -116t-116 -77t-143.5 -27.5t-143.5 27.5t-116 77t-77 116t-27.5 143.5zM156 350q0 -102 36 -178.5t101 -119t151 -42.5t151 42.5t101 119.5t36 178
t-36 177.5t-101 119.5t-151 43t-150.5 -42.5t-101 -119t-36.5 -178.5zM501 775l-13 -12l-174 128v6h90z" />
    <glyph glyph-name="Oacute" unicode="&#xd3;" horiz-adv-x="888" vert-adv-y="1160" 
d="M80 350q0 77 27.5 143.5t77 116t116 77t143.5 27.5t143.5 -27.5t116 -77t77 -116t27.5 -143.5t-27.5 -143.5t-77 -116t-116 -77t-143.5 -27.5t-143.5 27.5t-116 77t-77 116t-27.5 143.5zM156 350q0 -102 36 -178.5t101 -119t151 -42.5t151 42.5t101 119.5t36 178
t-36 177.5t-101 119.5t-151 43t-150.5 -42.5t-101 -119t-36.5 -178.5zM383 775l97 122h90v-6l-174 -128z" />
    <glyph glyph-name="Oacute" unicode="&#xf3;" horiz-adv-x="888" vert-adv-y="1160" 
d="M80 350q0 77 27.5 143.5t77 116t116 77t143.5 27.5t143.5 -27.5t116 -77t77 -116t27.5 -143.5t-27.5 -143.5t-77 -116t-116 -77t-143.5 -27.5t-143.5 27.5t-116 77t-77 116t-27.5 143.5zM156 350q0 -102 36 -178.5t101 -119t151 -42.5t151 42.5t101 119.5t36 178
t-36 177.5t-101 119.5t-151 43t-150.5 -42.5t-101 -119t-36.5 -178.5zM383 775l97 122h90v-6l-174 -128z" />
    <glyph glyph-name="Ocircumflex" unicode="&#xd4;" horiz-adv-x="888" vert-adv-y="1160" 
d="M80 350q0 77 27.5 143.5t77 116t116 77t143.5 27.5t143.5 -27.5t116 -77t77 -116t27.5 -143.5t-27.5 -143.5t-77 -116t-116 -77t-143.5 -27.5t-143.5 27.5t-116 77t-77 116t-27.5 143.5zM156 350q0 -102 36 -178.5t101 -119t151 -42.5t151 42.5t101 119.5t36 178
t-36 177.5t-101 119.5t-151 43t-150.5 -42.5t-101 -119t-36.5 -178.5zM457 905l121 -130l-13 -12l-121 80l-121 -80l-13 12l121 130h26z" />
    <glyph glyph-name="Ocircumflex" unicode="&#xf4;" horiz-adv-x="888" vert-adv-y="1160" 
d="M80 350q0 77 27.5 143.5t77 116t116 77t143.5 27.5t143.5 -27.5t116 -77t77 -116t27.5 -143.5t-27.5 -143.5t-77 -116t-116 -77t-143.5 -27.5t-143.5 27.5t-116 77t-77 116t-27.5 143.5zM156 350q0 -102 36 -178.5t101 -119t151 -42.5t151 42.5t101 119.5t36 178
t-36 177.5t-101 119.5t-151 43t-150.5 -42.5t-101 -119t-36.5 -178.5zM457 905l121 -130l-13 -12l-121 80l-121 -80l-13 12l121 130h26z" />
    <glyph glyph-name="Otilde" unicode="&#xd5;" horiz-adv-x="888" vert-adv-y="1160" 
d="M80 350q0 77 27.5 143.5t77 116t116 77t143.5 27.5t143.5 -27.5t116 -77t77 -116t27.5 -143.5t-27.5 -143.5t-77 -116t-116 -77t-143.5 -27.5t-143.5 27.5t-116 77t-77 116t-27.5 143.5zM156 350q0 -102 36 -178.5t101 -119t151 -42.5t151 42.5t101 119.5t36 178
t-36 177.5t-101 119.5t-151 43t-150.5 -42.5t-101 -119t-36.5 -178.5zM453 873q15 -10 31.5 -18.5t34.5 -8.5q16 0 32 10t37 38l15 -10q-26 -52 -48 -72t-50 -20q-21 0 -38 8.5t-34 18.5q-15 10 -31.5 18.5t-34.5 8.5q-16 0 -32 -9.5t-37 -38.5l-15 10q26 52 48 72t50 20
q21 0 38.5 -8t33.5 -19z" />
    <glyph glyph-name="Otilde" unicode="&#xf5;" horiz-adv-x="888" vert-adv-y="1160" 
d="M80 350q0 77 27.5 143.5t77 116t116 77t143.5 27.5t143.5 -27.5t116 -77t77 -116t27.5 -143.5t-27.5 -143.5t-77 -116t-116 -77t-143.5 -27.5t-143.5 27.5t-116 77t-77 116t-27.5 143.5zM156 350q0 -102 36 -178.5t101 -119t151 -42.5t151 42.5t101 119.5t36 178
t-36 177.5t-101 119.5t-151 43t-150.5 -42.5t-101 -119t-36.5 -178.5zM453 873q15 -10 31.5 -18.5t34.5 -8.5q16 0 32 10t37 38l15 -10q-26 -52 -48 -72t-50 -20q-21 0 -38 8.5t-34 18.5q-15 10 -31.5 18.5t-34.5 8.5q-16 0 -32 -9.5t-37 -38.5l-15 10q26 52 48 72t50 20
q21 0 38.5 -8t33.5 -19z" />
    <glyph glyph-name="Odieresis" unicode="&#xd6;" horiz-adv-x="888" vert-adv-y="1160" 
d="M80 350q0 77 27.5 143.5t77 116t116 77t143.5 27.5t143.5 -27.5t116 -77t77 -116t27.5 -143.5t-27.5 -143.5t-77 -116t-116 -77t-143.5 -27.5t-143.5 27.5t-116 77t-77 116t-27.5 143.5zM156 350q0 -102 36 -178.5t101 -119t151 -42.5t151 42.5t101 119.5t36 178
t-36 177.5t-101 119.5t-151 43t-150.5 -42.5t-101 -119t-36.5 -178.5zM502 845q0 20 13 32.5t32 12.5q20 0 32.5 -12.5t12.5 -32.5q0 -19 -12.5 -32t-32.5 -13q-19 0 -32 13t-13 32zM296 845q0 20 13 32.5t32 12.5q20 0 32.5 -12.5t12.5 -32.5q0 -19 -12.5 -32t-32.5 -13
q-19 0 -32 13t-13 32z" />
    <glyph glyph-name="Odieresis" unicode="&#xf6;" horiz-adv-x="888" vert-adv-y="1160" 
d="M80 350q0 77 27.5 143.5t77 116t116 77t143.5 27.5t143.5 -27.5t116 -77t77 -116t27.5 -143.5t-27.5 -143.5t-77 -116t-116 -77t-143.5 -27.5t-143.5 27.5t-116 77t-77 116t-27.5 143.5zM156 350q0 -102 36 -178.5t101 -119t151 -42.5t151 42.5t101 119.5t36 178
t-36 177.5t-101 119.5t-151 43t-150.5 -42.5t-101 -119t-36.5 -178.5zM502 845q0 20 13 32.5t32 12.5q20 0 32.5 -12.5t12.5 -32.5q0 -19 -12.5 -32t-32.5 -13q-19 0 -32 13t-13 32zM296 845q0 20 13 32.5t32 12.5q20 0 32.5 -12.5t12.5 -32.5q0 -19 -12.5 -32t-32.5 -13
q-19 0 -32 13t-13 32z" />
    <glyph glyph-name="multiply" unicode="&#xd7;" vert-adv-y="0" 
d="M116 128l-21 21l175 175l-175 175l21 21l175 -175l175 175l21 -21l-175 -175l175 -175l-21 -21l-175 175z" />
    <glyph glyph-name="Oslash" unicode="&#xd8;" horiz-adv-x="888" vert-adv-y="0" 
d="M191 -63l59 102q-77 48 -123.5 129.5t-46.5 181.5q0 77 27.5 143.5t77 116t116 77t143.5 27.5q47 0 90.5 -10.5t81.5 -30.5l53 93l22 -12l-54 -93q78 -47 124.5 -128.5t46.5 -182.5q0 -77 -27.5 -143.5t-77 -116t-116 -77t-143.5 -27.5q-47 0 -90.5 10.5t-81.5 30.5
l-59 -102zM156 350q0 -92 29.5 -163.5t82.5 -115.5l331 573q-67 46 -155 46q-86 0 -150.5 -42.5t-101 -119t-36.5 -178.5zM732 350q0 91 -30 163t-83 116l-331 -573q68 -46 156 -46q86 0 151 42.5t101 119.5t36 178z" />
    <glyph glyph-name="Oslash" unicode="&#xf8;" horiz-adv-x="888" vert-adv-y="0" 
d="M191 -63l59 102q-77 48 -123.5 129.5t-46.5 181.5q0 77 27.5 143.5t77 116t116 77t143.5 27.5q47 0 90.5 -10.5t81.5 -30.5l53 93l22 -12l-54 -93q78 -47 124.5 -128.5t46.5 -182.5q0 -77 -27.5 -143.5t-77 -116t-116 -77t-143.5 -27.5q-47 0 -90.5 10.5t-81.5 30.5
l-59 -102zM156 350q0 -92 29.5 -163.5t82.5 -115.5l331 573q-67 46 -155 46q-86 0 -150.5 -42.5t-101 -119t-36.5 -178.5zM732 350q0 91 -30 163t-83 116l-331 -573q68 -46 156 -46q86 0 151 42.5t101 119.5t36 178z" />
    <glyph glyph-name="Ugrave" unicode="&#xd9;" horiz-adv-x="798" vert-adv-y="1160" 
d="M120 700h68v-422q0 -121 59.5 -188.5t167.5 -67.5q68 0 118.5 26.5t78 73.5t25.5 108l-17 470h68l-17 -470q-4 -120 -71.5 -182t-192.5 -62q-135 0 -211 78.5t-76 215.5v420zM460 775l-13 -12l-174 128v6h90z" />
    <glyph glyph-name="Ugrave" unicode="&#xf9;" horiz-adv-x="798" vert-adv-y="1160" 
d="M120 700h68v-422q0 -121 59.5 -188.5t167.5 -67.5q68 0 118.5 26.5t78 73.5t25.5 108l-17 470h68l-17 -470q-4 -120 -71.5 -182t-192.5 -62q-135 0 -211 78.5t-76 215.5v420zM460 775l-13 -12l-174 128v6h90z" />
    <glyph glyph-name="Uacute" unicode="&#xda;" horiz-adv-x="798" vert-adv-y="1160" 
d="M120 700h68v-422q0 -121 59.5 -188.5t167.5 -67.5q68 0 118.5 26.5t78 73.5t25.5 108l-17 470h68l-17 -470q-4 -120 -71.5 -182t-192.5 -62q-135 0 -211 78.5t-76 215.5v420zM342 775l97 122h90v-6l-174 -128z" />
    <glyph glyph-name="Uacute" unicode="&#xfa;" horiz-adv-x="798" vert-adv-y="1160" 
d="M120 700h68v-422q0 -121 59.5 -188.5t167.5 -67.5q68 0 118.5 26.5t78 73.5t25.5 108l-17 470h68l-17 -470q-4 -120 -71.5 -182t-192.5 -62q-135 0 -211 78.5t-76 215.5v420zM342 775l97 122h90v-6l-174 -128z" />
    <glyph glyph-name="Ucircumflex" unicode="&#xdb;" horiz-adv-x="798" vert-adv-y="1160" 
d="M120 700h68v-422q0 -121 59.5 -188.5t167.5 -67.5q68 0 118.5 26.5t78 73.5t25.5 108l-17 470h68l-17 -470q-4 -120 -71.5 -182t-192.5 -62q-135 0 -211 78.5t-76 215.5v420zM416 905l121 -130l-13 -12l-121 80l-121 -80l-13 12l121 130h26z" />
    <glyph glyph-name="Ucircumflex" unicode="&#xfb;" horiz-adv-x="798" vert-adv-y="1160" 
d="M120 700h68v-422q0 -121 59.5 -188.5t167.5 -67.5q68 0 118.5 26.5t78 73.5t25.5 108l-17 470h68l-17 -470q-4 -120 -71.5 -182t-192.5 -62q-135 0 -211 78.5t-76 215.5v420zM416 905l121 -130l-13 -12l-121 80l-121 -80l-13 12l121 130h26z" />
    <glyph glyph-name="Udieresis" unicode="&#xdc;" horiz-adv-x="798" vert-adv-y="1160" 
d="M120 700h68v-422q0 -121 59.5 -188.5t167.5 -67.5q68 0 118.5 26.5t78 73.5t25.5 108l-17 470h68l-17 -470q-4 -120 -71.5 -182t-192.5 -62q-135 0 -211 78.5t-76 215.5v420zM461 845q0 20 13 32.5t32 12.5q20 0 32.5 -12.5t12.5 -32.5q0 -19 -12.5 -32t-32.5 -13
q-19 0 -32 13t-13 32zM255 845q0 20 13 32.5t32 12.5q20 0 32.5 -12.5t12.5 -32.5q0 -19 -12.5 -32t-32.5 -13q-19 0 -32 13t-13 32z" />
    <glyph glyph-name="Udieresis" unicode="&#xfc;" horiz-adv-x="798" vert-adv-y="1160" 
d="M120 700h68v-422q0 -121 59.5 -188.5t167.5 -67.5q68 0 118.5 26.5t78 73.5t25.5 108l-17 470h68l-17 -470q-4 -120 -71.5 -182t-192.5 -62q-135 0 -211 78.5t-76 215.5v420zM461 845q0 20 13 32.5t32 12.5q20 0 32.5 -12.5t12.5 -32.5q0 -19 -12.5 -32t-32.5 -13
q-19 0 -32 13t-13 32zM255 845q0 20 13 32.5t32 12.5q20 0 32.5 -12.5t12.5 -32.5q0 -19 -12.5 -32t-32.5 -13q-19 0 -32 13t-13 32z" />
    <glyph glyph-name="Yacute" unicode="&#xdd;" horiz-adv-x="617" vert-adv-y="1160" 
d="M280 0v296l-248 404h76l223 -366h6l178 366h76l-239 -390v-310h-72zM251 775l97 122h90v-6l-174 -128z" />
    <glyph glyph-name="Yacute" unicode="&#xfd;" horiz-adv-x="617" vert-adv-y="1160" 
d="M280 0v296l-248 404h76l223 -366h6l178 366h76l-239 -390v-310h-72zM251 775l97 122h90v-6l-174 -128z" />
    <glyph glyph-name="Thorn" unicode="&#xde;" horiz-adv-x="570" vert-adv-y="0" 
d="M130 0v700h68v-146h57q121 0 188 -51.5t67 -143.5t-67 -143.5t-188 -51.5h-57v-164h-68zM255 530h-57v-342h57q183 0 183 171t-183 171z" />
    <glyph glyph-name="Thorn" unicode="&#xfe;" horiz-adv-x="570" vert-adv-y="0" 
d="M130 0v700h68v-146h57q121 0 188 -51.5t67 -143.5t-67 -143.5t-188 -51.5h-57v-164h-68zM255 530h-57v-342h57q183 0 183 171t-183 171z" />
    <glyph glyph-name="uni1E9E" unicode="&#xdf;" horiz-adv-x="739" vert-adv-y="0" 
d="M120 0v420q0 91 33 156.5t94 101.5t143 36q69 0 127.5 -25t88.5 -69l-169 -236q108 -5 170 -59t62 -144q0 -58 -27 -101.5t-76 -68.5t-115 -25q-41 0 -86.5 10t-77.5 26l6 57h6q32 -36 73.5 -53.5t78.5 -17.5q65 0 104.5 48.5t39.5 124.5q0 89 -50.5 135.5t-148.5 46.5
h-31l-9 18l172 241q-17 32 -54 51t-84 19q-61 0 -106.5 -33t-70.5 -92.5t-25 -140.5v-426h-68z" />
    <glyph glyph-name="uni1E9E" unicode="&#x1e9e;" horiz-adv-x="739" vert-adv-y="0" 
d="M120 0v420q0 91 33 156.5t94 101.5t143 36q69 0 127.5 -25t88.5 -69l-169 -236q108 -5 170 -59t62 -144q0 -58 -27 -101.5t-76 -68.5t-115 -25q-41 0 -86.5 10t-77.5 26l6 57h6q32 -36 73.5 -53.5t78.5 -17.5q65 0 104.5 48.5t39.5 124.5q0 89 -50.5 135.5t-148.5 46.5
h-31l-9 18l172 241q-17 32 -54 51t-84 19q-61 0 -106.5 -33t-70.5 -92.5t-25 -140.5v-426h-68z" />
    <glyph glyph-name="divide" unicode="&#xf7;" vert-adv-y="0" 
d="M248 488q0 19 12 31t31 12t31 -12t12 -31t-12 -31t-31 -12t-31 12t-12 31zM59 313v30h464v-30h-464zM248 168q0 19 12 31t31 12t31 -12t12 -31t-12 -31t-31 -12t-31 12t-12 31z" />
    <glyph glyph-name="Ydieresis" unicode="&#xff;" horiz-adv-x="617" vert-adv-y="1160" 
d="M280 0v296l-248 404h76l223 -366h6l178 366h76l-239 -390v-310h-72zM370 845q0 20 13 32.5t32 12.5q20 0 32.5 -12.5t12.5 -32.5q0 -19 -12.5 -32t-32.5 -13q-19 0 -32 13t-13 32zM164 845q0 20 13 32.5t32 12.5q20 0 32.5 -12.5t12.5 -32.5q0 -19 -12.5 -32t-32.5 -13
q-19 0 -32 13t-13 32z" />
    <glyph glyph-name="Ydieresis" unicode="&#x178;" horiz-adv-x="617" vert-adv-y="1160" 
d="M280 0v296l-248 404h76l223 -366h6l178 366h76l-239 -390v-310h-72zM370 845q0 20 13 32.5t32 12.5q20 0 32.5 -12.5t12.5 -32.5q0 -19 -12.5 -32t-32.5 -13q-19 0 -32 13t-13 32zM164 845q0 20 13 32.5t32 12.5q20 0 32.5 -12.5t12.5 -32.5q0 -19 -12.5 -32t-32.5 -13
q-19 0 -32 13t-13 32z" />
    <glyph glyph-name="Amacron" unicode="&#x100;" horiz-adv-x="658" vert-adv-y="1160" 
d="M26 0l269 700h62l269 -700h-73l-124 328h-227l-103 -328h-73zM302 648l-93 -296h211l-112 296h-6zM195 819v40h268v-40h-268z" />
    <glyph glyph-name="Amacron" unicode="&#x101;" horiz-adv-x="658" vert-adv-y="1160" 
d="M26 0l269 700h62l269 -700h-73l-124 328h-227l-103 -328h-73zM302 648l-93 -296h211l-112 296h-6zM195 819v40h268v-40h-268z" />
    <glyph glyph-name="Abreve" unicode="&#x102;" horiz-adv-x="658" vert-adv-y="1160" 
d="M26 0l269 700h62l269 -700h-73l-124 328h-227l-103 -328h-73zM302 648l-93 -296h211l-112 296h-6zM329 777q-48 0 -81.5 34t-47.5 95l17 6q25 -43 50 -60t62 -17q38 0 62.5 17t49.5 60l17 -6q-13 -61 -47 -95t-82 -34z" />
    <glyph glyph-name="Abreve" unicode="&#x103;" horiz-adv-x="658" vert-adv-y="1160" 
d="M26 0l269 700h62l269 -700h-73l-124 328h-227l-103 -328h-73zM302 648l-93 -296h211l-112 296h-6zM329 777q-48 0 -81.5 34t-47.5 95l17 6q25 -43 50 -60t62 -17q38 0 62.5 17t49.5 60l17 -6q-13 -61 -47 -95t-82 -34z" />
    <glyph glyph-name="Aogonek" unicode="&#x104;" horiz-adv-x="658" vert-adv-y="1160" 
d="M26 0l269 700h62l269 -700h-73l-124 328h-227l-103 -328h-73zM302 648l-93 -296h211l-112 296h-6zM626 -178q-38 -42 -82 -42q-37 0 -59 23.5t-22 61.5t24.5 72t79.5 73h9l2 -10q-55 -64 -55 -118q0 -28 12.5 -45t34.5 -17q23 0 45 16z" />
    <glyph glyph-name="Aogonek" unicode="&#x105;" horiz-adv-x="658" vert-adv-y="1160" 
d="M26 0l269 700h62l269 -700h-73l-124 328h-227l-103 -328h-73zM302 648l-93 -296h211l-112 296h-6zM626 -178q-38 -42 -82 -42q-37 0 -59 23.5t-22 61.5t24.5 72t79.5 73h9l2 -10q-55 -64 -55 -118q0 -28 12.5 -45t34.5 -17q23 0 45 16z" />
    <glyph glyph-name="Cacute" unicode="&#x106;" horiz-adv-x="758" vert-adv-y="1160" 
d="M688 86l-6 -61q-28 -12 -68 -21t-81 -13.5t-73 -4.5q-81 0 -150 27.5t-120.5 76.5t-80.5 115.5t-29 144.5t29 144.5t80.5 115.5t120.5 76.5t150 27.5q33 0 74 -5t80 -13.5t66 -19.5l-5 -56h-6q-37 34 -93 52t-116 18q-90 0 -158.5 -42.5t-107 -119t-38.5 -178.5
q0 -103 38.5 -179t106.5 -118.5t159 -42.5q68 0 126.5 22t95.5 54h6zM401 775l97 122h90v-6l-174 -128z" />
    <glyph glyph-name="Cacute" unicode="&#x107;" horiz-adv-x="758" vert-adv-y="1160" 
d="M688 86l-6 -61q-28 -12 -68 -21t-81 -13.5t-73 -4.5q-81 0 -150 27.5t-120.5 76.5t-80.5 115.5t-29 144.5t29 144.5t80.5 115.5t120.5 76.5t150 27.5q33 0 74 -5t80 -13.5t66 -19.5l-5 -56h-6q-37 34 -93 52t-116 18q-90 0 -158.5 -42.5t-107 -119t-38.5 -178.5
q0 -103 38.5 -179t106.5 -118.5t159 -42.5q68 0 126.5 22t95.5 54h6zM401 775l97 122h90v-6l-174 -128z" />
    <glyph glyph-name="Ccircumflex" unicode="&#x108;" horiz-adv-x="758" vert-adv-y="1160" 
d="M688 86l-6 -61q-28 -12 -68 -21t-81 -13.5t-73 -4.5q-81 0 -150 27.5t-120.5 76.5t-80.5 115.5t-29 144.5t29 144.5t80.5 115.5t120.5 76.5t150 27.5q33 0 74 -5t80 -13.5t66 -19.5l-5 -56h-6q-37 34 -93 52t-116 18q-90 0 -158.5 -42.5t-107 -119t-38.5 -178.5
q0 -103 38.5 -179t106.5 -118.5t159 -42.5q68 0 126.5 22t95.5 54h6zM475 905l121 -130l-13 -12l-121 80l-121 -80l-13 12l121 130h26z" />
    <glyph glyph-name="Ccircumflex" unicode="&#x109;" horiz-adv-x="758" vert-adv-y="1160" 
d="M688 86l-6 -61q-28 -12 -68 -21t-81 -13.5t-73 -4.5q-81 0 -150 27.5t-120.5 76.5t-80.5 115.5t-29 144.5t29 144.5t80.5 115.5t120.5 76.5t150 27.5q33 0 74 -5t80 -13.5t66 -19.5l-5 -56h-6q-37 34 -93 52t-116 18q-90 0 -158.5 -42.5t-107 -119t-38.5 -178.5
q0 -103 38.5 -179t106.5 -118.5t159 -42.5q68 0 126.5 22t95.5 54h6zM475 905l121 -130l-13 -12l-121 80l-121 -80l-13 12l121 130h26z" />
    <glyph glyph-name="Cdotaccent" unicode="&#x10a;" horiz-adv-x="758" vert-adv-y="1160" 
d="M688 86l-6 -61q-28 -12 -68 -21t-81 -13.5t-73 -4.5q-81 0 -150 27.5t-120.5 76.5t-80.5 115.5t-29 144.5t29 144.5t80.5 115.5t120.5 76.5t150 27.5q33 0 74 -5t80 -13.5t66 -19.5l-5 -56h-6q-37 34 -93 52t-116 18q-90 0 -158.5 -42.5t-107 -119t-38.5 -178.5
q0 -103 38.5 -179t106.5 -118.5t159 -42.5q68 0 126.5 22t95.5 54h6zM414 845q0 21 13.5 34.5t34.5 13.5t34.5 -13.5t13.5 -34.5t-13.5 -34.5t-34.5 -13.5t-34.5 13.5t-13.5 34.5z" />
    <glyph glyph-name="Cdotaccent" unicode="&#x10b;" horiz-adv-x="758" vert-adv-y="1160" 
d="M688 86l-6 -61q-28 -12 -68 -21t-81 -13.5t-73 -4.5q-81 0 -150 27.5t-120.5 76.5t-80.5 115.5t-29 144.5t29 144.5t80.5 115.5t120.5 76.5t150 27.5q33 0 74 -5t80 -13.5t66 -19.5l-5 -56h-6q-37 34 -93 52t-116 18q-90 0 -158.5 -42.5t-107 -119t-38.5 -178.5
q0 -103 38.5 -179t106.5 -118.5t159 -42.5q68 0 126.5 22t95.5 54h6zM414 845q0 21 13.5 34.5t34.5 13.5t34.5 -13.5t13.5 -34.5t-13.5 -34.5t-34.5 -13.5t-34.5 13.5t-13.5 34.5z" />
    <glyph glyph-name="Ccaron" unicode="&#x10c;" horiz-adv-x="758" vert-adv-y="1160" 
d="M688 86l-6 -61q-28 -12 -68 -21t-81 -13.5t-73 -4.5q-81 0 -150 27.5t-120.5 76.5t-80.5 115.5t-29 144.5t29 144.5t80.5 115.5t120.5 76.5t150 27.5q33 0 74 -5t80 -13.5t66 -19.5l-5 -56h-6q-37 34 -93 52t-116 18q-90 0 -158.5 -42.5t-107 -119t-38.5 -178.5
q0 -103 38.5 -179t106.5 -118.5t159 -42.5q68 0 126.5 22t95.5 54h6zM449 776l-121 130l13 12l121 -80l121 80l13 -12l-121 -130h-26z" />
    <glyph glyph-name="Ccaron" unicode="&#x10d;" horiz-adv-x="758" vert-adv-y="1160" 
d="M688 86l-6 -61q-28 -12 -68 -21t-81 -13.5t-73 -4.5q-81 0 -150 27.5t-120.5 76.5t-80.5 115.5t-29 144.5t29 144.5t80.5 115.5t120.5 76.5t150 27.5q33 0 74 -5t80 -13.5t66 -19.5l-5 -56h-6q-37 34 -93 52t-116 18q-90 0 -158.5 -42.5t-107 -119t-38.5 -178.5
q0 -103 38.5 -179t106.5 -118.5t159 -42.5q68 0 126.5 22t95.5 54h6zM449 776l-121 130l13 12l121 -80l121 80l13 -12l-121 -130h-26z" />
    <glyph glyph-name="Dcaron" unicode="&#x10e;" horiz-adv-x="814" vert-adv-y="1160" 
d="M130 0v700h220q116 0 202 -44t134 -122.5t48 -183.5t-48 -183.5t-134 -122.5t-202 -44h-220zM350 676h-152v-652h152q145 0 226.5 86t81.5 240t-81.5 240t-226.5 86zM353 776l-121 130l13 12l121 -80l121 80l13 -12l-121 -130h-26z" />
    <glyph glyph-name="Dcaron" unicode="&#x10f;" horiz-adv-x="814" vert-adv-y="1160" 
d="M130 0v700h220q116 0 202 -44t134 -122.5t48 -183.5t-48 -183.5t-134 -122.5t-202 -44h-220zM350 676h-152v-652h152q145 0 226.5 86t81.5 240t-81.5 240t-226.5 86zM353 776l-121 130l13 12l121 -80l121 80l13 -12l-121 -130h-26z" />
    <glyph glyph-name="Dcroat" unicode="&#x110;" horiz-adv-x="814" vert-adv-y="1160" 
d="M130 0v352h-92v24h92v324h220q116 0 202 -44t134 -122.5t48 -183.5t-48 -183.5t-134 -122.5t-202 -44h-220zM372 352h-174v-328h152q145 0 226.5 86t81.5 240t-81.5 240t-226.5 86h-152v-300h174v-24z" />
    <glyph glyph-name="Dcroat" unicode="&#x111;" horiz-adv-x="814" vert-adv-y="1160" 
d="M130 0v352h-92v24h92v324h220q116 0 202 -44t134 -122.5t48 -183.5t-48 -183.5t-134 -122.5t-202 -44h-220zM372 352h-174v-328h152q145 0 226.5 86t81.5 240t-81.5 240t-226.5 86h-152v-300h174v-24z" />
    <glyph glyph-name="Emacron" unicode="&#x112;" horiz-adv-x="518" vert-adv-y="1160" 
d="M130 0v700h305v-49l-175 23q-46 6 -62 6v-305q13 0 62 3l164 10v-46l-164 10q-49 3 -62 3v-335q18 0 63 6l177 23v-49h-308zM145 819v40h268v-40h-268z" />
    <glyph glyph-name="Emacron" unicode="&#x113;" horiz-adv-x="518" vert-adv-y="1160" 
d="M130 0v700h305v-49l-175 23q-46 6 -62 6v-305q13 0 62 3l164 10v-46l-164 10q-49 3 -62 3v-335q18 0 63 6l177 23v-49h-308zM145 819v40h268v-40h-268z" />
    <glyph glyph-name="Ebreve" unicode="&#x114;" horiz-adv-x="518" vert-adv-y="1160" 
d="M130 0v700h305v-49l-175 23q-46 6 -62 6v-305q13 0 62 3l164 10v-46l-164 10q-49 3 -62 3v-335q18 0 63 6l177 23v-49h-308zM279 777q-48 0 -81.5 34t-47.5 95l17 6q25 -43 50 -60t62 -17q38 0 62.5 17t49.5 60l17 -6q-13 -61 -47 -95t-82 -34z" />
    <glyph glyph-name="Ebreve" unicode="&#x115;" horiz-adv-x="518" vert-adv-y="1160" 
d="M130 0v700h305v-49l-175 23q-46 6 -62 6v-305q13 0 62 3l164 10v-46l-164 10q-49 3 -62 3v-335q18 0 63 6l177 23v-49h-308zM279 777q-48 0 -81.5 34t-47.5 95l17 6q25 -43 50 -60t62 -17q38 0 62.5 17t49.5 60l17 -6q-13 -61 -47 -95t-82 -34z" />
    <glyph glyph-name="Edotaccent" unicode="&#x116;" horiz-adv-x="518" vert-adv-y="1160" 
d="M130 0v700h305v-49l-175 23q-46 6 -62 6v-305q13 0 62 3l164 10v-46l-164 10q-49 3 -62 3v-335q18 0 63 6l177 23v-49h-308zM231 845q0 21 13.5 34.5t34.5 13.5t34.5 -13.5t13.5 -34.5t-13.5 -34.5t-34.5 -13.5t-34.5 13.5t-13.5 34.5z" />
    <glyph glyph-name="Edotaccent" unicode="&#x117;" horiz-adv-x="518" vert-adv-y="1160" 
d="M130 0v700h305v-49l-175 23q-46 6 -62 6v-305q13 0 62 3l164 10v-46l-164 10q-49 3 -62 3v-335q18 0 63 6l177 23v-49h-308zM231 845q0 21 13.5 34.5t34.5 13.5t34.5 -13.5t13.5 -34.5t-13.5 -34.5t-34.5 -13.5t-34.5 13.5t-13.5 34.5z" />
    <glyph glyph-name="Eogonek" unicode="&#x118;" horiz-adv-x="518" vert-adv-y="1160" 
d="M130 0v700h305v-49l-175 23q-46 6 -62 6v-305q13 0 62 3l164 10v-46l-164 10q-49 3 -62 3v-335q18 0 63 6l177 23v-49h-308zM438 -178q-38 -42 -82 -42q-37 0 -59 23.5t-22 61.5t24.5 72t79.5 73h9l2 -10q-55 -64 -55 -118q0 -28 12.5 -45t34.5 -17q23 0 45 16z" />
    <glyph glyph-name="Eogonek" unicode="&#x119;" horiz-adv-x="518" vert-adv-y="1160" 
d="M130 0v700h305v-49l-175 23q-46 6 -62 6v-305q13 0 62 3l164 10v-46l-164 10q-49 3 -62 3v-335q18 0 63 6l177 23v-49h-308zM438 -178q-38 -42 -82 -42q-37 0 -59 23.5t-22 61.5t24.5 72t79.5 73h9l2 -10q-55 -64 -55 -118q0 -28 12.5 -45t34.5 -17q23 0 45 16z" />
    <glyph glyph-name="Ecaron" unicode="&#x11a;" horiz-adv-x="518" vert-adv-y="1160" 
d="M130 0v700h305v-49l-175 23q-46 6 -62 6v-305q13 0 62 3l164 10v-46l-164 10q-49 3 -62 3v-335q18 0 63 6l177 23v-49h-308zM266 776l-121 130l13 12l121 -80l121 80l13 -12l-121 -130h-26z" />
    <glyph glyph-name="Ecaron" unicode="&#x11b;" horiz-adv-x="518" vert-adv-y="1160" 
d="M130 0v700h305v-49l-175 23q-46 6 -62 6v-305q13 0 62 3l164 10v-46l-164 10q-49 3 -62 3v-335q18 0 63 6l177 23v-49h-308zM266 776l-121 130l13 12l121 -80l121 80l13 -12l-121 -130h-26z" />
    <glyph glyph-name="Gcircumflex" unicode="&#x11c;" horiz-adv-x="832" vert-adv-y="1160" 
d="M479 332v24h253v-272q-46 -46 -112.5 -72t-148.5 -26q-84 0 -155 27.5t-124 77t-82.5 115.5t-29.5 144t29.5 144t82.5 115.5t124 77t155 27.5q36 0 78.5 -5t81.5 -13.5t66 -20.5l-5 -56h-6q-40 35 -96 53t-119 18q-94 0 -165 -42.5t-110.5 -119t-39.5 -178.5t39.5 -178.5
t110.5 -119t165 -42.5q58 0 107.5 16t85.5 46v260h-185zM483 905l121 -130l-13 -12l-121 80l-121 -80l-13 12l121 130h26z" />
    <glyph glyph-name="Gcircumflex" unicode="&#x11d;" horiz-adv-x="832" vert-adv-y="1160" 
d="M479 332v24h253v-272q-46 -46 -112.5 -72t-148.5 -26q-84 0 -155 27.5t-124 77t-82.5 115.5t-29.5 144t29.5 144t82.5 115.5t124 77t155 27.5q36 0 78.5 -5t81.5 -13.5t66 -20.5l-5 -56h-6q-40 35 -96 53t-119 18q-94 0 -165 -42.5t-110.5 -119t-39.5 -178.5t39.5 -178.5
t110.5 -119t165 -42.5q58 0 107.5 16t85.5 46v260h-185zM483 905l121 -130l-13 -12l-121 80l-121 -80l-13 12l121 130h26z" />
    <glyph glyph-name="Gbreve" unicode="&#x11e;" horiz-adv-x="832" vert-adv-y="1160" 
d="M479 332v24h253v-272q-46 -46 -112.5 -72t-148.5 -26q-84 0 -155 27.5t-124 77t-82.5 115.5t-29.5 144t29.5 144t82.5 115.5t124 77t155 27.5q36 0 78.5 -5t81.5 -13.5t66 -20.5l-5 -56h-6q-40 35 -96 53t-119 18q-94 0 -165 -42.5t-110.5 -119t-39.5 -178.5t39.5 -178.5
t110.5 -119t165 -42.5q58 0 107.5 16t85.5 46v260h-185zM470 777q-48 0 -81.5 34t-47.5 95l17 6q25 -43 50 -60t62 -17q38 0 62.5 17t49.5 60l17 -6q-13 -61 -47 -95t-82 -34z" />
    <glyph glyph-name="Gbreve" unicode="&#x11f;" horiz-adv-x="832" vert-adv-y="1160" 
d="M479 332v24h253v-272q-46 -46 -112.5 -72t-148.5 -26q-84 0 -155 27.5t-124 77t-82.5 115.5t-29.5 144t29.5 144t82.5 115.5t124 77t155 27.5q36 0 78.5 -5t81.5 -13.5t66 -20.5l-5 -56h-6q-40 35 -96 53t-119 18q-94 0 -165 -42.5t-110.5 -119t-39.5 -178.5t39.5 -178.5
t110.5 -119t165 -42.5q58 0 107.5 16t85.5 46v260h-185zM470 777q-48 0 -81.5 34t-47.5 95l17 6q25 -43 50 -60t62 -17q38 0 62.5 17t49.5 60l17 -6q-13 -61 -47 -95t-82 -34z" />
    <glyph glyph-name="Gdotaccent" unicode="&#x120;" horiz-adv-x="832" vert-adv-y="1160" 
d="M479 332v24h253v-272q-46 -46 -112.5 -72t-148.5 -26q-84 0 -155 27.5t-124 77t-82.5 115.5t-29.5 144t29.5 144t82.5 115.5t124 77t155 27.5q36 0 78.5 -5t81.5 -13.5t66 -20.5l-5 -56h-6q-40 35 -96 53t-119 18q-94 0 -165 -42.5t-110.5 -119t-39.5 -178.5t39.5 -178.5
t110.5 -119t165 -42.5q58 0 107.5 16t85.5 46v260h-185zM422 845q0 21 13.5 34.5t34.5 13.5t34.5 -13.5t13.5 -34.5t-13.5 -34.5t-34.5 -13.5t-34.5 13.5t-13.5 34.5z" />
    <glyph glyph-name="Gdotaccent" unicode="&#x121;" horiz-adv-x="832" vert-adv-y="1160" 
d="M479 332v24h253v-272q-46 -46 -112.5 -72t-148.5 -26q-84 0 -155 27.5t-124 77t-82.5 115.5t-29.5 144t29.5 144t82.5 115.5t124 77t155 27.5q36 0 78.5 -5t81.5 -13.5t66 -20.5l-5 -56h-6q-40 35 -96 53t-119 18q-94 0 -165 -42.5t-110.5 -119t-39.5 -178.5t39.5 -178.5
t110.5 -119t165 -42.5q58 0 107.5 16t85.5 46v260h-185zM422 845q0 21 13.5 34.5t34.5 13.5t34.5 -13.5t13.5 -34.5t-13.5 -34.5t-34.5 -13.5t-34.5 13.5t-13.5 34.5z" />
    <glyph glyph-name="uni0122" unicode="&#x122;" horiz-adv-x="832" vert-adv-y="1160" 
d="M479 332v24h253v-272q-46 -46 -112.5 -72t-148.5 -26q-84 0 -155 27.5t-124 77t-82.5 115.5t-29.5 144t29.5 144t82.5 115.5t124 77t155 27.5q36 0 78.5 -5t81.5 -13.5t66 -20.5l-5 -56h-6q-40 35 -96 53t-119 18q-94 0 -165 -42.5t-110.5 -119t-39.5 -178.5t39.5 -178.5
t110.5 -119t165 -42.5q58 0 107.5 16t85.5 46v260h-185zM423 -100q0 20 13.5 33t34.5 13q49 0 49 -70q0 -38 -18 -69t-62 -63l-11 14q37 30 49 54.5t12 56.5q-9 -12 -26 -12q-19 0 -30 12.5t-11 30.5z" />
    <glyph glyph-name="uni0122" unicode="&#x123;" horiz-adv-x="832" vert-adv-y="1160" 
d="M479 332v24h253v-272q-46 -46 -112.5 -72t-148.5 -26q-84 0 -155 27.5t-124 77t-82.5 115.5t-29.5 144t29.5 144t82.5 115.5t124 77t155 27.5q36 0 78.5 -5t81.5 -13.5t66 -20.5l-5 -56h-6q-40 35 -96 53t-119 18q-94 0 -165 -42.5t-110.5 -119t-39.5 -178.5t39.5 -178.5
t110.5 -119t165 -42.5q58 0 107.5 16t85.5 46v260h-185zM423 -100q0 20 13.5 33t34.5 13q49 0 49 -70q0 -38 -18 -69t-62 -63l-11 14q37 30 49 54.5t12 56.5q-9 -12 -26 -12q-19 0 -30 12.5t-11 30.5z" />
    <glyph glyph-name="Hcircumflex" unicode="&#x124;" horiz-adv-x="816" vert-adv-y="1160" 
d="M130 0v700h68v-324h420v324h68v-700h-68v352h-420v-352h-68zM421 905l121 -130l-13 -12l-121 80l-121 -80l-13 12l121 130h26z" />
    <glyph glyph-name="Hcircumflex" unicode="&#x125;" horiz-adv-x="816" vert-adv-y="1160" 
d="M130 0v700h68v-324h420v324h68v-700h-68v352h-420v-352h-68zM421 905l121 -130l-13 -12l-121 80l-121 -80l-13 12l121 130h26z" />
    <glyph glyph-name="Hbar" unicode="&#x126;" horiz-adv-x="816" vert-adv-y="0" 
d="M130 0v552h-92v24h92v124h68v-124h420v124h68v-124h92v-24h-92v-552h-68v352h-420v-352h-68zM198 376h420v176h-420v-176z" />
    <glyph glyph-name="Hbar" unicode="&#x127;" horiz-adv-x="816" vert-adv-y="0" 
d="M130 0v552h-92v24h92v124h68v-124h420v124h68v-124h92v-24h-92v-552h-68v352h-420v-352h-68zM198 376h420v176h-420v-176z" />
    <glyph glyph-name="Itilde" unicode="&#x128;" horiz-adv-x="328" vert-adv-y="1160" 
d="M130 0v700h68v-700h-68zM173 873q15 -10 31.5 -18.5t34.5 -8.5q16 0 32 10t37 38l15 -10q-26 -52 -48 -72t-50 -20q-21 0 -38 8.5t-34 18.5q-15 10 -31.5 18.5t-34.5 8.5q-16 0 -32 -9.5t-37 -38.5l-15 10q26 52 48 72t50 20q21 0 38.5 -8t33.5 -19z" />
    <glyph glyph-name="Itilde" unicode="&#x129;" horiz-adv-x="328" vert-adv-y="1160" 
d="M130 0v700h68v-700h-68zM173 873q15 -10 31.5 -18.5t34.5 -8.5q16 0 32 10t37 38l15 -10q-26 -52 -48 -72t-50 -20q-21 0 -38 8.5t-34 18.5q-15 10 -31.5 18.5t-34.5 8.5q-16 0 -32 -9.5t-37 -38.5l-15 10q26 52 48 72t50 20q21 0 38.5 -8t33.5 -19z" />
    <glyph glyph-name="Imacron" unicode="&#x12a;" horiz-adv-x="328" vert-adv-y="1160" 
d="M130 0v700h68v-700h-68zM30 819v40h268v-40h-268z" />
    <glyph glyph-name="Imacron" unicode="&#x12b;" horiz-adv-x="328" vert-adv-y="1160" 
d="M130 0v700h68v-700h-68zM30 819v40h268v-40h-268z" />
    <glyph glyph-name="Ibreve" unicode="&#x12c;" horiz-adv-x="328" vert-adv-y="1160" 
d="M130 0v700h68v-700h-68zM164 777q-48 0 -81.5 34t-47.5 95l17 6q25 -43 50 -60t62 -17q38 0 62.5 17t49.5 60l17 -6q-13 -61 -47 -95t-82 -34z" />
    <glyph glyph-name="Ibreve" unicode="&#x12d;" horiz-adv-x="328" vert-adv-y="1160" 
d="M130 0v700h68v-700h-68zM164 777q-48 0 -81.5 34t-47.5 95l17 6q25 -43 50 -60t62 -17q38 0 62.5 17t49.5 60l17 -6q-13 -61 -47 -95t-82 -34z" />
    <glyph glyph-name="Iogonek" unicode="&#x12e;" horiz-adv-x="328" vert-adv-y="1160" 
d="M130 0v700h68v-700h-68zM246 -178q-38 -42 -82 -42q-37 0 -59 23.5t-22 61.5t24.5 72t79.5 73h9l2 -10q-55 -64 -55 -118q0 -28 12.5 -45t34.5 -17q23 0 45 16z" />
    <glyph glyph-name="Iogonek" unicode="&#x12f;" horiz-adv-x="328" vert-adv-y="1160" 
d="M130 0v700h68v-700h-68zM246 -178q-38 -42 -82 -42q-37 0 -59 23.5t-22 61.5t24.5 72t79.5 73h9l2 -10q-55 -64 -55 -118q0 -28 12.5 -45t34.5 -17q23 0 45 16z" />
    <glyph glyph-name="Idotaccent" unicode="&#x130;" horiz-adv-x="328" vert-adv-y="1160" 
d="M130 0v700h68v-700h-68zM116 845q0 21 13.5 34.5t34.5 13.5t34.5 -13.5t13.5 -34.5t-13.5 -34.5t-34.5 -13.5t-34.5 13.5t-13.5 34.5z" />
    <glyph glyph-name="IJ" unicode="&#x132;" horiz-adv-x="656" vert-adv-y="1160" 
d="M130 0v700h68v-700h-68zM458 62v638h68v-632q0 -126 -35 -196t-107 -102l-3 5q40 28 58.5 94.5t18.5 192.5z" />
    <glyph glyph-name="IJ" unicode="&#x133;" horiz-adv-x="656" vert-adv-y="1160" 
d="M130 0v700h68v-700h-68zM458 62v638h68v-632q0 -126 -35 -196t-107 -102l-3 5q40 28 58.5 94.5t18.5 192.5z" />
    <glyph glyph-name="Jcircumflex" unicode="&#x134;" horiz-adv-x="328" vert-adv-y="1160" 
d="M130 62v638h68v-632q0 -126 -35 -196t-107 -102l-3 5q40 28 58.5 94.5t18.5 192.5zM177 905l121 -130l-13 -12l-121 80l-121 -80l-13 12l121 130h26z" />
    <glyph glyph-name="Jcircumflex" unicode="&#x135;" horiz-adv-x="328" vert-adv-y="1160" 
d="M130 62v638h68v-632q0 -126 -35 -196t-107 -102l-3 5q40 28 58.5 94.5t18.5 192.5zM177 905l121 -130l-13 -12l-121 80l-121 -80l-13 12l121 130h26z" />
    <glyph glyph-name="uni0136" unicode="&#x136;" horiz-adv-x="672" vert-adv-y="1160" 
d="M562 0l-328 359l304 341h86l-329 -313l357 -387h-90zM130 0v700h68v-700h-68zM323 -100q0 20 13.5 33t34.5 13q49 0 49 -70q0 -38 -18 -69t-62 -63l-11 14q37 30 49 54.5t12 56.5q-9 -12 -26 -12q-19 0 -30 12.5t-11 30.5z" />
    <glyph glyph-name="uni0136" unicode="&#x137;" horiz-adv-x="672" vert-adv-y="1160" 
d="M562 0l-328 359l304 341h86l-329 -313l357 -387h-90zM130 0v700h68v-700h-68zM323 -100q0 20 13.5 33t34.5 13q49 0 49 -70q0 -38 -18 -69t-62 -63l-11 14q37 30 49 54.5t12 56.5q-9 -12 -26 -12q-19 0 -30 12.5t-11 30.5z" />
    <glyph glyph-name="kgreenlandic" unicode="&#x138;" horiz-adv-x="672" vert-adv-y="1160" 
d="M562 0l-328 359l304 341h86l-329 -313l357 -387h-90zM130 0v700h68v-700h-68z" />
    <glyph glyph-name="Lacute" unicode="&#x139;" horiz-adv-x="461" vert-adv-y="1160" 
d="M130 700h68v-680q19 0 60 6l166 25v-51h-294v700zM105 775l97 122h90v-6l-174 -128z" />
    <glyph glyph-name="Lacute" unicode="&#x13a;" horiz-adv-x="461" vert-adv-y="1160" 
d="M130 700h68v-680q19 0 60 6l166 25v-51h-294v700zM105 775l97 122h90v-6l-174 -128z" />
    <glyph glyph-name="uni013B" unicode="&#x13b;" horiz-adv-x="461" vert-adv-y="1160" 
d="M130 700h68v-680q19 0 60 6l166 25v-51h-294v700zM231 -100q0 20 13.5 33t34.5 13q49 0 49 -70q0 -38 -18 -69t-62 -63l-11 14q37 30 49 54.5t12 56.5q-9 -12 -26 -12q-19 0 -30 12.5t-11 30.5z" />
    <glyph glyph-name="uni013B" unicode="&#x13c;" horiz-adv-x="461" vert-adv-y="1160" 
d="M130 700h68v-680q19 0 60 6l166 25v-51h-294v700zM231 -100q0 20 13.5 33t34.5 13q49 0 49 -70q0 -38 -18 -69t-62 -63l-11 14q37 30 49 54.5t12 56.5q-9 -12 -26 -12q-19 0 -30 12.5t-11 30.5z" />
    <glyph glyph-name="Lcaron" unicode="&#x13d;" horiz-adv-x="461" vert-adv-y="1160" 
d="M130 700h68v-680q19 0 60 6l166 25v-51h-294v700zM320 736q0 15 10 24t26 9q44 0 44 -54q0 -31 -17 -69t-47 -72l-14 11q23 31 23 73q0 16 -4 28t-12 25q-4 6 -6.5 12t-2.5 13z" />
    <glyph glyph-name="Lcaron" unicode="&#x13e;" horiz-adv-x="461" vert-adv-y="1160" 
d="M130 700h68v-680q19 0 60 6l166 25v-51h-294v700zM320 736q0 15 10 24t26 9q44 0 44 -54q0 -31 -17 -69t-47 -72l-14 11q23 31 23 73q0 16 -4 28t-12 25q-4 6 -6.5 12t-2.5 13z" />
    <glyph glyph-name="Ldot" unicode="&#x13f;" horiz-adv-x="461" vert-adv-y="1160" 
d="M130 700h68v-680q19 0 60 6l166 25v-51h-294v700zM329 360q0 22 14 36t36 14t36 -14t14 -36t-14 -36t-36 -14t-36 14t-14 36z" />
    <glyph glyph-name="Ldot" unicode="&#x140;" horiz-adv-x="461" vert-adv-y="1160" 
d="M130 700h68v-680q19 0 60 6l166 25v-51h-294v700zM329 360q0 22 14 36t36 14t36 -14t14 -36t-14 -36t-36 -14t-36 14t-14 36z" />
    <glyph glyph-name="Lslash" unicode="&#x141;" horiz-adv-x="461" vert-adv-y="0" 
d="M46 309l-8 23l92 33v335h68v-315l141 51l8 -23l-149 -54v-339q19 0 60 6l166 25v-51h-294v339z" />
    <glyph glyph-name="Lslash" unicode="&#x142;" horiz-adv-x="461" vert-adv-y="0" 
d="M46 309l-8 23l92 33v335h68v-315l141 51l8 -23l-149 -54v-339q19 0 60 6l166 25v-51h-294v339z" />
    <glyph glyph-name="Nacute" unicode="&#x143;" horiz-adv-x="822" vert-adv-y="1160" 
d="M115 0l25 714h12l503 -608h6l-22 594h68l-25 -714h-12l-503 608h-6l22 -594h-68zM350 775l97 122h90v-6l-174 -128z" />
    <glyph glyph-name="Nacute" unicode="&#x144;" horiz-adv-x="822" vert-adv-y="1160" 
d="M115 0l25 714h12l503 -608h6l-22 594h68l-25 -714h-12l-503 608h-6l22 -594h-68zM350 775l97 122h90v-6l-174 -128z" />
    <glyph glyph-name="uni0145" unicode="&#x145;" horiz-adv-x="822" vert-adv-y="1160" 
d="M115 0l25 714h12l503 -608h6l-22 594h68l-25 -714h-12l-503 608h-6l22 -594h-68zM362 -100q0 20 13.5 33t34.5 13q49 0 49 -70q0 -38 -18 -69t-62 -63l-11 14q37 30 49 54.5t12 56.5q-9 -12 -26 -12q-19 0 -30 12.5t-11 30.5z" />
    <glyph glyph-name="uni0145" unicode="&#x146;" horiz-adv-x="822" vert-adv-y="1160" 
d="M115 0l25 714h12l503 -608h6l-22 594h68l-25 -714h-12l-503 608h-6l22 -594h-68zM362 -100q0 20 13.5 33t34.5 13q49 0 49 -70q0 -38 -18 -69t-62 -63l-11 14q37 30 49 54.5t12 56.5q-9 -12 -26 -12q-19 0 -30 12.5t-11 30.5z" />
    <glyph glyph-name="Ncaron" unicode="&#x147;" horiz-adv-x="822" vert-adv-y="1160" 
d="M115 0l25 714h12l503 -608h6l-22 594h68l-25 -714h-12l-503 608h-6l22 -594h-68zM398 776l-121 130l13 12l121 -80l121 80l13 -12l-121 -130h-26z" />
    <glyph glyph-name="Ncaron" unicode="&#x148;" horiz-adv-x="822" vert-adv-y="1160" 
d="M115 0l25 714h12l503 -608h6l-22 594h68l-25 -714h-12l-503 608h-6l22 -594h-68zM398 776l-121 130l13 12l121 -80l121 80l13 -12l-121 -130h-26z" />
    <glyph glyph-name="Eng" unicode="&#x14a;" horiz-adv-x="822" vert-adv-y="0" 
d="M115 0l25 714h12l503 -608h6l-22 594h68l-22 -632q-4 -126 -35.5 -198.5t-109.5 -96.5l-2 6q42 23 59.5 87t18.5 185l-449 543h-6l22 -594h-68z" />
    <glyph glyph-name="Eng" unicode="&#x14b;" horiz-adv-x="822" vert-adv-y="0" 
d="M115 0l25 714h12l503 -608h6l-22 594h68l-22 -632q-4 -126 -35.5 -198.5t-109.5 -96.5l-2 6q42 23 59.5 87t18.5 185l-449 543h-6l22 -594h-68z" />
    <glyph glyph-name="Omacron" unicode="&#x14c;" horiz-adv-x="888" vert-adv-y="1160" 
d="M80 350q0 77 27.5 143.5t77 116t116 77t143.5 27.5t143.5 -27.5t116 -77t77 -116t27.5 -143.5t-27.5 -143.5t-77 -116t-116 -77t-143.5 -27.5t-143.5 27.5t-116 77t-77 116t-27.5 143.5zM156 350q0 -102 36 -178.5t101 -119t151 -42.5t151 42.5t101 119.5t36 178
t-36 177.5t-101 119.5t-151 43t-150.5 -42.5t-101 -119t-36.5 -178.5zM310 819v40h268v-40h-268z" />
    <glyph glyph-name="Omacron" unicode="&#x14d;" horiz-adv-x="888" vert-adv-y="1160" 
d="M80 350q0 77 27.5 143.5t77 116t116 77t143.5 27.5t143.5 -27.5t116 -77t77 -116t27.5 -143.5t-27.5 -143.5t-77 -116t-116 -77t-143.5 -27.5t-143.5 27.5t-116 77t-77 116t-27.5 143.5zM156 350q0 -102 36 -178.5t101 -119t151 -42.5t151 42.5t101 119.5t36 178
t-36 177.5t-101 119.5t-151 43t-150.5 -42.5t-101 -119t-36.5 -178.5zM310 819v40h268v-40h-268z" />
    <glyph glyph-name="Obreve" unicode="&#x14e;" horiz-adv-x="888" vert-adv-y="1160" 
d="M80 350q0 77 27.5 143.5t77 116t116 77t143.5 27.5t143.5 -27.5t116 -77t77 -116t27.5 -143.5t-27.5 -143.5t-77 -116t-116 -77t-143.5 -27.5t-143.5 27.5t-116 77t-77 116t-27.5 143.5zM156 350q0 -102 36 -178.5t101 -119t151 -42.5t151 42.5t101 119.5t36 178
t-36 177.5t-101 119.5t-151 43t-150.5 -42.5t-101 -119t-36.5 -178.5zM444 777q-48 0 -81.5 34t-47.5 95l17 6q25 -43 50 -60t62 -17q38 0 62.5 17t49.5 60l17 -6q-13 -61 -47 -95t-82 -34z" />
    <glyph glyph-name="Obreve" unicode="&#x14f;" horiz-adv-x="888" vert-adv-y="1160" 
d="M80 350q0 77 27.5 143.5t77 116t116 77t143.5 27.5t143.5 -27.5t116 -77t77 -116t27.5 -143.5t-27.5 -143.5t-77 -116t-116 -77t-143.5 -27.5t-143.5 27.5t-116 77t-77 116t-27.5 143.5zM156 350q0 -102 36 -178.5t101 -119t151 -42.5t151 42.5t101 119.5t36 178
t-36 177.5t-101 119.5t-151 43t-150.5 -42.5t-101 -119t-36.5 -178.5zM444 777q-48 0 -81.5 34t-47.5 95l17 6q25 -43 50 -60t62 -17q38 0 62.5 17t49.5 60l17 -6q-13 -61 -47 -95t-82 -34z" />
    <glyph glyph-name="Ohungarumlaut" unicode="&#x150;" horiz-adv-x="888" vert-adv-y="1160" 
d="M80 350q0 77 27.5 143.5t77 116t116 77t143.5 27.5t143.5 -27.5t116 -77t77 -116t27.5 -143.5t-27.5 -143.5t-77 -116t-116 -77t-143.5 -27.5t-143.5 27.5t-116 77t-77 116t-27.5 143.5zM156 350q0 -102 36 -178.5t101 -119t151 -42.5t151 42.5t101 119.5t36 178
t-36 177.5t-101 119.5t-151 43t-150.5 -42.5t-101 -119t-36.5 -178.5zM325 775l86 124h81v-6l-154 -130zM485 775l86 124h81v-6l-154 -130z" />
    <glyph glyph-name="Ohungarumlaut" unicode="&#x151;" horiz-adv-x="888" vert-adv-y="1160" 
d="M80 350q0 77 27.5 143.5t77 116t116 77t143.5 27.5t143.5 -27.5t116 -77t77 -116t27.5 -143.5t-27.5 -143.5t-77 -116t-116 -77t-143.5 -27.5t-143.5 27.5t-116 77t-77 116t-27.5 143.5zM156 350q0 -102 36 -178.5t101 -119t151 -42.5t151 42.5t101 119.5t36 178
t-36 177.5t-101 119.5t-151 43t-150.5 -42.5t-101 -119t-36.5 -178.5zM325 775l86 124h81v-6l-154 -130zM485 775l86 124h81v-6l-154 -130z" />
    <glyph glyph-name="OE" unicode="&#x152;" horiz-adv-x="933" vert-adv-y="0" 
d="M80 350q0 78 27.5 143.5t77.5 114t117 75.5t147 27q48 0 99 -10h302v-49l-175 23q-46 6 -62 6v-305q13 0 62 3l164 10v-46l-164 10q-49 3 -62 3v-335q18 0 63 6l177 23v-49h-305q-51 -10 -99 -10q-80 0 -147 27t-117 75.5t-77.5 114t-27.5 143.5zM156 350
q0 -103 36.5 -179t103 -117.5t156.5 -41.5q42 0 93 9v658q-51 9 -93 9q-90 0 -156.5 -41.5t-103 -117.5t-36.5 -179z" />
    <glyph glyph-name="OE" unicode="&#x153;" horiz-adv-x="933" vert-adv-y="0" 
d="M80 350q0 78 27.5 143.5t77.5 114t117 75.5t147 27q48 0 99 -10h302v-49l-175 23q-46 6 -62 6v-305q13 0 62 3l164 10v-46l-164 10q-49 3 -62 3v-335q18 0 63 6l177 23v-49h-305q-51 -10 -99 -10q-80 0 -147 27t-117 75.5t-77.5 114t-27.5 143.5zM156 350
q0 -103 36.5 -179t103 -117.5t156.5 -41.5q42 0 93 9v658q-51 9 -93 9q-90 0 -156.5 -41.5t-103 -117.5t-36.5 -179z" />
    <glyph glyph-name="Racute" unicode="&#x154;" horiz-adv-x="642" vert-adv-y="1160" 
d="M130 700h134q106 0 164.5 -44.5t58.5 -124.5q0 -62 -36.5 -103t-105.5 -55v-6q66 -13 108 -62t63 -121q19 -66 37.5 -102.5t41 -52.5t53.5 -23v-6h-41q-44 0 -72.5 16t-48.5 54t-38 105q-29 103 -77 146t-117 43h-6v18h6q161 0 161 148q0 146 -151 146h-66v-676h-68v700z
M221 775l97 122h90v-6l-174 -128z" />
    <glyph glyph-name="Racute" unicode="&#x155;" horiz-adv-x="642" vert-adv-y="1160" 
d="M130 700h134q106 0 164.5 -44.5t58.5 -124.5q0 -62 -36.5 -103t-105.5 -55v-6q66 -13 108 -62t63 -121q19 -66 37.5 -102.5t41 -52.5t53.5 -23v-6h-41q-44 0 -72.5 16t-48.5 54t-38 105q-29 103 -77 146t-117 43h-6v18h6q161 0 161 148q0 146 -151 146h-66v-676h-68v700z
M221 775l97 122h90v-6l-174 -128z" />
    <glyph glyph-name="uni0156" unicode="&#x156;" horiz-adv-x="642" vert-adv-y="1160" 
d="M130 700h134q106 0 164.5 -44.5t58.5 -124.5q0 -62 -36.5 -103t-105.5 -55v-6q66 -13 108 -62t63 -121q19 -66 37.5 -102.5t41 -52.5t53.5 -23v-6h-41q-44 0 -72.5 16t-48.5 54t-38 105q-29 103 -77 146t-117 43h-6v18h6q161 0 161 148q0 146 -151 146h-66v-676h-68v700z
M321 -100q0 20 13.5 33t34.5 13q49 0 49 -70q0 -38 -18 -69t-62 -63l-11 14q37 30 49 54.5t12 56.5q-9 -12 -26 -12q-19 0 -30 12.5t-11 30.5z" />
    <glyph glyph-name="uni0156" unicode="&#x157;" horiz-adv-x="642" vert-adv-y="1160" 
d="M130 700h134q106 0 164.5 -44.5t58.5 -124.5q0 -62 -36.5 -103t-105.5 -55v-6q66 -13 108 -62t63 -121q19 -66 37.5 -102.5t41 -52.5t53.5 -23v-6h-41q-44 0 -72.5 16t-48.5 54t-38 105q-29 103 -77 146t-117 43h-6v18h6q161 0 161 148q0 146 -151 146h-66v-676h-68v700z
M321 -100q0 20 13.5 33t34.5 13q49 0 49 -70q0 -38 -18 -69t-62 -63l-11 14q37 30 49 54.5t12 56.5q-9 -12 -26 -12q-19 0 -30 12.5t-11 30.5z" />
    <glyph glyph-name="Rcaron" unicode="&#x158;" horiz-adv-x="642" vert-adv-y="1160" 
d="M130 700h134q106 0 164.5 -44.5t58.5 -124.5q0 -62 -36.5 -103t-105.5 -55v-6q66 -13 108 -62t63 -121q19 -66 37.5 -102.5t41 -52.5t53.5 -23v-6h-41q-44 0 -72.5 16t-48.5 54t-38 105q-29 103 -77 146t-117 43h-6v18h6q161 0 161 148q0 146 -151 146h-66v-676h-68v700z
M269 776l-121 130l13 12l121 -80l121 80l13 -12l-121 -130h-26z" />
    <glyph glyph-name="Rcaron" unicode="&#x159;" horiz-adv-x="642" vert-adv-y="1160" 
d="M130 700h134q106 0 164.5 -44.5t58.5 -124.5q0 -62 -36.5 -103t-105.5 -55v-6q66 -13 108 -62t63 -121q19 -66 37.5 -102.5t41 -52.5t53.5 -23v-6h-41q-44 0 -72.5 16t-48.5 54t-38 105q-29 103 -77 146t-117 43h-6v18h6q161 0 161 148q0 146 -151 146h-66v-676h-68v700z
M269 776l-121 130l13 12l121 -80l121 80l13 -12l-121 -130h-26z" />
    <glyph glyph-name="Sacute" unicode="&#x15a;" horiz-adv-x="543" vert-adv-y="1160" 
d="M69 22l6 60h6q39 -34 88 -53t97 -19q68 0 110 37.5t42 100.5q0 35 -15.5 65t-51 61t-97.5 67q-43 25 -82 52.5t-64 64t-25 87.5q0 76 55 122.5t145 46.5q40 0 86 -8.5t71 -21.5l-5 -56h-6q-57 62 -146 62q-64 0 -103 -32.5t-39 -87.5q0 -41 21.5 -70.5t55.5 -53t73 -45.5
q45 -26 87.5 -55t70 -69.5t27.5 -101.5q0 -56 -26 -98.5t-73.5 -66.5t-110.5 -24q-40 0 -94 10t-103 26zM220 775l97 122h90v-6l-174 -128z" />
    <glyph glyph-name="Sacute" unicode="&#x15b;" horiz-adv-x="543" vert-adv-y="1160" 
d="M69 22l6 60h6q39 -34 88 -53t97 -19q68 0 110 37.5t42 100.5q0 35 -15.5 65t-51 61t-97.5 67q-43 25 -82 52.5t-64 64t-25 87.5q0 76 55 122.5t145 46.5q40 0 86 -8.5t71 -21.5l-5 -56h-6q-57 62 -146 62q-64 0 -103 -32.5t-39 -87.5q0 -41 21.5 -70.5t55.5 -53t73 -45.5
q45 -26 87.5 -55t70 -69.5t27.5 -101.5q0 -56 -26 -98.5t-73.5 -66.5t-110.5 -24q-40 0 -94 10t-103 26zM220 775l97 122h90v-6l-174 -128z" />
    <glyph glyph-name="Scircumflex" unicode="&#x15c;" horiz-adv-x="543" vert-adv-y="1160" 
d="M69 22l6 60h6q39 -34 88 -53t97 -19q68 0 110 37.5t42 100.5q0 35 -15.5 65t-51 61t-97.5 67q-43 25 -82 52.5t-64 64t-25 87.5q0 76 55 122.5t145 46.5q40 0 86 -8.5t71 -21.5l-5 -56h-6q-57 62 -146 62q-64 0 -103 -32.5t-39 -87.5q0 -41 21.5 -70.5t55.5 -53t73 -45.5
q45 -26 87.5 -55t70 -69.5t27.5 -101.5q0 -56 -26 -98.5t-73.5 -66.5t-110.5 -24q-40 0 -94 10t-103 26zM294 905l121 -130l-13 -12l-121 80l-121 -80l-13 12l121 130h26z" />
    <glyph glyph-name="Scircumflex" unicode="&#x15d;" horiz-adv-x="543" vert-adv-y="1160" 
d="M69 22l6 60h6q39 -34 88 -53t97 -19q68 0 110 37.5t42 100.5q0 35 -15.5 65t-51 61t-97.5 67q-43 25 -82 52.5t-64 64t-25 87.5q0 76 55 122.5t145 46.5q40 0 86 -8.5t71 -21.5l-5 -56h-6q-57 62 -146 62q-64 0 -103 -32.5t-39 -87.5q0 -41 21.5 -70.5t55.5 -53t73 -45.5
q45 -26 87.5 -55t70 -69.5t27.5 -101.5q0 -56 -26 -98.5t-73.5 -66.5t-110.5 -24q-40 0 -94 10t-103 26zM294 905l121 -130l-13 -12l-121 80l-121 -80l-13 12l121 130h26z" />
    <glyph glyph-name="Scedilla" unicode="&#x15e;" horiz-adv-x="543" vert-adv-y="1160" 
d="M69 22l6 60h6q39 -34 88 -53t97 -19q68 0 110 37.5t42 100.5q0 35 -15.5 65t-51 61t-97.5 67q-43 25 -82 52.5t-64 64t-25 87.5q0 76 55 122.5t145 46.5q40 0 86 -8.5t71 -21.5l-5 -56h-6q-57 62 -146 62q-64 0 -103 -32.5t-39 -87.5q0 -41 21.5 -70.5t55.5 -53t73 -45.5
q45 -26 87.5 -55t70 -69.5t27.5 -101.5q0 -56 -26 -98.5t-73.5 -66.5t-110.5 -24q-40 0 -94 10t-103 26zM231 -76l32 80h22l-22 -56q94 -18 94 -84q0 -38 -26 -61t-70 -23q-15 0 -30.5 3.5t-43.5 12.5l5 17q27 -9 49 -9q26 0 41 14.5t15 39.5q0 54 -66 66z" />
    <glyph glyph-name="Scedilla" unicode="&#x15f;" horiz-adv-x="543" vert-adv-y="1160" 
d="M69 22l6 60h6q39 -34 88 -53t97 -19q68 0 110 37.5t42 100.5q0 35 -15.5 65t-51 61t-97.5 67q-43 25 -82 52.5t-64 64t-25 87.5q0 76 55 122.5t145 46.5q40 0 86 -8.5t71 -21.5l-5 -56h-6q-57 62 -146 62q-64 0 -103 -32.5t-39 -87.5q0 -41 21.5 -70.5t55.5 -53t73 -45.5
q45 -26 87.5 -55t70 -69.5t27.5 -101.5q0 -56 -26 -98.5t-73.5 -66.5t-110.5 -24q-40 0 -94 10t-103 26zM231 -76l32 80h22l-22 -56q94 -18 94 -84q0 -38 -26 -61t-70 -23q-15 0 -30.5 3.5t-43.5 12.5l5 17q27 -9 49 -9q26 0 41 14.5t15 39.5q0 54 -66 66z" />
    <glyph glyph-name="Scaron" unicode="&#x160;" horiz-adv-x="543" vert-adv-y="1160" 
d="M69 22l6 60h6q39 -34 88 -53t97 -19q68 0 110 37.5t42 100.5q0 35 -15.5 65t-51 61t-97.5 67q-43 25 -82 52.5t-64 64t-25 87.5q0 76 55 122.5t145 46.5q40 0 86 -8.5t71 -21.5l-5 -56h-6q-57 62 -146 62q-64 0 -103 -32.5t-39 -87.5q0 -41 21.5 -70.5t55.5 -53t73 -45.5
q45 -26 87.5 -55t70 -69.5t27.5 -101.5q0 -56 -26 -98.5t-73.5 -66.5t-110.5 -24q-40 0 -94 10t-103 26zM268 776l-121 130l13 12l121 -80l121 80l13 -12l-121 -130h-26z" />
    <glyph glyph-name="Scaron" unicode="&#x161;" horiz-adv-x="543" vert-adv-y="1160" 
d="M69 22l6 60h6q39 -34 88 -53t97 -19q68 0 110 37.5t42 100.5q0 35 -15.5 65t-51 61t-97.5 67q-43 25 -82 52.5t-64 64t-25 87.5q0 76 55 122.5t145 46.5q40 0 86 -8.5t71 -21.5l-5 -56h-6q-57 62 -146 62q-64 0 -103 -32.5t-39 -87.5q0 -41 21.5 -70.5t55.5 -53t73 -45.5
q45 -26 87.5 -55t70 -69.5t27.5 -101.5q0 -56 -26 -98.5t-73.5 -66.5t-110.5 -24q-40 0 -94 10t-103 26zM268 776l-121 130l13 12l121 -80l121 80l13 -12l-121 -130h-26z" />
    <glyph glyph-name="uni0162" unicode="&#x162;" horiz-adv-x="648" vert-adv-y="1160" 
d="M290 0v680q-15 0 -62 -6l-196 -25v51h584v-51l-196 25q-47 6 -62 6v-680h-68zM283 -76l32 80h22l-22 -56q94 -18 94 -84q0 -38 -26 -61t-70 -23q-15 0 -30.5 3.5t-43.5 12.5l5 17q27 -9 49 -9q26 0 41 14.5t15 39.5q0 54 -66 66z" />
    <glyph glyph-name="uni0162" unicode="&#x163;" horiz-adv-x="648" vert-adv-y="1160" 
d="M290 0v680q-15 0 -62 -6l-196 -25v51h584v-51l-196 25q-47 6 -62 6v-680h-68zM283 -76l32 80h22l-22 -56q94 -18 94 -84q0 -38 -26 -61t-70 -23q-15 0 -30.5 3.5t-43.5 12.5l5 17q27 -9 49 -9q26 0 41 14.5t15 39.5q0 54 -66 66z" />
    <glyph glyph-name="Tcaron" unicode="&#x164;" horiz-adv-x="648" vert-adv-y="1160" 
d="M290 0v680q-15 0 -62 -6l-196 -25v51h584v-51l-196 25q-47 6 -62 6v-680h-68zM311 776l-121 130l13 12l121 -80l121 80l13 -12l-121 -130h-26z" />
    <glyph glyph-name="Tcaron" unicode="&#x165;" horiz-adv-x="648" vert-adv-y="1160" 
d="M290 0v680q-15 0 -62 -6l-196 -25v51h584v-51l-196 25q-47 6 -62 6v-680h-68zM311 776l-121 130l13 12l121 -80l121 80l13 -12l-121 -130h-26z" />
    <glyph glyph-name="Tbar" unicode="&#x166;" horiz-adv-x="648" vert-adv-y="0" 
d="M290 0v352h-133v24h133v304q-15 0 -62 -6l-196 -25v51h584v-51l-196 25q-47 6 -62 6v-304h133v-24h-133v-352h-68z" />
    <glyph glyph-name="Tbar" unicode="&#x167;" horiz-adv-x="648" vert-adv-y="0" 
d="M290 0v352h-133v24h133v304q-15 0 -62 -6l-196 -25v51h584v-51l-196 25q-47 6 -62 6v-304h133v-24h-133v-352h-68z" />
    <glyph glyph-name="Utilde" unicode="&#x168;" horiz-adv-x="798" vert-adv-y="1160" 
d="M120 700h68v-422q0 -121 59.5 -188.5t167.5 -67.5q68 0 118.5 26.5t78 73.5t25.5 108l-17 470h68l-17 -470q-4 -120 -71.5 -182t-192.5 -62q-135 0 -211 78.5t-76 215.5v420zM412 873q15 -10 31.5 -18.5t34.5 -8.5q16 0 32 10t37 38l15 -10q-26 -52 -48 -72t-50 -20
q-21 0 -38 8.5t-34 18.5q-15 10 -31.5 18.5t-34.5 8.5q-16 0 -32 -9.5t-37 -38.5l-15 10q26 52 48 72t50 20q21 0 38.5 -8t33.5 -19z" />
    <glyph glyph-name="Utilde" unicode="&#x169;" horiz-adv-x="798" vert-adv-y="1160" 
d="M120 700h68v-422q0 -121 59.5 -188.5t167.5 -67.5q68 0 118.5 26.5t78 73.5t25.5 108l-17 470h68l-17 -470q-4 -120 -71.5 -182t-192.5 -62q-135 0 -211 78.5t-76 215.5v420zM412 873q15 -10 31.5 -18.5t34.5 -8.5q16 0 32 10t37 38l15 -10q-26 -52 -48 -72t-50 -20
q-21 0 -38 8.5t-34 18.5q-15 10 -31.5 18.5t-34.5 8.5q-16 0 -32 -9.5t-37 -38.5l-15 10q26 52 48 72t50 20q21 0 38.5 -8t33.5 -19z" />
    <glyph glyph-name="Umacron" unicode="&#x16a;" horiz-adv-x="798" vert-adv-y="1160" 
d="M120 700h68v-422q0 -121 59.5 -188.5t167.5 -67.5q68 0 118.5 26.5t78 73.5t25.5 108l-17 470h68l-17 -470q-4 -120 -71.5 -182t-192.5 -62q-135 0 -211 78.5t-76 215.5v420zM269 819v40h268v-40h-268z" />
    <glyph glyph-name="Umacron" unicode="&#x16b;" horiz-adv-x="798" vert-adv-y="1160" 
d="M120 700h68v-422q0 -121 59.5 -188.5t167.5 -67.5q68 0 118.5 26.5t78 73.5t25.5 108l-17 470h68l-17 -470q-4 -120 -71.5 -182t-192.5 -62q-135 0 -211 78.5t-76 215.5v420zM269 819v40h268v-40h-268z" />
    <glyph glyph-name="Ubreve" unicode="&#x16c;" horiz-adv-x="798" vert-adv-y="1160" 
d="M120 700h68v-422q0 -121 59.5 -188.5t167.5 -67.5q68 0 118.5 26.5t78 73.5t25.5 108l-17 470h68l-17 -470q-4 -120 -71.5 -182t-192.5 -62q-135 0 -211 78.5t-76 215.5v420zM403 777q-48 0 -81.5 34t-47.5 95l17 6q25 -43 50 -60t62 -17q38 0 62.5 17t49.5 60l17 -6
q-13 -61 -47 -95t-82 -34z" />
    <glyph glyph-name="Ubreve" unicode="&#x16d;" horiz-adv-x="798" vert-adv-y="1160" 
d="M120 700h68v-422q0 -121 59.5 -188.5t167.5 -67.5q68 0 118.5 26.5t78 73.5t25.5 108l-17 470h68l-17 -470q-4 -120 -71.5 -182t-192.5 -62q-135 0 -211 78.5t-76 215.5v420zM403 777q-48 0 -81.5 34t-47.5 95l17 6q25 -43 50 -60t62 -17q38 0 62.5 17t49.5 60l17 -6
q-13 -61 -47 -95t-82 -34z" />
    <glyph glyph-name="Uring" unicode="&#x16e;" horiz-adv-x="798" vert-adv-y="1160" 
d="M120 700h68v-422q0 -121 59.5 -188.5t167.5 -67.5q68 0 118.5 26.5t78 73.5t25.5 108l-17 470h68l-17 -470q-4 -120 -71.5 -182t-192.5 -62q-135 0 -211 78.5t-76 215.5v420zM309 836q0 38 26.5 63t67.5 25t67.5 -25t26.5 -63t-26.5 -63t-67.5 -25t-67.5 25t-26.5 63z
M403 906q-21 0 -34.5 -19.5t-13.5 -50.5t13.5 -50.5t34.5 -19.5q20 0 34 19.5t14 50.5t-14 50.5t-34 19.5z" />
    <glyph glyph-name="Uring" unicode="&#x16f;" horiz-adv-x="798" vert-adv-y="1160" 
d="M120 700h68v-422q0 -121 59.5 -188.5t167.5 -67.5q68 0 118.5 26.5t78 73.5t25.5 108l-17 470h68l-17 -470q-4 -120 -71.5 -182t-192.5 -62q-135 0 -211 78.5t-76 215.5v420zM309 836q0 38 26.5 63t67.5 25t67.5 -25t26.5 -63t-26.5 -63t-67.5 -25t-67.5 25t-26.5 63z
M403 906q-21 0 -34.5 -19.5t-13.5 -50.5t13.5 -50.5t34.5 -19.5q20 0 34 19.5t14 50.5t-14 50.5t-34 19.5z" />
    <glyph glyph-name="Uhungarumlaut" unicode="&#x170;" horiz-adv-x="798" vert-adv-y="1160" 
d="M120 700h68v-422q0 -121 59.5 -188.5t167.5 -67.5q68 0 118.5 26.5t78 73.5t25.5 108l-17 470h68l-17 -470q-4 -120 -71.5 -182t-192.5 -62q-135 0 -211 78.5t-76 215.5v420zM284 775l86 124h81v-6l-154 -130zM444 775l86 124h81v-6l-154 -130z" />
    <glyph glyph-name="Uhungarumlaut" unicode="&#x171;" horiz-adv-x="798" vert-adv-y="1160" 
d="M120 700h68v-422q0 -121 59.5 -188.5t167.5 -67.5q68 0 118.5 26.5t78 73.5t25.5 108l-17 470h68l-17 -470q-4 -120 -71.5 -182t-192.5 -62q-135 0 -211 78.5t-76 215.5v420zM284 775l86 124h81v-6l-154 -130zM444 775l86 124h81v-6l-154 -130z" />
    <glyph glyph-name="Uogonek" unicode="&#x172;" horiz-adv-x="798" vert-adv-y="1160" 
d="M120 700h68v-422q0 -121 59.5 -188.5t167.5 -67.5q68 0 118.5 26.5t78 73.5t25.5 108l-17 470h68l-17 -470q-4 -120 -71.5 -182t-192.5 -62q-135 0 -211 78.5t-76 215.5v420zM497 -178q-38 -42 -82 -42q-37 0 -59 23.5t-22 61.5t24.5 72t79.5 73h9l2 -10
q-55 -64 -55 -118q0 -28 12.5 -45t34.5 -17q23 0 45 16z" />
    <glyph glyph-name="Uogonek" unicode="&#x173;" horiz-adv-x="798" vert-adv-y="1160" 
d="M120 700h68v-422q0 -121 59.5 -188.5t167.5 -67.5q68 0 118.5 26.5t78 73.5t25.5 108l-17 470h68l-17 -470q-4 -120 -71.5 -182t-192.5 -62q-135 0 -211 78.5t-76 215.5v420zM497 -178q-38 -42 -82 -42q-37 0 -59 23.5t-22 61.5t24.5 72t79.5 73h9l2 -10
q-55 -64 -55 -118q0 -28 12.5 -45t34.5 -17q23 0 45 16z" />
    <glyph glyph-name="Wcircumflex" unicode="&#x174;" horiz-adv-x="1053" vert-adv-y="1160" 
d="M32 700h73l245 -612h6l160 396l-87 216h73l244 -610h6l202 610h73l-288 -714h-22l-187 465l-188 -465h-22zM509 905l121 -130l-13 -12l-121 80l-121 -80l-13 12l121 130h26z" />
    <glyph glyph-name="Wcircumflex" unicode="&#x175;" horiz-adv-x="1053" vert-adv-y="1160" 
d="M32 700h73l245 -612h6l160 396l-87 216h73l244 -610h6l202 610h73l-288 -714h-22l-187 465l-188 -465h-22zM509 905l121 -130l-13 -12l-121 80l-121 -80l-13 12l121 130h26z" />
    <glyph glyph-name="Ycircumflex" unicode="&#x176;" horiz-adv-x="617" vert-adv-y="1160" 
d="M280 0v296l-248 404h76l223 -366h6l178 366h76l-239 -390v-310h-72zM325 905l121 -130l-13 -12l-121 80l-121 -80l-13 12l121 130h26z" />
    <glyph glyph-name="Ycircumflex" unicode="&#x177;" horiz-adv-x="617" vert-adv-y="1160" 
d="M280 0v296l-248 404h76l223 -366h6l178 366h76l-239 -390v-310h-72zM325 905l121 -130l-13 -12l-121 80l-121 -80l-13 12l121 130h26z" />
    <glyph glyph-name="Zacute" unicode="&#x179;" horiz-adv-x="631" vert-adv-y="1160" 
d="M575 0h-530v20l446 660q-16 0 -73 -4l-347 -25v49h500v-20l-446 -660q17 0 73 4l377 27v-51zM267 775l97 122h90v-6l-174 -128z" />
    <glyph glyph-name="Zacute" unicode="&#x17a;" horiz-adv-x="631" vert-adv-y="1160" 
d="M575 0h-530v20l446 660q-16 0 -73 -4l-347 -25v49h500v-20l-446 -660q17 0 73 4l377 27v-51zM267 775l97 122h90v-6l-174 -128z" />
    <glyph glyph-name="Zdotaccent" unicode="&#x17b;" horiz-adv-x="631" vert-adv-y="1160" 
d="M575 0h-530v20l446 660q-16 0 -73 -4l-347 -25v49h500v-20l-446 -660q17 0 73 4l377 27v-51zM280 845q0 21 13.5 34.5t34.5 13.5t34.5 -13.5t13.5 -34.5t-13.5 -34.5t-34.5 -13.5t-34.5 13.5t-13.5 34.5z" />
    <glyph glyph-name="Zdotaccent" unicode="&#x17c;" horiz-adv-x="631" vert-adv-y="1160" 
d="M575 0h-530v20l446 660q-16 0 -73 -4l-347 -25v49h500v-20l-446 -660q17 0 73 4l377 27v-51zM280 845q0 21 13.5 34.5t34.5 13.5t34.5 -13.5t13.5 -34.5t-13.5 -34.5t-34.5 -13.5t-34.5 13.5t-13.5 34.5z" />
    <glyph glyph-name="Zcaron" unicode="&#x17d;" horiz-adv-x="631" vert-adv-y="1160" 
d="M575 0h-530v20l446 660q-16 0 -73 -4l-347 -25v49h500v-20l-446 -660q17 0 73 4l377 27v-51zM315 776l-121 130l13 12l121 -80l121 80l13 -12l-121 -130h-26z" />
    <glyph glyph-name="Zcaron" unicode="&#x17e;" horiz-adv-x="631" vert-adv-y="1160" 
d="M575 0h-530v20l446 660q-16 0 -73 -4l-347 -25v49h500v-20l-446 -660q17 0 73 4l377 27v-51zM315 776l-121 130l13 12l121 -80l121 80l13 -12l-121 -130h-26z" />
    <glyph glyph-name="uni018F" unicode="&#x18f;" horiz-adv-x="789" vert-adv-y="0" 
d="M384 -15q-69 0 -127.5 26t-101.5 73t-67 111t-24 140v10h579v11q0 104 -34.5 178.5t-97.5 115t-151 40.5q-57 0 -114 -17.5t-104 -52.5h-6l-5 56q28 11 68 19.5t82.5 13.5t78.5 5q107 0 188 -45t126 -125.5t45 -187.5q0 -79 -25 -147t-70.5 -118t-106.5 -78t-133 -28z
M384 9q73 0 129 38.5t89.5 109t39.5 164.5h-502q2 -97 32.5 -167t84.5 -107.5t127 -37.5z" />
    <glyph glyph-name="uni018F" unicode="&#x259;" horiz-adv-x="789" vert-adv-y="0" 
d="M384 -15q-69 0 -127.5 26t-101.5 73t-67 111t-24 140v10h579v11q0 104 -34.5 178.5t-97.5 115t-151 40.5q-57 0 -114 -17.5t-104 -52.5h-6l-5 56q28 11 68 19.5t82.5 13.5t78.5 5q107 0 188 -45t126 -125.5t45 -187.5q0 -79 -25 -147t-70.5 -118t-106.5 -78t-133 -28z
M384 9q73 0 129 38.5t89.5 109t39.5 164.5h-502q2 -97 32.5 -167t84.5 -107.5t127 -37.5z" />
    <glyph glyph-name="florin" unicode="&#x192;" horiz-adv-x="415" vert-adv-y="0" 
d="M106 83l40 325h-89l3 24h89l14 112q21 170 158 170q21 0 42.5 -4.5t45.5 -17.5l-12 -53h-6q-18 32 -34.5 41.5t-35.5 9.5q-36 0 -60.5 -29.5t-31.5 -88.5l-17 -140h130l-3 -24h-130l-39 -318q-18 -149 -71.5 -226t-149.5 -91l-2 6q68 27 105.5 104t53.5 200z" />
    <glyph glyph-name="uni019D" unicode="&#x19d;" horiz-adv-x="780" vert-adv-y="0" 
d="M117 65l23 649h12l503 -608h6l-22 594h68l-25 -714h-12l-503 608h-6l20 -530q3 -68 -10 -128t-45 -103t-86 -60l-2 6q32 23 47.5 55.5t22 87t9.5 143.5z" />
    <glyph glyph-name="uni019D" unicode="&#x272;" horiz-adv-x="780" vert-adv-y="0" 
d="M117 65l23 649h12l503 -608h6l-22 594h68l-25 -714h-12l-503 608h-6l20 -530q3 -68 -10 -128t-45 -103t-86 -60l-2 6q32 23 47.5 55.5t22 87t9.5 143.5z" />
    <glyph glyph-name="uni01CD" unicode="&#x1cd;" horiz-adv-x="658" vert-adv-y="1160" 
d="M26 0l269 700h62l269 -700h-73l-124 328h-227l-103 -328h-73zM302 648l-93 -296h211l-112 296h-6zM316 776l-121 130l13 12l121 -80l121 80l13 -12l-121 -130h-26z" />
    <glyph glyph-name="uni01CD" unicode="&#x1ce;" horiz-adv-x="658" vert-adv-y="1160" 
d="M26 0l269 700h62l269 -700h-73l-124 328h-227l-103 -328h-73zM302 648l-93 -296h211l-112 296h-6zM316 776l-121 130l13 12l121 -80l121 80l13 -12l-121 -130h-26z" />
    <glyph glyph-name="uni01D1" unicode="&#x1d1;" horiz-adv-x="888" vert-adv-y="1160" 
d="M80 350q0 77 27.5 143.5t77 116t116 77t143.5 27.5t143.5 -27.5t116 -77t77 -116t27.5 -143.5t-27.5 -143.5t-77 -116t-116 -77t-143.5 -27.5t-143.5 27.5t-116 77t-77 116t-27.5 143.5zM156 350q0 -102 36 -178.5t101 -119t151 -42.5t151 42.5t101 119.5t36 178
t-36 177.5t-101 119.5t-151 43t-150.5 -42.5t-101 -119t-36.5 -178.5zM431 776l-121 130l13 12l121 -80l121 80l13 -12l-121 -130h-26z" />
    <glyph glyph-name="uni01D1" unicode="&#x1d2;" horiz-adv-x="888" vert-adv-y="1160" 
d="M80 350q0 77 27.5 143.5t77 116t116 77t143.5 27.5t143.5 -27.5t116 -77t77 -116t27.5 -143.5t-27.5 -143.5t-77 -116t-116 -77t-143.5 -27.5t-143.5 27.5t-116 77t-77 116t-27.5 143.5zM156 350q0 -102 36 -178.5t101 -119t151 -42.5t151 42.5t101 119.5t36 178
t-36 177.5t-101 119.5t-151 43t-150.5 -42.5t-101 -119t-36.5 -178.5zM431 776l-121 130l13 12l121 -80l121 80l13 -12l-121 -130h-26z" />
    <glyph glyph-name="Gcaron" unicode="&#x1e6;" horiz-adv-x="832" vert-adv-y="1160" 
d="M479 332v24h253v-272q-46 -46 -112.5 -72t-148.5 -26q-84 0 -155 27.5t-124 77t-82.5 115.5t-29.5 144t29.5 144t82.5 115.5t124 77t155 27.5q36 0 78.5 -5t81.5 -13.5t66 -20.5l-5 -56h-6q-40 35 -96 53t-119 18q-94 0 -165 -42.5t-110.5 -119t-39.5 -178.5t39.5 -178.5
t110.5 -119t165 -42.5q58 0 107.5 16t85.5 46v260h-185zM457 776l-121 130l13 12l121 -80l121 80l13 -12l-121 -130h-26z" />
    <glyph glyph-name="Gcaron" unicode="&#x1e7;" horiz-adv-x="832" vert-adv-y="1160" 
d="M479 332v24h253v-272q-46 -46 -112.5 -72t-148.5 -26q-84 0 -155 27.5t-124 77t-82.5 115.5t-29.5 144t29.5 144t82.5 115.5t124 77t155 27.5q36 0 78.5 -5t81.5 -13.5t66 -20.5l-5 -56h-6q-40 35 -96 53t-119 18q-94 0 -165 -42.5t-110.5 -119t-39.5 -178.5t39.5 -178.5
t110.5 -119t165 -42.5q58 0 107.5 16t85.5 46v260h-185zM457 776l-121 130l13 12l121 -80l121 80l13 -12l-121 -130h-26z" />
    <glyph glyph-name="uni01EA" unicode="&#x1ea;" horiz-adv-x="888" vert-adv-y="1160" 
d="M80 350q0 77 27.5 143.5t77 116t116 77t143.5 27.5t143.5 -27.5t116 -77t77 -116t27.5 -143.5t-27.5 -143.5t-77 -116t-116 -77t-143.5 -27.5t-143.5 27.5t-116 77t-77 116t-27.5 143.5zM156 350q0 -102 36 -178.5t101 -119t151 -42.5t151 42.5t101 119.5t36 178
t-36 177.5t-101 119.5t-151 43t-150.5 -42.5t-101 -119t-36.5 -178.5zM530 -178q-38 -42 -82 -42q-37 0 -59 23.5t-22 61.5t24.5 72t79.5 73h9l2 -10q-55 -64 -55 -118q0 -28 12.5 -45t34.5 -17q23 0 45 16z" />
    <glyph glyph-name="uni01EA" unicode="&#x1eb;" horiz-adv-x="888" vert-adv-y="1160" 
d="M80 350q0 77 27.5 143.5t77 116t116 77t143.5 27.5t143.5 -27.5t116 -77t77 -116t27.5 -143.5t-27.5 -143.5t-77 -116t-116 -77t-143.5 -27.5t-143.5 27.5t-116 77t-77 116t-27.5 143.5zM156 350q0 -102 36 -178.5t101 -119t151 -42.5t151 42.5t101 119.5t36 178
t-36 177.5t-101 119.5t-151 43t-150.5 -42.5t-101 -119t-36.5 -178.5zM530 -178q-38 -42 -82 -42q-37 0 -59 23.5t-22 61.5t24.5 72t79.5 73h9l2 -10q-55 -64 -55 -118q0 -28 12.5 -45t34.5 -17q23 0 45 16z" />
    <glyph glyph-name="AEacute" unicode="&#x1fc;" horiz-adv-x="815" vert-adv-y="1160" 
d="M10 0l414 700h308v-49l-175 23q-46 6 -62 6v-305q13 0 62 3l164 10v-46l-164 10q-49 3 -62 3v-335q18 0 63 6l177 23v-49h-308v298h-186l-155 -298h-76zM421 646l-168 -324h174v324h-6zM458 775l97 122h90v-6l-174 -128z" />
    <glyph glyph-name="AEacute" unicode="&#x1fd;" horiz-adv-x="815" vert-adv-y="1160" 
d="M10 0l414 700h308v-49l-175 23q-46 6 -62 6v-305q13 0 62 3l164 10v-46l-164 10q-49 3 -62 3v-335q18 0 63 6l177 23v-49h-308v298h-186l-155 -298h-76zM421 646l-168 -324h174v324h-6zM458 775l97 122h90v-6l-174 -128z" />
    <glyph glyph-name="Oslashacute" unicode="&#x1fe;" horiz-adv-x="888" vert-adv-y="1160" 
d="M191 -63l59 102q-77 48 -123.5 129.5t-46.5 181.5q0 77 27.5 143.5t77 116t116 77t143.5 27.5q47 0 90.5 -10.5t81.5 -30.5l53 93l22 -12l-54 -93q78 -47 124.5 -128.5t46.5 -182.5q0 -77 -27.5 -143.5t-77 -116t-116 -77t-143.5 -27.5q-47 0 -90.5 10.5t-81.5 30.5
l-59 -102zM156 350q0 -92 29.5 -163.5t82.5 -115.5l331 573q-67 46 -155 46q-86 0 -150.5 -42.5t-101 -119t-36.5 -178.5zM732 350q0 91 -30 163t-83 116l-331 -573q68 -46 156 -46q86 0 151 42.5t101 119.5t36 178zM383 775l97 122h90v-6l-174 -128z" />
    <glyph glyph-name="Oslashacute" unicode="&#x1ff;" horiz-adv-x="888" vert-adv-y="1160" 
d="M191 -63l59 102q-77 48 -123.5 129.5t-46.5 181.5q0 77 27.5 143.5t77 116t116 77t143.5 27.5q47 0 90.5 -10.5t81.5 -30.5l53 93l22 -12l-54 -93q78 -47 124.5 -128.5t46.5 -182.5q0 -77 -27.5 -143.5t-77 -116t-116 -77t-143.5 -27.5q-47 0 -90.5 10.5t-81.5 30.5
l-59 -102zM156 350q0 -92 29.5 -163.5t82.5 -115.5l331 573q-67 46 -155 46q-86 0 -150.5 -42.5t-101 -119t-36.5 -178.5zM732 350q0 91 -30 163t-83 116l-331 -573q68 -46 156 -46q86 0 151 42.5t101 119.5t36 178zM383 775l97 122h90v-6l-174 -128z" />
    <glyph glyph-name="uni0218" unicode="&#x218;" horiz-adv-x="543" vert-adv-y="1160" 
d="M69 22l6 60h6q39 -34 88 -53t97 -19q68 0 110 37.5t42 100.5q0 35 -15.5 65t-51 61t-97.5 67q-43 25 -82 52.5t-64 64t-25 87.5q0 76 55 122.5t145 46.5q40 0 86 -8.5t71 -21.5l-5 -56h-6q-57 62 -146 62q-64 0 -103 -32.5t-39 -87.5q0 -41 21.5 -70.5t55.5 -53t73 -45.5
q45 -26 87.5 -55t70 -69.5t27.5 -101.5q0 -56 -26 -98.5t-73.5 -66.5t-110.5 -24q-40 0 -94 10t-103 26zM223 -100q0 20 13.5 33t34.5 13q49 0 49 -70q0 -38 -18 -69t-62 -63l-11 14q37 30 49 54.5t12 56.5q-9 -12 -26 -12q-19 0 -30 12.5t-11 30.5z" />
    <glyph glyph-name="uni0218" unicode="&#x219;" horiz-adv-x="543" vert-adv-y="1160" 
d="M69 22l6 60h6q39 -34 88 -53t97 -19q68 0 110 37.5t42 100.5q0 35 -15.5 65t-51 61t-97.5 67q-43 25 -82 52.5t-64 64t-25 87.5q0 76 55 122.5t145 46.5q40 0 86 -8.5t71 -21.5l-5 -56h-6q-57 62 -146 62q-64 0 -103 -32.5t-39 -87.5q0 -41 21.5 -70.5t55.5 -53t73 -45.5
q45 -26 87.5 -55t70 -69.5t27.5 -101.5q0 -56 -26 -98.5t-73.5 -66.5t-110.5 -24q-40 0 -94 10t-103 26zM223 -100q0 20 13.5 33t34.5 13q49 0 49 -70q0 -38 -18 -69t-62 -63l-11 14q37 30 49 54.5t12 56.5q-9 -12 -26 -12q-19 0 -30 12.5t-11 30.5z" />
    <glyph glyph-name="uni021A" unicode="&#x21a;" horiz-adv-x="648" vert-adv-y="1160" 
d="M290 0v680q-15 0 -62 -6l-196 -25v51h584v-51l-196 25q-47 6 -62 6v-680h-68zM275 -100q0 20 13.5 33t34.5 13q49 0 49 -70q0 -38 -18 -69t-62 -63l-11 14q37 30 49 54.5t12 56.5q-9 -12 -26 -12q-19 0 -30 12.5t-11 30.5z" />
    <glyph glyph-name="uni021A" unicode="&#x21b;" horiz-adv-x="648" vert-adv-y="1160" 
d="M290 0v680q-15 0 -62 -6l-196 -25v51h584v-51l-196 25q-47 6 -62 6v-680h-68zM275 -100q0 20 13.5 33t34.5 13q49 0 49 -70q0 -38 -18 -69t-62 -63l-11 14q37 30 49 54.5t12 56.5q-9 -12 -26 -12q-19 0 -30 12.5t-11 30.5z" />
    <glyph glyph-name="uni0232" unicode="&#x232;" horiz-adv-x="617" vert-adv-y="1160" 
d="M280 0v296l-248 404h76l223 -366h6l178 366h76l-239 -390v-310h-72zM178 819v40h268v-40h-268z" />
    <glyph glyph-name="uni0232" unicode="&#x233;" horiz-adv-x="617" vert-adv-y="1160" 
d="M280 0v296l-248 404h76l223 -366h6l178 366h76l-239 -390v-310h-72zM178 819v40h268v-40h-268z" />
    <glyph glyph-name="quoteleft" unicode="&#x2bb;" horiz-adv-x="264" vert-adv-y="0" 
d="M189 523q0 -23 -15 -37.5t-39 -14.5q-28 0 -42.5 21t-14.5 58q0 49 24.5 91.5t68.5 72.5l10 -15q-69 -52 -73 -146q12 19 35 19q21 0 33.5 -14t12.5 -35z" />
    <glyph glyph-name="quoteleft" unicode="&#x2018;" horiz-adv-x="264" vert-adv-y="0" 
d="M189 523q0 -23 -15 -37.5t-39 -14.5q-28 0 -42.5 21t-14.5 58q0 49 24.5 91.5t68.5 72.5l10 -15q-69 -52 -73 -146q12 19 35 19q21 0 33.5 -14t12.5 -35z" />
    <glyph glyph-name="quoteright" unicode="&#x2bc;" horiz-adv-x="264" vert-adv-y="0" 
d="M75 658q0 23 15 37.5t39 14.5q28 0 42.5 -20.5t14.5 -58.5q0 -49 -24.5 -91.5t-68.5 -72.5l-10 15q69 52 73 146q-12 -19 -35 -19q-21 0 -33.5 14t-12.5 35z" />
    <glyph glyph-name="quoteright" unicode="&#x2019;" horiz-adv-x="264" vert-adv-y="0" 
d="M75 658q0 23 15 37.5t39 14.5q28 0 42.5 -20.5t14.5 -58.5q0 -49 -24.5 -91.5t-68.5 -72.5l-10 15q69 52 73 146q-12 -19 -35 -19q-21 0 -33.5 14t-12.5 35z" />
    <glyph glyph-name="circumflex" unicode="&#x2c6;" horiz-adv-x="408" vert-adv-y="0" 
d="M217 905l121 -130l-13 -12l-121 80l-121 -80l-13 12l121 130h26z" />
    <glyph glyph-name="caron" unicode="&#x2c7;" horiz-adv-x="408" vert-adv-y="0" 
d="M191 776l-121 130l13 12l121 -80l121 80l13 -12l-121 -130h-26z" />
    <glyph glyph-name="breve" unicode="&#x2d8;" horiz-adv-x="398" vert-adv-y="0" 
d="M199 777q-48 0 -81.5 34t-47.5 95l17 6q25 -43 50 -60t62 -17q38 0 62.5 17t49.5 60l17 -6q-13 -61 -47 -95t-82 -34z" />
    <glyph glyph-name="dotaccent" unicode="&#x2d9;" horiz-adv-x="236" vert-adv-y="0" 
d="M70 845q0 21 13.5 34.5t34.5 13.5t34.5 -13.5t13.5 -34.5t-13.5 -34.5t-34.5 -13.5t-34.5 13.5t-13.5 34.5z" />
    <glyph glyph-name="ring" unicode="&#x2da;" horiz-adv-x="308" vert-adv-y="0" 
d="M60 836q0 38 26.5 63t67.5 25t67.5 -25t26.5 -63t-26.5 -63t-67.5 -25t-67.5 25t-26.5 63zM154 906q-21 0 -34.5 -19.5t-13.5 -50.5t13.5 -50.5t34.5 -19.5q20 0 34 19.5t14 50.5t-14 50.5t-34 19.5z" />
    <glyph glyph-name="ogonek" unicode="&#x2db;" horiz-adv-x="265" vert-adv-y="0" 
d="M233 -178q-38 -42 -82 -42q-37 0 -59 23.5t-22 61.5t24.5 72t79.5 73h9l2 -10q-55 -64 -55 -118q0 -28 12.5 -45t34.5 -17q23 0 45 16z" />
    <glyph glyph-name="tilde" unicode="&#x2dc;" horiz-adv-x="404" vert-adv-y="0" 
d="M212 873q15 -10 31.5 -18.5t34.5 -8.5q16 0 32 10t37 38l15 -10q-26 -52 -48 -72t-50 -20q-21 0 -38 8.5t-34 18.5q-15 10 -31.5 18.5t-34.5 8.5q-16 0 -32 -9.5t-37 -38.5l-15 10q26 52 48 72t50 20q21 0 38.5 -8t33.5 -19z" />
    <glyph glyph-name="hungarumlaut" unicode="&#x2dd;" horiz-adv-x="425" vert-adv-y="0" 
d="M30 765l86 124h81v-6l-154 -130zM190 765l86 124h81v-6l-154 -130z" />
    <glyph glyph-name="gravecomb" unicode="&#x300;" horiz-adv-x="0" vert-adv-y="1160" 
d="M205 775l-13 -12l-174 128v6h90z" />
    <glyph glyph-name="acutecomb" unicode="&#x301;" horiz-adv-x="0" vert-adv-y="0" 
d="M30 775l97 122h90v-6l-174 -128z" />
    <glyph glyph-name="uni0302" unicode="&#x302;" horiz-adv-x="0" vert-adv-y="1160" 
d="M217 905l121 -130l-13 -12l-121 80l-121 -80l-13 12l121 130h26z" />
    <glyph glyph-name="tildecomb" unicode="&#x303;" horiz-adv-x="0" vert-adv-y="0" 
d="M212 873q15 -10 31.5 -18.5t34.5 -8.5q16 0 32 10t37 38l15 -10q-26 -52 -48 -72t-50 -20q-21 0 -38 8.5t-34 18.5q-15 10 -31.5 18.5t-34.5 8.5q-16 0 -32 -9.5t-37 -38.5l-15 10q26 52 48 72t50 20q21 0 38.5 -8t33.5 -19z" />
    <glyph glyph-name="uni0304" unicode="&#x304;" horiz-adv-x="0" vert-adv-y="0" 
d="M50 819v40h268v-40h-268z" />
    <glyph glyph-name="uni0306" unicode="&#x306;" horiz-adv-x="0" vert-adv-y="0" 
d="M199 777q-48 0 -81.5 34t-47.5 95l17 6q25 -43 50 -60t62 -17q38 0 62.5 17t49.5 60l17 -6q-13 -61 -47 -95t-82 -34z" />
    <glyph glyph-name="uni0307" unicode="&#x307;" horiz-adv-x="0" vert-adv-y="0" 
d="M70 845q0 21 13.5 34.5t34.5 13.5t34.5 -13.5t13.5 -34.5t-13.5 -34.5t-34.5 -13.5t-34.5 13.5t-13.5 34.5z" />
    <glyph glyph-name="uni0308" unicode="&#x308;" horiz-adv-x="0" vert-adv-y="0" 
d="M276 845q0 20 13 32.5t32 12.5q20 0 32.5 -12.5t12.5 -32.5q0 -19 -12.5 -32t-32.5 -13q-19 0 -32 13t-13 32zM70 845q0 20 13 32.5t32 12.5q20 0 32.5 -12.5t12.5 -32.5q0 -19 -12.5 -32t-32.5 -13q-19 0 -32 13t-13 32z" />
    <glyph glyph-name="uni030A" unicode="&#x30a;" horiz-adv-x="0" vert-adv-y="0" 
d="M60 836q0 38 26.5 63t67.5 25t67.5 -25t26.5 -63t-26.5 -63t-67.5 -25t-67.5 25t-26.5 63zM154 906q-21 0 -34.5 -19.5t-13.5 -50.5t13.5 -50.5t34.5 -19.5q20 0 34 19.5t14 50.5t-14 50.5t-34 19.5z" />
    <glyph glyph-name="uni030B" unicode="&#x30b;" horiz-adv-x="0" vert-adv-y="0" 
d="M30 765l86 124h81v-6l-154 -130zM190 765l86 124h81v-6l-154 -130z" />
    <glyph glyph-name="uni030C" unicode="&#x30c;" horiz-adv-x="0" vert-adv-y="0" 
d="M191 776l-121 130l13 12l121 -80l121 80l13 -12l-121 -130h-26z" />
    <glyph glyph-name="uni0326" unicode="&#x326;" horiz-adv-x="0" vert-adv-y="0" 
d="M71 -100q0 20 13.5 33t34.5 13q49 0 49 -70q0 -38 -18 -69t-62 -63l-11 14q37 30 49 54.5t12 56.5q-9 -12 -26 -12q-19 0 -30 12.5t-11 30.5z" />
    <glyph glyph-name="uni0327" unicode="&#x327;" horiz-adv-x="0" vert-adv-y="0" 
d="M95 -76l32 80h22l-22 -56q94 -18 94 -84q0 -38 -26 -61t-70 -23q-15 0 -30.5 3.5t-43.5 12.5l5 17q27 -9 49 -9q26 0 41 14.5t15 39.5q0 54 -66 66z" />
    <glyph glyph-name="uni0328" unicode="&#x328;" horiz-adv-x="0" vert-adv-y="0" 
d="M233 -178q-38 -42 -82 -42q-37 0 -59 23.5t-22 61.5t24.5 72t79.5 73h9l2 -10q-55 -64 -55 -118q0 -28 12.5 -45t34.5 -17q23 0 45 16z" />
    <glyph glyph-name="uni0394" unicode="&#x394;" horiz-adv-x="659" vert-adv-y="0" 
d="M26 0l269 700h63l269 -700h-601zM301 646l-193 -618h435l-236 618h-6z" />
    <glyph glyph-name="uni0394" unicode="&#x2206;" horiz-adv-x="659" vert-adv-y="0" 
d="M26 0l269 700h63l269 -700h-601zM301 646l-193 -618h435l-236 618h-6z" />
    <glyph glyph-name="uni0394" unicode="&#x3b4;" horiz-adv-x="659" vert-adv-y="0" 
d="M26 0l269 700h63l269 -700h-601zM301 646l-193 -618h435l-236 618h-6z" />
    <glyph glyph-name="uni03A9" unicode="&#x3a9;" horiz-adv-x="870" vert-adv-y="0" 
d="M68 0v60h256l-4 33q-116 38 -178.5 120.5t-62.5 191.5q0 92 44.5 161.5t125 108.5t186.5 39q107 0 187 -39t124.5 -108.5t44.5 -161.5q0 -109 -62.5 -191.5t-178.5 -120.5l-4 -33h256v-60h-290l14 103q189 109 189 303q0 86 -35 149.5t-98 99t-147 35.5t-147 -35.5
t-98 -99t-35 -149.5q0 -194 189 -303l14 -103h-290z" />
    <glyph glyph-name="uni03A9" unicode="&#x3c9;" horiz-adv-x="870" vert-adv-y="0" 
d="M68 0v60h256l-4 33q-116 38 -178.5 120.5t-62.5 191.5q0 92 44.5 161.5t125 108.5t186.5 39q107 0 187 -39t124.5 -108.5t44.5 -161.5q0 -109 -62.5 -191.5t-178.5 -120.5l-4 -33h256v-60h-290l14 103q189 109 189 303q0 86 -35 149.5t-98 99t-147 35.5t-147 -35.5
t-98 -99t-35 -149.5q0 -194 189 -303l14 -103h-290z" />
    <glyph glyph-name="pi" unicode="&#x3c0;" horiz-adv-x="616" vert-adv-y="0" 
d="M122 0l43 438h-36q-40 0 -61.5 -12.5t-33.5 -42.5l-17 6q14 54 43 78.5t78 24.5h433v-54h-121l11 -328q2 -34 12 -48t29 -14q34 0 50 41l17 -7q-16 -51 -36.5 -70.5t-50.5 -19.5q-41 0 -63.5 28.5t-20.5 76.5l12 341h-222v-438h-66z" />
    <glyph glyph-name="Wgrave" unicode="&#x1e80;" horiz-adv-x="1053" vert-adv-y="1160" 
d="M32 700h73l245 -612h6l160 396l-87 216h73l244 -610h6l202 610h73l-288 -714h-22l-187 465l-188 -465h-22zM553 775l-13 -12l-174 128v6h90z" />
    <glyph glyph-name="Wgrave" unicode="&#x1e81;" horiz-adv-x="1053" vert-adv-y="1160" 
d="M32 700h73l245 -612h6l160 396l-87 216h73l244 -610h6l202 610h73l-288 -714h-22l-187 465l-188 -465h-22zM553 775l-13 -12l-174 128v6h90z" />
    <glyph glyph-name="Wacute" unicode="&#x1e82;" horiz-adv-x="1053" vert-adv-y="1160" 
d="M32 700h73l245 -612h6l160 396l-87 216h73l244 -610h6l202 610h73l-288 -714h-22l-187 465l-188 -465h-22zM435 775l97 122h90v-6l-174 -128z" />
    <glyph glyph-name="Wacute" unicode="&#x1e83;" horiz-adv-x="1053" vert-adv-y="1160" 
d="M32 700h73l245 -612h6l160 396l-87 216h73l244 -610h6l202 610h73l-288 -714h-22l-187 465l-188 -465h-22zM435 775l97 122h90v-6l-174 -128z" />
    <glyph glyph-name="Wdieresis" unicode="&#x1e84;" horiz-adv-x="1053" vert-adv-y="1160" 
d="M32 700h73l245 -612h6l160 396l-87 216h73l244 -610h6l202 610h73l-288 -714h-22l-187 465l-188 -465h-22zM554 845q0 20 13 32.5t32 12.5q20 0 32.5 -12.5t12.5 -32.5q0 -19 -12.5 -32t-32.5 -13q-19 0 -32 13t-13 32zM348 845q0 20 13 32.5t32 12.5q20 0 32.5 -12.5
t12.5 -32.5q0 -19 -12.5 -32t-32.5 -13q-19 0 -32 13t-13 32z" />
    <glyph glyph-name="Wdieresis" unicode="&#x1e85;" horiz-adv-x="1053" vert-adv-y="1160" 
d="M32 700h73l245 -612h6l160 396l-87 216h73l244 -610h6l202 610h73l-288 -714h-22l-187 465l-188 -465h-22zM554 845q0 20 13 32.5t32 12.5q20 0 32.5 -12.5t12.5 -32.5q0 -19 -12.5 -32t-32.5 -13q-19 0 -32 13t-13 32zM348 845q0 20 13 32.5t32 12.5q20 0 32.5 -12.5
t12.5 -32.5q0 -19 -12.5 -32t-32.5 -13q-19 0 -32 13t-13 32z" />
    <glyph glyph-name="uni1EBC" unicode="&#x1ebc;" horiz-adv-x="518" vert-adv-y="1160" 
d="M130 0v700h305v-49l-175 23q-46 6 -62 6v-305q13 0 62 3l164 10v-46l-164 10q-49 3 -62 3v-335q18 0 63 6l177 23v-49h-308zM288 873q15 -10 31.5 -18.5t34.5 -8.5q16 0 32 10t37 38l15 -10q-26 -52 -48 -72t-50 -20q-21 0 -38 8.5t-34 18.5q-15 10 -31.5 18.5t-34.5 8.5
q-16 0 -32 -9.5t-37 -38.5l-15 10q26 52 48 72t50 20q21 0 38.5 -8t33.5 -19z" />
    <glyph glyph-name="uni1EBC" unicode="&#x1ebd;" horiz-adv-x="518" vert-adv-y="1160" 
d="M130 0v700h305v-49l-175 23q-46 6 -62 6v-305q13 0 62 3l164 10v-46l-164 10q-49 3 -62 3v-335q18 0 63 6l177 23v-49h-308zM288 873q15 -10 31.5 -18.5t34.5 -8.5q16 0 32 10t37 38l15 -10q-26 -52 -48 -72t-50 -20q-21 0 -38 8.5t-34 18.5q-15 10 -31.5 18.5t-34.5 8.5
q-16 0 -32 -9.5t-37 -38.5l-15 10q26 52 48 72t50 20q21 0 38.5 -8t33.5 -19z" />
    <glyph glyph-name="Ygrave" unicode="&#x1ef2;" horiz-adv-x="617" vert-adv-y="1160" 
d="M280 0v296l-248 404h76l223 -366h6l178 366h76l-239 -390v-310h-72zM369 775l-13 -12l-174 128v6h90z" />
    <glyph glyph-name="Ygrave" unicode="&#x1ef3;" horiz-adv-x="617" vert-adv-y="1160" 
d="M280 0v296l-248 404h76l223 -366h6l178 366h76l-239 -390v-310h-72zM369 775l-13 -12l-174 128v6h90z" />
    <glyph glyph-name="uni1EF8" unicode="&#x1ef8;" horiz-adv-x="617" vert-adv-y="1160" 
d="M280 0v296l-248 404h76l223 -366h6l178 366h76l-239 -390v-310h-72zM321 873q15 -10 31.5 -18.5t34.5 -8.5q16 0 32 10t37 38l15 -10q-26 -52 -48 -72t-50 -20q-21 0 -38 8.5t-34 18.5q-15 10 -31.5 18.5t-34.5 8.5q-16 0 -32 -9.5t-37 -38.5l-15 10q26 52 48 72t50 20
q21 0 38.5 -8t33.5 -19z" />
    <glyph glyph-name="uni1EF8" unicode="&#x1ef9;" horiz-adv-x="617" vert-adv-y="1160" 
d="M280 0v296l-248 404h76l223 -366h6l178 366h76l-239 -390v-310h-72zM321 873q15 -10 31.5 -18.5t34.5 -8.5q16 0 32 10t37 38l15 -10q-26 -52 -48 -72t-50 -20q-21 0 -38 8.5t-34 18.5q-15 10 -31.5 18.5t-34.5 8.5q-16 0 -32 -9.5t-37 -38.5l-15 10q26 52 48 72t50 20
q21 0 38.5 -8t33.5 -19z" />
    <glyph glyph-name="endash" unicode="&#x2013;" horiz-adv-x="580" vert-adv-y="0" 
d="M40 342v30h500v-30h-500z" />
    <glyph glyph-name="emdash" unicode="&#x2014;" horiz-adv-x="1080" vert-adv-y="0" 
d="M40 342v30h1000v-30h-1000z" />
    <glyph glyph-name="quotesinglbase" unicode="&#x201a;" horiz-adv-x="264" vert-adv-y="0" 
d="M75 42q0 23 15 37.5t39 14.5q28 0 42.5 -20.5t14.5 -58.5q0 -49 -24.5 -91.5t-68.5 -72.5l-10 15q69 52 73 146q-12 -19 -35 -19q-21 0 -33.5 14t-12.5 35z" />
    <glyph glyph-name="quotedblleft" unicode="&#x201c;" horiz-adv-x="438" vert-adv-y="0" 
d="M363 523q0 -23 -15 -37.5t-39 -14.5q-28 0 -42.5 21t-14.5 58q0 49 24.5 91.5t68.5 72.5l10 -15q-69 -52 -73 -146q12 19 35 19q21 0 33.5 -14t12.5 -35zM189 523q0 -23 -15 -37.5t-39 -14.5q-28 0 -42.5 21t-14.5 58q0 49 24.5 91.5t68.5 72.5l10 -15q-69 -52 -73 -146
q12 19 35 19q21 0 33.5 -14t12.5 -35z" />
    <glyph glyph-name="quotedblright" unicode="&#x201d;" horiz-adv-x="438" vert-adv-y="0" 
d="M75 658q0 23 15 37.5t39 14.5q28 0 42.5 -20.5t14.5 -58.5q0 -49 -24.5 -91.5t-68.5 -72.5l-10 15q69 52 73 146q-12 -19 -35 -19q-21 0 -33.5 14t-12.5 35zM249 658q0 23 15 37.5t39 14.5q28 0 42.5 -20.5t14.5 -58.5q0 -49 -24.5 -91.5t-68.5 -72.5l-10 15
q69 52 73 146q-12 -19 -35 -19q-21 0 -33.5 14t-12.5 35z" />
    <glyph glyph-name="quotedblbase" unicode="&#x201e;" horiz-adv-x="438" vert-adv-y="0" 
d="M75 42q0 23 15 37.5t39 14.5q28 0 42.5 -20.5t14.5 -58.5q0 -49 -24.5 -91.5t-68.5 -72.5l-10 15q69 52 73 146q-12 -19 -35 -19q-21 0 -33.5 14t-12.5 35zM249 42q0 23 15 37.5t39 14.5q28 0 42.5 -20.5t14.5 -58.5q0 -49 -24.5 -91.5t-68.5 -72.5l-10 15q69 52 73 146
q-12 -19 -35 -19q-21 0 -33.5 14t-12.5 35z" />
    <glyph glyph-name="dagger" unicode="&#x2020;" horiz-adv-x="472" vert-adv-y="0" 
d="M227 -47l-25 456l24 108l-181 -24v68l181 -24l-24 193h68l-24 -193l181 24v-68l-181 24l24 -108l-25 -456h-18z" />
    <glyph glyph-name="daggerdbl" unicode="&#x2021;" horiz-adv-x="472" vert-adv-y="0" 
d="M45 176h181l-24 171l24 170l-181 -24v68l181 -24l-24 193h68l-24 -193l181 24v-68l-181 24l24 -170l-24 -171h181v-68l-181 48l24 -192h-68l24 192l-181 -48v68z" />
    <glyph glyph-name="bullet" unicode="&#x2022;" horiz-adv-x="412" vert-adv-y="0" 
d="M90 363q0 51 32.5 83.5t83.5 32.5t83.5 -32.5t32.5 -83.5t-32.5 -83.5t-83.5 -32.5t-83.5 32.5t-32.5 83.5z" />
    <glyph glyph-name="ellipsis" unicode="&#x2026;" horiz-adv-x="868" vert-adv-y="0" 
d="M80 42q0 23 15 37.5t37 14.5q23 0 37.5 -14.5t14.5 -37.5q0 -22 -14.5 -37t-37.5 -15q-22 0 -37 15t-15 37zM382 42q0 23 15 37.5t37 14.5q23 0 37.5 -14.5t14.5 -37.5q0 -22 -14.5 -37t-37.5 -15q-22 0 -37 15t-15 37zM684 42q0 23 15 37.5t37 14.5q23 0 37.5 -14.5
t14.5 -37.5q0 -22 -14.5 -37t-37.5 -15q-22 0 -37 15t-15 37z" />
    <glyph glyph-name="perthousand" unicode="&#x2030;" horiz-adv-x="1133" vert-adv-y="0" 
d="M44 527q0 82 40.5 132t105.5 50t105.5 -50t40.5 -132t-40.5 -132t-105.5 -50t-105.5 50t-40.5 132zM173 0l392 700h32l-392 -700h-32zM102 527q0 -77 23.5 -119.5t64.5 -42.5t64.5 42.5t23.5 119.5t-23.5 119.5t-64.5 42.5t-64.5 -42.5t-23.5 -119.5zM434 172
q0 82 40.5 132t105.5 50t105.5 -50t40.5 -132t-40.5 -132t-105.5 -50t-105.5 50t-40.5 132zM797 172q0 82 40.5 132t105.5 50t105.5 -50t40.5 -132t-40.5 -132t-105.5 -50t-105.5 50t-40.5 132zM492 172q0 -77 23.5 -119.5t64.5 -42.5t64.5 42.5t23.5 119.5t-23.5 119.5
t-64.5 42.5t-64.5 -42.5t-23.5 -119.5zM855 172q0 -77 23.5 -119.5t64.5 -42.5t64.5 42.5t23.5 119.5t-23.5 119.5t-64.5 42.5t-64.5 -42.5t-23.5 -119.5z" />
    <glyph glyph-name="minute" unicode="&#x2032;" horiz-adv-x="193" vert-adv-y="0" 
d="M141 640l-57 -168h-18v168q0 70 46 70q35 0 35 -36q0 -14 -6 -34z" />
    <glyph glyph-name="second" unicode="&#x2033;" horiz-adv-x="350" vert-adv-y="0" 
d="M141 640l-57 -168h-18v168q0 70 46 70q35 0 35 -36q0 -14 -6 -34zM298 640l-57 -168h-18v168q0 70 46 70q35 0 35 -36q0 -14 -6 -34z" />
    <glyph glyph-name="guilsinglleft" unicode="&#x2039;" horiz-adv-x="318" vert-adv-y="0" 
d="M245 154l-185 188v16l185 188l13 -12l-126 -184l126 -184z" />
    <glyph glyph-name="guilsinglright" unicode="&#x203a;" horiz-adv-x="318" vert-adv-y="0" 
d="M73 154l-13 12l126 184l-126 184l13 12l185 -188v-16z" />
    <glyph glyph-name="fraction" unicode="&#x2044;" horiz-adv-x="144" vert-adv-y="0" 
d="M-140 0l392 700h32l-392 -700h-32z" />
    <glyph glyph-name="uni2070" unicode="&#x2070;" horiz-adv-x="434" vert-adv-y="0" 
d="M62 571q0 99 42.5 159t112.5 60t112.5 -60t42.5 -159t-42.5 -159t-112.5 -60t-112.5 60t-42.5 159zM120 571q0 -94 25.5 -146.5t71.5 -52.5t71.5 52.5t25.5 146.5t-25.5 146.5t-71.5 52.5t-71.5 -52.5t-25.5 -146.5z" />
    <glyph glyph-name="uni2074" unicode="&#x2074;" horiz-adv-x="396" vert-adv-y="0" 
d="M231 362v115h-191v16l124 287h62l-162 -283h167v145h50v-145h75v-20h-75v-115h-50z" />
    <glyph glyph-name="uni2075" unicode="&#x2075;" horiz-adv-x="359" vert-adv-y="0" 
d="M51 416q55 -44 110 -44q43 0 69.5 25.5t26.5 66.5q0 45 -31 73.5t-81 38.5l-76 15l21 189h191v-46h-176l-11 -97l66 -13q64 -13 100.5 -49.5t36.5 -92.5q0 -58 -38 -94t-99 -36q-22 0 -48 5.5t-61 15.5l-3 43h3z" />
    <glyph glyph-name="uni2076" unicode="&#x2076;" horiz-adv-x="407" vert-adv-y="0" 
d="M120 533q0 -75 25.5 -118t66.5 -43q35 0 56 29t21 78q0 50 -22.5 79.5t-60.5 29.5q-10 0 -21.5 -2.5t-25.5 -10.5l-5 13q17 9 35.5 13t35.5 4q55 0 88.5 -34t33.5 -90q0 -58 -37 -93.5t-98 -35.5q-70 0 -110 47.5t-40 130.5q0 71 28.5 128.5t79.5 93.5t117 42l2 -14
q-77 -10 -123 -77.5t-46 -169.5z" />
    <glyph glyph-name="uni2077" unicode="&#x2077;" horiz-adv-x="357" vert-adv-y="0" 
d="M42 734v46h269v-16l-167 -402h-52l185 372h-235z" />
    <glyph glyph-name="uni2078" unicode="&#x2078;" horiz-adv-x="402" vert-adv-y="0" 
d="M344 459q0 -49 -39 -78t-104 -29q-64 0 -103.5 28t-39.5 75q0 40 27.5 72t74.5 49q-85 53 -85 117q0 44 34.5 70.5t91.5 26.5q56 0 91 -25t35 -64q0 -32 -23.5 -61t-67.5 -48q56 -31 82 -63t26 -70zM125 701q0 -25 19.5 -46.5t73.5 -52.5q57 30 57 94q0 35 -20 54.5
t-54 19.5q-33 0 -54.5 -18.5t-21.5 -50.5zM111 460q0 -42 25 -65t65 -23t66 22t26 59q0 19 -9.5 34.5t-34.5 34t-71 44.5q-67 -34 -67 -106z" />
    <glyph glyph-name="uni2079" unicode="&#x2079;" horiz-adv-x="404" vert-adv-y="0" 
d="M284 609q0 75 -25 118t-65 43q-34 0 -55 -28.5t-21 -76.5q0 -49 22 -78t59 -29q11 0 22 3t24 10l5 -13q-16 -9 -34.5 -13t-35.5 -4q-54 0 -87 33.5t-33 88.5q0 58 37 92.5t97 34.5q68 0 108 -47.5t40 -130.5q0 -71 -27.5 -128.5t-76 -93.5t-111.5 -42l-2 14q48 7 83.5 40
t55.5 86.5t20 120.5z" />
    <glyph glyph-name="uni2080" unicode="&#x2080;" horiz-adv-x="434" vert-adv-y="1160" 
d="M62 141q0 99 42.5 159t112.5 60t112.5 -60t42.5 -159t-42.5 -159t-112.5 -60t-112.5 60t-42.5 159zM120 141q0 -94 25.5 -146.5t71.5 -52.5t71.5 52.5t25.5 146.5t-25.5 146.5t-71.5 52.5t-71.5 -52.5t-25.5 -146.5z" />
    <glyph glyph-name="uni2081" unicode="&#x2081;" horiz-adv-x="293" vert-adv-y="1160" 
d="M139 -68v377l-96 -42l-6 13l138 80h16v-428h-52z" />
    <glyph glyph-name="uni2082" unicode="&#x2082;" horiz-adv-x="368" vert-adv-y="1160" 
d="M42 -68v16l151 190q29 36 41 61.5t12 52.5q0 41 -20.5 64.5t-55.5 23.5q-49 0 -99 -44h-4l-3 39q53 25 106 25q61 0 97.5 -28t36.5 -75q0 -28 -17.5 -56.5t-65.5 -80.5l-130 -142h220v-46h-269z" />
    <glyph glyph-name="uni2083" unicode="&#x2083;" horiz-adv-x="363" vert-adv-y="1160" 
d="M136 148h-23v20h21q46 0 70.5 22.5t24.5 65.5q0 38 -20 61t-53 23q-23 0 -50 -10.5t-44 -28.5h-4l-3 39q20 9 48 14.5t53 5.5q58 0 93.5 -28t35.5 -74q0 -36 -24.5 -61t-71.5 -36v-4q55 -9 85.5 -39t30.5 -77q0 -54 -41 -86.5t-108 -32.5q-57 0 -104 21l-4 43h4
q23 -22 50 -33t54 -11q41 0 66 27.5t25 73.5q0 50 -29.5 77.5t-81.5 27.5z" />
    <glyph glyph-name="uni2084" unicode="&#x2084;" horiz-adv-x="396" vert-adv-y="1160" 
d="M231 -68v115h-191v16l124 287h62l-162 -283h167v145h50v-145h75v-20h-75v-115h-50z" />
    <glyph glyph-name="uni2085" unicode="&#x2085;" horiz-adv-x="359" vert-adv-y="1160" 
d="M51 -14q55 -44 110 -44q43 0 69.5 25.5t26.5 66.5q0 45 -31 73.5t-81 38.5l-76 15l21 189h191v-46h-176l-11 -97l66 -13q64 -13 100.5 -49.5t36.5 -92.5q0 -58 -38 -94t-99 -36q-22 0 -48 5.5t-61 15.5l-3 43h3z" />
    <glyph glyph-name="uni2086" unicode="&#x2086;" horiz-adv-x="407" vert-adv-y="1160" 
d="M120 103q0 -75 25.5 -118t66.5 -43q35 0 56 29t21 78q0 50 -22.5 79.5t-60.5 29.5q-10 0 -21.5 -2.5t-25.5 -10.5l-5 13q17 9 35.5 13t35.5 4q55 0 88.5 -34t33.5 -90q0 -58 -37 -93.5t-98 -35.5q-70 0 -110 47.5t-40 130.5q0 71 28.5 128.5t79.5 93.5t117 42l2 -14
q-77 -10 -123 -77.5t-46 -169.5z" />
    <glyph glyph-name="uni2087" unicode="&#x2087;" horiz-adv-x="357" vert-adv-y="1160" 
d="M42 304v46h269v-16l-167 -402h-52l185 372h-235z" />
    <glyph glyph-name="uni2088" unicode="&#x2088;" horiz-adv-x="402" vert-adv-y="1160" 
d="M344 29q0 -49 -39 -78t-104 -29q-64 0 -103.5 28t-39.5 75q0 40 27.5 72t74.5 49q-85 53 -85 117q0 44 34.5 70.5t91.5 26.5q56 0 91 -25t35 -64q0 -32 -23.5 -61t-67.5 -48q56 -31 82 -63t26 -70zM125 271q0 -25 19.5 -46.5t73.5 -52.5q57 30 57 94q0 35 -20 54.5
t-54 19.5q-33 0 -54.5 -18.5t-21.5 -50.5zM111 30q0 -42 25 -65t65 -23t66 22t26 59q0 19 -9.5 34.5t-34.5 34t-71 44.5q-67 -34 -67 -106z" />
    <glyph glyph-name="uni2089" unicode="&#x2089;" horiz-adv-x="404" vert-adv-y="1160" 
d="M284 179q0 75 -25 118t-65 43q-34 0 -55 -28.5t-21 -76.5q0 -49 22 -78t59 -29q11 0 22 3t24 10l5 -13q-16 -9 -34.5 -13t-35.5 -4q-54 0 -87 33.5t-33 88.5q0 58 37 92.5t97 34.5q68 0 108 -47.5t40 -130.5q0 -71 -27.5 -128.5t-76 -93.5t-111.5 -42l-2 14q48 7 83.5 40
t55.5 86.5t20 120.5z" />
    <glyph glyph-name="Euro" unicode="&#x20ac;" horiz-adv-x="726" vert-adv-y="0" 
d="M20 288v24h80q-2 19 -2 38q0 22 2 44h-80v24h84q14 87 62 153.5t120.5 104.5t159.5 38q30 0 67 -4.5t73.5 -12.5t63.5 -20l-5 -56h-6q-37 33 -87 51t-106 18q-73 0 -129.5 -33t-92 -94t-46.5 -145h358v-24h-360q-2 -21 -2 -44q0 -20 1 -38h361v-24h-359q10 -86 46 -148
t93 -96t130 -34q62 0 114.5 22t89.5 54h6l-6 -61q-28 -12 -64.5 -21t-73 -13.5t-66.5 -4.5q-88 0 -161 39t-121 107t-61 156h-83z" />
    <glyph glyph-name="turkishlira" unicode="&#x20ba;" horiz-adv-x="578" vert-adv-y="0" 
d="M137 0v348l-99 -27v25l99 27v81l-99 -27v25l99 27v221h68v-206l194 53v-25l-194 -53v-81l194 53v-25l-194 -53v-339h34q102 0 160.5 69t58.5 189h66q0 -133 -75 -207.5t-207 -74.5h-105z" />
    <glyph glyph-name="litre" unicode="&#x2113;" horiz-adv-x="427" vert-adv-y="0" 
d="M385 53q-33 -35 -64 -51t-66 -16q-65 0 -100.5 46t-35.5 130v119q-23 -9 -46.5 -15.5t-46.5 -11.5l-4 18q27 7 51 15t46 17v224q0 86 31.5 136t86.5 50q51 0 84 -45t33 -116q0 -58 -23 -105.5t-62.5 -83.5t-87.5 -62v-136q0 -69 23.5 -106t68.5 -37q43 0 100 44zM181 546
v-219q51 36 79 93t28 148q0 122 -51 122q-56 0 -56 -144z" />
    <glyph glyph-name="soundcopyright" unicode="&#x2117;" horiz-adv-x="888" vert-adv-y="0" 
d="M80 350q0 79 27 145.5t76 115.5t115.5 76t145.5 27t145.5 -27t115.5 -76t76 -115.5t27 -145.5t-27 -145.5t-76 -115.5t-115.5 -76t-145.5 -27t-145.5 27t-115.5 76t-76 115.5t-27 145.5zM108 350q0 -74 25 -136t70.5 -107.5t106.5 -71t134 -25.5t134 25.5t106.5 71
t70.5 107.5t25 136t-25 136t-70.5 107.5t-106.5 71t-134 25.5q-97 0 -173 -44t-119.5 -121t-43.5 -175zM359 149v406h82q71 0 111.5 -30t40.5 -83t-40.5 -83t-111.5 -30h-30v-180h-52zM435 537h-24v-190h24q104 0 104 95t-104 95z" />
    <glyph glyph-name="trademark" unicode="&#x2122;" horiz-adv-x="838" vert-adv-y="0" 
d="M744 700v-352h-50v313h-3l-115 -226h-21l-134 194h-3l17 -281h-50l20 362h16l157 -228h3l111 218h52zM154 348v340l-121 -22h-3v34h298v-34h-3l-121 22v-340h-50z" />
    <glyph glyph-name="estimated" unicode="&#x212e;" horiz-adv-x="969" vert-adv-y="0" 
d="M484 714q84 0 157.5 -28.5t129 -78.5t87 -116t31.5 -141v-9h-650q-11 0 -11 -12v-178q0 -13 5.5 -26.5t15.5 -23.5q47 -46 109 -70t126 -24q74 0 142.5 32t117.5 88h60q-58 -67 -142 -104t-178 -37q-83 0 -156.5 28.5t-129 78.5t-87 116t-31.5 141t31.5 141t87 116
t129 78.5t156.5 28.5zM484 693q-64 0 -125.5 -24t-109.5 -70q-21 -21 -21 -50v-179q0 -10 11 -10h491q11 0 11 10v179q0 29 -21 50q-48 46 -109 70t-127 24z" />
    <glyph glyph-name="arrowleft" unicode="&#x2190;" horiz-adv-x="864" vert-adv-y="0" 
d="M325 584l-194 -222l643 19v-62l-643 19l194 -222l-17 -17l-248 248v6l248 248z" />
    <glyph glyph-name="arrowup" unicode="&#x2191;" horiz-adv-x="602" vert-adv-y="0" 
d="M267 0l22 643l-222 -194l-17 17l248 248h6l248 -248l-17 -17l-222 194l22 -643h-68z" />
    <glyph glyph-name="arrowright" unicode="&#x2192;" horiz-adv-x="864" vert-adv-y="0" 
d="M90 381l643 -19l-194 222l17 17l248 -248v-6l-248 -248l-17 17l194 222l-643 -19v62z" />
    <glyph glyph-name="arrowdown" unicode="&#x2193;" horiz-adv-x="602" vert-adv-y="0" 
d="M535 251l17 -17l-248 -248h-6l-248 248l17 17l222 -194l-22 643h68l-22 -643z" />
    <glyph glyph-name="arrowNW" unicode="&#x2196;" horiz-adv-x="692" vert-adv-y="0" 
d="M122 258h-24v351l4 4h351v-24l-294 -20l470 -439l-48 -48l-440 470z" />
    <glyph glyph-name="arrowNE" unicode="&#x2197;" horiz-adv-x="692" vert-adv-y="0" 
d="M112 82l-48 48l470 439l-294 20v24h351l4 -4v-351h-24l-20 294z" />
    <glyph glyph-name="arrowSE" unicode="&#x2198;" horiz-adv-x="692" vert-adv-y="0" 
d="M112 625l439 -470l20 294h24v-351l-4 -4h-351v24l294 19l-470 440z" />
    <glyph glyph-name="arrowSW" unicode="&#x2199;" horiz-adv-x="692" vert-adv-y="0" 
d="M122 449l19 -294l440 470l48 -48l-470 -440l294 -19v-24h-351l-4 4v351h24z" />
    <glyph glyph-name="partialdiff" unicode="&#x2202;" vert-adv-y="0" 
d="M258 -14q-91 0 -143.5 55t-52.5 149q0 70 28.5 123t80.5 82.5t120 29.5q84 0 149 -43q-8 87 -43.5 155.5t-94 110.5t-134.5 52l2 18q75 -7 138 -40.5t109.5 -88t72 -124.5t25.5 -150q0 -101 -31.5 -175t-89 -114t-136.5 -40zM135 172q0 -76 33.5 -119t91.5 -43
q55 0 95.5 40.5t63.5 113.5t23 172v19q-29 20 -63.5 31.5t-66.5 11.5q-53 0 -92.5 -29t-62 -79.5t-22.5 -117.5z" />
    <glyph glyph-name="product" unicode="&#x220f;" horiz-adv-x="816" vert-adv-y="0" 
d="M130 -145v845h556v-845h-68v821h-420v-821h-68z" />
    <glyph glyph-name="summation" unicode="&#x2211;" horiz-adv-x="574" vert-adv-y="0" 
d="M32 -145v20l263 392l-250 413v20h465v-51l-313 26q-60 5 -75 5l227 -377l-260 -388h435v-60h-492z" />
    <glyph glyph-name="minus" unicode="&#x2212;" vert-adv-y="0" 
d="M59 313v30h464v-30h-464z" />
    <glyph glyph-name="uni2215" unicode="&#x2215;" horiz-adv-x="144" vert-adv-y="1160" 
d="M-140 0l392 700h32l-392 -700h-32z" />
    <glyph glyph-name="uni2219" unicode="&#x2219;" horiz-adv-x="264" vert-adv-y="0" 
d="M80 362q0 23 15 37.5t37 14.5q23 0 37.5 -14.5t14.5 -37.5q0 -22 -14.5 -37t-37.5 -15q-22 0 -37 15t-15 37z" />
    <glyph glyph-name="radical" unicode="&#x221a;" vert-adv-y="0" 
d="M50 371v24h149l123 -307h6l186 749h62l-253 -851h-22l-156 385h-95z" />
    <glyph glyph-name="infinity" unicode="&#x221e;" horiz-adv-x="788" vert-adv-y="0" 
d="M222 161q-68 0 -110 45.5t-42 118.5q0 74 42 119t110 45q51 0 88.5 -31.5t84.5 -104.5q45 75 83.5 105.5t87.5 30.5q68 0 110 -45t42 -119q0 -73 -42 -118.5t-110 -45.5q-51 0 -88.5 31.5t-84.5 104.5q-45 -75 -83.5 -105.5t-87.5 -30.5zM566 461q-43 0 -76.5 -29
t-77.5 -104q33 -55 58 -85t47.5 -42t48.5 -12q53 0 85.5 37.5t32.5 98.5q0 62 -32.5 99t-85.5 37zM222 189q43 0 77 29t77 104q-33 55 -58 85t-47.5 42t-48.5 12q-53 0 -85.5 -37t-32.5 -99q0 -61 32.5 -98.5t85.5 -37.5z" />
    <glyph glyph-name="integral" unicode="&#x222b;" horiz-adv-x="400" vert-adv-y="0" 
d="M166 22v628q0 85 32.5 127.5t93.5 42.5q18 0 37.5 -4.5t44.5 -17.5l-5 -54h-6q-22 32 -38.5 42t-32.5 10q-31 0 -44.5 -29.5t-13.5 -88.5v-628q0 -85 -32.5 -127.5t-93.5 -42.5q-18 0 -37 4.5t-45 17.5l5 54h6q23 -32 39 -42t32 -10q31 0 44.5 29.5t13.5 88.5z" />
    <glyph glyph-name="approxequal" unicode="&#x2248;" vert-adv-y="0" 
d="M49 360q38 45 71.5 61t63.5 16q23 0 47 -8.5t63 -30.5t63.5 -31t46.5 -9q31 0 54.5 15t54.5 49l20 -17q-38 -45 -71.5 -61t-63.5 -16q-23 0 -47 8.5t-63 30.5q-39 23 -63 31.5t-47 8.5q-31 0 -54.5 -15t-54.5 -49zM49 202q38 45 71.5 61t63.5 16q23 0 47 -8.5t63 -30.5
t63.5 -31t46.5 -9q31 0 54.5 15t54.5 49l20 -17q-38 -45 -71.5 -61t-63.5 -16q-23 0 -47 8.5t-63 30.5q-39 23 -63 31.5t-47 8.5q-31 0 -54.5 -15t-54.5 -49z" />
    <glyph glyph-name="notequal" unicode="&#x2260;" vert-adv-y="0" 
d="M110 84l93 121h-144v30h164l108 140h-272v30h291l91 118l24 -18l-77 -100h135v-30h-154l-108 -140h262v-30h-282l-107 -139z" />
    <glyph glyph-name="lessequal" unicode="&#x2264;" vert-adv-y="0" 
d="M59 0v30h464v-30h-464zM59 300v32l464 193v-33l-426 -176l426 -176v-33z" />
    <glyph glyph-name="greaterequal" unicode="&#x2265;" vert-adv-y="0" 
d="M523 300l-464 -193v33l426 176l-426 176v33l464 -193v-32zM523 0h-464v30h464v-30z" />
    <glyph glyph-name="lozenge" unicode="&#x25ca;" horiz-adv-x="573" vert-adv-y="0" 
d="M268 0l-210 350l210 350h37l210 -350l-210 -350h-37zM95 350l192 -319l191 319l-191 319z" />
    <glyph glyph-name="IJ_acute" horiz-adv-x="656" vert-adv-y="1160" 
d="M130 0v700h68v-700h-68zM103 775l97 122h90v-6l-174 -128zM458 62v638h68v-632q0 -126 -35 -196t-107 -102l-3 5q40 28 58.5 94.5t18.5 192.5zM431 775l97 122h90v-6l-174 -128z" />
    <glyph glyph-name="zero.tf" vert-adv-y="0" 
d="M54 350q0 110 29.5 191.5t83 127t124.5 45.5q72 0 125 -45.5t82.5 -127t29.5 -191.5q0 -109 -29.5 -191t-82.5 -127.5t-125 -45.5q-71 0 -124.5 45.5t-83 127.5t-29.5 191zM128 350q0 -161 43 -250.5t120 -89.5t120 89.5t43 250.5t-43 250.5t-120 89.5t-120 -89.5
t-43 -250.5z" />
    <glyph glyph-name="one.tf" vert-adv-y="0" 
d="M103 0v24h171v618l-163 -76l-8 16l219 132h20v-690h158v-24h-397z" />
    <glyph glyph-name="two.tf" vert-adv-y="0" 
d="M55 0v18l260 324q45 56 65.5 106t20.5 96q0 68 -37.5 107t-98.5 39q-43 0 -87 -19.5t-79 -53.5h-6l-5 54q35 20 82 31.5t95 11.5q94 0 152 -44.5t58 -120.5q0 -45 -27 -100.5t-98 -133.5l-231 -255h376v-60h-440z" />
    <glyph glyph-name="three.tf" vert-adv-y="0" 
d="M223 372h-25v24h21q75 0 118.5 37.5t43.5 110.5q0 67 -35.5 106.5t-94.5 39.5q-39 0 -86 -17t-76 -46h-6l-5 53q32 15 81.5 24.5t92.5 9.5q92 0 146.5 -45.5t54.5 -119.5q0 -60 -38 -102t-110 -59v-6q85 -16 132.5 -67.5t47.5 -127.5q0 -61 -29 -106t-81 -70t-122 -25
q-43 0 -94 10t-86 26l-6 60h6q37 -35 85.5 -53.5t92.5 -18.5q73 0 116.5 49t43.5 131q0 83 -51 132.5t-137 49.5z" />
    <glyph glyph-name="four.tf" vert-adv-y="1160" 
d="M41 196v20l266 484h76l-312 -480h282v210h66v-210h122v-24h-122v-196h-66v196h-312z" />
    <glyph glyph-name="five.tf" vert-adv-y="0" 
d="M90 82q39 -31 86 -51.5t97 -20.5q74 0 119 47t45 124t-48 131t-135 70l-132 24l29 294h316v-60h-297l-17 -173l119 -22q107 -19 165 -83t58 -157q0 -65 -28 -114.5t-77.5 -77t-115.5 -27.5q-41 0 -88.5 10t-95.5 26l-6 60h6z" />
    <glyph glyph-name="six.tf" vert-adv-y="0" 
d="M144 284q0 -127 44.5 -201.5t119.5 -74.5q63 0 102 51t39 133q0 85 -39 135t-105 50q-49 0 -97 -25l-9 16q65 37 131 37q58 0 101 -25.5t67.5 -71.5t24.5 -108q0 -64 -27 -112t-75.5 -75t-112.5 -27q-73 0 -126.5 35.5t-82.5 101.5t-29 156q0 89 27 165.5t76.5 135.5
t117 95t147.5 43l2 -18q-85 -10 -152 -64.5t-105.5 -144t-38.5 -207.5z" />
    <glyph glyph-name="seven.tf" vert-adv-y="0" 
d="M67 640v60h441v-20l-280 -680h-74l310 640h-397z" />
    <glyph glyph-name="eight.tf" vert-adv-y="1160" 
d="M506 169q0 -55 -28 -96t-78.5 -64t-118.5 -23q-102 0 -163.5 47t-61.5 124q0 68 48 123t130 82q-80 48 -115 91t-35 98q0 74 54.5 118.5t142.5 44.5q59 0 103 -19t69 -53.5t25 -79.5q0 -55 -37 -101t-104 -76q66 -40 102.5 -75.5t51.5 -70t15 -70.5zM144 573
q0 -35 18 -62t56 -53.5t98 -60.5q46 23 72.5 64.5t26.5 96.5q0 63 -36 97.5t-98 34.5q-61 0 -99 -32t-38 -85zM121 161q0 -70 43 -110.5t117 -40.5q73 0 118 37.5t45 100.5q0 35 -17 65.5t-58 62.5t-112 73q-65 -27 -100.5 -75.5t-35.5 -112.5z" />
    <glyph glyph-name="nine.tf" vert-adv-y="0" 
d="M438 416q0 127 -44 201.5t-118 74.5q-63 0 -101.5 -49.5t-38.5 -129.5q0 -82 38.5 -131t103.5 -49q48 0 96 25l9 -16q-65 -37 -130 -37q-57 0 -100 25t-67 70t-24 105q0 63 27 110t75 73t112 26q73 0 126 -35.5t81.5 -101t28.5 -156.5q0 -81 -24 -157t-69.5 -137
t-110 -99.5t-144.5 -45.5l-2 18q64 8 115 43.5t87 92t55 128t19 152.5z" />
    <glyph glyph-name="zero.dnom" horiz-adv-x="434" vert-adv-y="1160" 
d="M62 209q0 99 42.5 159t112.5 60t112.5 -60t42.5 -159t-42.5 -159t-112.5 -60t-112.5 60t-42.5 159zM120 209q0 -94 25.5 -146.5t71.5 -52.5t71.5 52.5t25.5 146.5t-25.5 146.5t-71.5 52.5t-71.5 -52.5t-25.5 -146.5z" />
    <glyph glyph-name="one.dnom" horiz-adv-x="293" vert-adv-y="1160" 
d="M139 0v377l-96 -42l-6 13l138 80h16v-428h-52z" />
    <glyph glyph-name="two.dnom" horiz-adv-x="368" vert-adv-y="1160" 
d="M42 0v16l151 190q29 36 41 61.5t12 52.5q0 41 -20.5 64.5t-55.5 23.5q-49 0 -99 -44h-4l-3 39q53 25 106 25q61 0 97.5 -28t36.5 -75q0 -28 -17.5 -56.5t-65.5 -80.5l-130 -142h220v-46h-269z" />
    <glyph glyph-name="three.dnom" horiz-adv-x="363" vert-adv-y="1160" 
d="M136 216h-23v20h21q46 0 70.5 22.5t24.5 65.5q0 38 -20 61t-53 23q-23 0 -50 -10.5t-44 -28.5h-4l-3 39q20 9 48 14.5t53 5.5q58 0 93.5 -28t35.5 -74q0 -36 -24.5 -61t-71.5 -36v-4q55 -9 85.5 -39t30.5 -77q0 -54 -41 -86.5t-108 -32.5q-57 0 -104 21l-4 43h4
q23 -22 50 -33t54 -11q41 0 66 27.5t25 73.5q0 50 -29.5 77.5t-81.5 27.5z" />
    <glyph glyph-name="four.dnom" horiz-adv-x="396" vert-adv-y="1160" 
d="M231 0v115h-191v16l124 287h62l-162 -283h167v145h50v-145h75v-20h-75v-115h-50z" />
    <glyph glyph-name="five.dnom" horiz-adv-x="359" vert-adv-y="1160" 
d="M51 54q55 -44 110 -44q43 0 69.5 25.5t26.5 66.5q0 45 -31 73.5t-81 38.5l-76 15l21 189h191v-46h-176l-11 -97l66 -13q64 -13 100.5 -49.5t36.5 -92.5q0 -58 -38 -94t-99 -36q-22 0 -48 5.5t-61 15.5l-3 43h3z" />
    <glyph glyph-name="six.dnom" horiz-adv-x="407" vert-adv-y="1160" 
d="M120 171q0 -75 25.5 -118t66.5 -43q35 0 56 29t21 78q0 50 -22.5 79.5t-60.5 29.5q-10 0 -21.5 -2.5t-25.5 -10.5l-5 13q17 9 35.5 13t35.5 4q55 0 88.5 -34t33.5 -90q0 -58 -37 -93.5t-98 -35.5q-70 0 -110 47.5t-40 130.5q0 71 28.5 128.5t79.5 93.5t117 42l2 -14
q-77 -10 -123 -77.5t-46 -169.5z" />
    <glyph glyph-name="seven.dnom" horiz-adv-x="357" vert-adv-y="1160" 
d="M42 372v46h269v-16l-167 -402h-52l185 372h-235z" />
    <glyph glyph-name="eight.dnom" horiz-adv-x="402" vert-adv-y="1160" 
d="M344 97q0 -49 -39 -78t-104 -29q-64 0 -103.5 28t-39.5 75q0 40 27.5 72t74.5 49q-85 53 -85 117q0 44 34.5 70.5t91.5 26.5q56 0 91 -25t35 -64q0 -32 -23.5 -61t-67.5 -48q56 -31 82 -63t26 -70zM125 339q0 -25 19.5 -46.5t73.5 -52.5q57 30 57 94q0 35 -20 54.5
t-54 19.5q-33 0 -54.5 -18.5t-21.5 -50.5zM111 98q0 -42 25 -65t65 -23t66 22t26 59q0 19 -9.5 34.5t-34.5 34t-71 44.5q-67 -34 -67 -106z" />
    <glyph glyph-name="nine.dnom" horiz-adv-x="404" vert-adv-y="1160" 
d="M284 247q0 75 -25 118t-65 43q-34 0 -55 -28.5t-21 -76.5q0 -49 22 -78t59 -29q11 0 22 3t24 10l5 -13q-16 -9 -34.5 -13t-35.5 -4q-54 0 -87 33.5t-33 88.5q0 58 37 92.5t97 34.5q68 0 108 -47.5t40 -130.5q0 -71 -27.5 -128.5t-76 -93.5t-111.5 -42l-2 14q48 7 83.5 40
t55.5 86.5t20 120.5z" />
    <glyph glyph-name="zero.numr" horiz-adv-x="434" vert-adv-y="1160" 
d="M62 491q0 99 42.5 159t112.5 60t112.5 -60t42.5 -159t-42.5 -159t-112.5 -60t-112.5 60t-42.5 159zM120 491q0 -94 25.5 -146.5t71.5 -52.5t71.5 52.5t25.5 146.5t-25.5 146.5t-71.5 52.5t-71.5 -52.5t-25.5 -146.5z" />
    <glyph glyph-name="one.numr" horiz-adv-x="293" vert-adv-y="1160" 
d="M139 282v377l-96 -42l-6 13l138 80h16v-428h-52z" />
    <glyph glyph-name="two.numr" horiz-adv-x="368" vert-adv-y="1160" 
d="M42 282v16l151 190q29 36 41 61.5t12 52.5q0 41 -20.5 64.5t-55.5 23.5q-49 0 -99 -44h-4l-3 39q53 25 106 25q61 0 97.5 -28t36.5 -75q0 -28 -17.5 -56.5t-65.5 -80.5l-130 -142h220v-46h-269z" />
    <glyph glyph-name="three.numr" horiz-adv-x="363" vert-adv-y="1160" 
d="M136 498h-23v20h21q46 0 70.5 22.5t24.5 65.5q0 38 -20 61t-53 23q-23 0 -50 -10.5t-44 -28.5h-4l-3 39q20 9 48 14.5t53 5.5q58 0 93.5 -28t35.5 -74q0 -36 -24.5 -61t-71.5 -36v-4q55 -9 85.5 -39t30.5 -77q0 -54 -41 -86.5t-108 -32.5q-57 0 -104 21l-4 43h4
q23 -22 50 -33t54 -11q41 0 66 27.5t25 73.5q0 50 -29.5 77.5t-81.5 27.5z" />
    <glyph glyph-name="four.numr" horiz-adv-x="396" vert-adv-y="1160" 
d="M231 282v115h-191v16l124 287h62l-162 -283h167v145h50v-145h75v-20h-75v-115h-50z" />
    <glyph glyph-name="five.numr" horiz-adv-x="359" vert-adv-y="1160" 
d="M51 336q55 -44 110 -44q43 0 69.5 25.5t26.5 66.5q0 45 -31 73.5t-81 38.5l-76 15l21 189h191v-46h-176l-11 -97l66 -13q64 -13 100.5 -49.5t36.5 -92.5q0 -58 -38 -94t-99 -36q-22 0 -48 5.5t-61 15.5l-3 43h3z" />
    <glyph glyph-name="six.numr" horiz-adv-x="407" vert-adv-y="1160" 
d="M120 453q0 -75 25.5 -118t66.5 -43q35 0 56 29t21 78q0 50 -22.5 79.5t-60.5 29.5q-10 0 -21.5 -2.5t-25.5 -10.5l-5 13q17 9 35.5 13t35.5 4q55 0 88.5 -34t33.5 -90q0 -58 -37 -93.5t-98 -35.5q-70 0 -110 47.5t-40 130.5q0 71 28.5 128.5t79.5 93.5t117 42l2 -14
q-77 -10 -123 -77.5t-46 -169.5z" />
    <glyph glyph-name="seven.numr" horiz-adv-x="357" vert-adv-y="1160" 
d="M42 654v46h269v-16l-167 -402h-52l185 372h-235z" />
    <glyph glyph-name="eight.numr" horiz-adv-x="402" vert-adv-y="1160" 
d="M344 379q0 -49 -39 -78t-104 -29q-64 0 -103.5 28t-39.5 75q0 40 27.5 72t74.5 49q-85 53 -85 117q0 44 34.5 70.5t91.5 26.5q56 0 91 -25t35 -64q0 -32 -23.5 -61t-67.5 -48q56 -31 82 -63t26 -70zM125 621q0 -25 19.5 -46.5t73.5 -52.5q57 30 57 94q0 35 -20 54.5
t-54 19.5q-33 0 -54.5 -18.5t-21.5 -50.5zM111 380q0 -42 25 -65t65 -23t66 22t26 59q0 19 -9.5 34.5t-34.5 34t-71 44.5q-67 -34 -67 -106z" />
    <glyph glyph-name="nine.numr" horiz-adv-x="404" vert-adv-y="1160" 
d="M284 529q0 75 -25 118t-65 43q-34 0 -55 -28.5t-21 -76.5q0 -49 22 -78t59 -29q11 0 22 3t24 10l5 -13q-16 -9 -34.5 -13t-35.5 -4q-54 0 -87 33.5t-33 88.5q0 58 37 92.5t97 34.5q68 0 108 -47.5t40 -130.5q0 -71 -27.5 -128.5t-76 -93.5t-111.5 -42l-2 14q48 7 83.5 40
t55.5 86.5t20 120.5z" />
    <glyph glyph-name="numbersign.tf" vert-adv-y="0" 
d="M93 0l36 203h-112v56h122l35 196h-112v56h122l33 189h25l-33 -189h199l33 189h25l-33 -189h112v-56h-122l-35 -196h112v-56h-122l-36 -203h-25l36 203h-199l-36 -203h-25zM164 259h199l35 196h-199z" />
    <glyph glyph-name="periodcentered.loclCAT.case" horiz-adv-x="264" vert-adv-y="1160" 
d="M87 360q0 22 14 36t36 14t36 -14t14 -36t-14 -36t-36 -14t-36 14t-14 36z" />
    <glyph glyph-name="florin.tf" vert-adv-y="0" 
d="M206 83l40 325h-89l3 24h89l14 112q21 170 158 170q21 0 42.5 -4.5t45.5 -17.5l-12 -53h-6q-18 32 -34.5 41.5t-35.5 9.5q-36 0 -60.5 -29.5t-31.5 -88.5l-17 -140h130l-3 -24h-130l-39 -318q-18 -149 -71.5 -226t-149.5 -91l-2 6q68 27 105.5 104t53.5 200z" />
    <glyph glyph-name="cent.tf" vert-adv-y="0" 
d="M312 -98v85q-70 6 -124.5 40.5t-86 90t-31.5 124.5t31.5 124.5t86 90t124.5 40.5v85h26v-84q38 0 77.5 -8.5t78.5 -24.5l-4 -49h-5q-29 27 -66.5 43.5t-80.5 16.5v-468q42 0 83 16.5t73 44.5h5l-5 -53q-27 -13 -72.5 -21.5t-83.5 -8.5v-84h-26zM140 242q0 -64 21.5 -114
t60.5 -81t90 -37v464q-51 -6 -90 -37t-60.5 -81t-21.5 -114z" />
    <glyph glyph-name="dollar.tf" vert-adv-y="0" 
d="M76 22l6 60h6q36 -32 83.5 -51t93.5 -21v327q-47 27 -87.5 55.5t-66 64.5t-25.5 88q0 72 50 118t132 50v77h26v-76q39 -1 82 -9.5t67 -20.5l-5 -55h-6q-27 29 -62.5 44.5t-75.5 16.5v-287q48 -27 91 -57t70.5 -71t27.5 -100q0 -80 -53 -132t-139 -57v-84h-26v84
q-40 1 -92 11t-97 25zM142 570q0 -37 18 -64.5t47 -48.5t61 -40v272q-57 -4 -91.5 -36t-34.5 -83zM425 148q0 48 -30 88t-104 86v-311q61 4 97.5 41t36.5 96z" />
    <glyph glyph-name="Euro.tf" vert-adv-y="0" 
d="M30 288v24h79q-1 19 -1 38q0 22 2 44h-80v24h82q11 89 49.5 155.5t98 103.5t134.5 37q36 0 75.5 -8t74.5 -20l-4 -52h-6q-26 26 -62 41t-78 15q-88 0 -142 -71t-65 -201h259v-24h-261q-1 -21 -1 -44q0 -20 1 -38h261v-24h-260q11 -133 65 -205.5t143 -72.5
q44 0 76.5 16.5t69.5 46.5h6l-5 -57q-31 -13 -71 -21.5t-76 -8.5q-76 0 -136 38t-98 105.5t-49 158.5h-81z" />
    <glyph glyph-name="sterling.tf" vert-adv-y="0" 
d="M64 0v18q68 91 99.5 154.5t31.5 115.5q0 20 -5 39h-120v24h112q-8 21 -23 51q-22 43 -31 74.5t-9 61.5q0 80 53.5 128t139.5 48q25 0 54.5 -4t56 -10.5t43.5 -15.5l-5 -55h-6q-61 63 -143 63q-61 0 -99 -34t-38 -89q0 -25 10.5 -53t35.5 -78t32 -87h157v-24h-154
q1 -9 1 -18q0 -37 -12 -72t-40.5 -76.5t-79.5 -100.5h369v-60h-430z" />
    <glyph glyph-name="yen.tf" vert-adv-y="0" 
d="M94 156v24h166v82h-166v24h166l-240 414h76l215 -376h6l170 376h76l-231 -400v-14h166v-24h-166v-82h166v-24h-166v-156h-72v156h-166z" />
    <glyph glyph-name="uni030C.alt" horiz-adv-x="0" vert-adv-y="0" 
d="M73 677q0 15 10 24t26 9q44 0 44 -54q0 -31 -17 -69t-47 -72l-14 11q23 31 23 73q0 16 -4 28t-12 25q-4 6 -6.5 12t-2.5 13z" />
    <glyph glyph-name="turkishlira.tf" vert-adv-y="0" 
d="M137 0v348l-99 -27v25l99 27v81l-99 -27v25l99 27v221h68v-206l194 53v-25l-194 -53v-81l194 53v-25l-194 -53v-339h34q102 0 160.5 69t58.5 189h66q0 -133 -75 -207.5t-207 -74.5h-105z" />
    </font>
</defs>
</svg>
